<?xml version="1.0" encoding="UTF-8" standalone="no"?>
<!DOCTYPE svg PUBLIC "-//W3C//DTD SVG 1.1//EN"
 "http://www.w3.org/Graphics/SVG/1.1/DTD/svg11.dtd">
<!-- Generated by graphviz version 14.1.2 (0)
 -->
<!-- Title: DependencyGraph Pages: 1 -->
<svg width="7483pt" height="111pt"
 viewBox="0.00 0.00 7483.00 111.00" xmlns="http://www.w3.org/2000/svg" xmlns:xlink="http://www.w3.org/1999/xlink">
<g id="graph0" class="graph" transform="scale(1 1) rotate(0) translate(4 107)">
<title>DependencyGraph</title>
<polygon fill="white" stroke="none" points="-4,4 -4,-107 7479.25,-107 7479.25,4 -4,4"/>
<!-- node_0 -->
<g id="node1" class="node">
<title>node_0</title>
<path fill="#e57373" stroke="#e65100" stroke-width="4" d="M56.5,-70.25C56.5,-70.25 12,-70.25 12,-70.25 6,-70.25 0,-64.25 0,-58.25 0,-58.25 0,-39 0,-39 0,-33 6,-27 12,-27 12,-27 56.5,-27 56.5,-27 62.5,-27 68.5,-33 68.5,-39 68.5,-39 68.5,-58.25 68.5,-58.25 68.5,-64.25 62.5,-70.25 56.5,-70.25"/>
<text xml:space="preserve" text-anchor="middle" x="34.25" y="-56.75" font-family="Helvetica,sans-Serif" font-size="10.00">fc</text>
<text xml:space="preserve" text-anchor="middle" x="34.25" y="-45.5" font-family="Helvetica,sans-Serif" font-size="10.00">Linear</text>
<text xml:space="preserve" text-anchor="middle" x="34.25" y="-34.25" font-family="Helvetica,sans-Serif" font-size="10.00">512 → 1000</text>
</g>
<!-- node_1 -->
<g id="node2" class="node">
<title>node_1</title>
<path fill="#90caf9" stroke="#e65100" stroke-width="4" d="M165.75,-66.62C165.75,-66.62 116.75,-66.62 116.75,-66.62 110.75,-66.62 104.75,-60.62 104.75,-54.62 104.75,-54.62 104.75,-42.62 104.75,-42.62 104.75,-36.62 110.75,-30.62 116.75,-30.62 116.75,-30.62 165.75,-30.62 165.75,-30.62 171.75,-30.62 177.75,-36.62 177.75,-42.62 177.75,-42.62 177.75,-54.62 177.75,-54.62 177.75,-60.62 171.75,-66.62 165.75,-66.62"/>
<text xml:space="preserve" text-anchor="middle" x="141.25" y="-44.75" font-family="Helvetica,sans-Serif" font-size="10.00">_ReshapeOp</text>
</g>
<!-- node_0&#45;&gt;node_1 -->
<g id="edge1" class="edge">
<title>node_0&#45;&gt;node_1</title>
<path fill="none" stroke="#c62828" stroke-width="2" stroke-dasharray="1,5" d="M84.58,-49C84.58,-49 88.76,-49 88.76,-49"/>
<polygon fill="#c62828" stroke="#c62828" stroke-width="2" points="84.28,-49 78.28,-53 72.28,-49 78.28,-45 84.28,-49"/>
<polygon fill="#c62828" stroke="#c62828" stroke-width="2" points="89.06,-49 95.06,-45 101.06,-49 95.06,-53 89.06,-49"/>
</g>
<!-- node_2 -->
<g id="node3" class="node">
<title>node_2</title>
<path fill="#ffd54f" stroke="#e65100" stroke-width="4" d="M7463.25,-66.62C7463.25,-66.62 7433.25,-66.62 7433.25,-66.62 7427.25,-66.62 7421.25,-60.62 7421.25,-54.62 7421.25,-54.62 7421.25,-42.62 7421.25,-42.62 7421.25,-36.62 7427.25,-30.62 7433.25,-30.62 7433.25,-30.62 7463.25,-30.62 7463.25,-30.62 7469.25,-30.62 7475.25,-36.62 7475.25,-42.62 7475.25,-42.62 7475.25,-54.62 7475.25,-54.62 7475.25,-60.62 7469.25,-66.62 7463.25,-66.62"/>
<text xml:space="preserve" text-anchor="middle" x="7448.25" y="-44.75" font-family="Helvetica,sans-Serif" font-size="10.00">T</text>
</g>
<!-- node_0&#45;&gt;node_2 -->
<g id="edge2" class="edge">
<title>node_0&#45;&gt;node_2</title>
<path fill="none" stroke="#c62828" stroke-width="2" stroke-dasharray="1,5" d="M34.25,-86.11C34.25,-86.11 34.25,-103 34.25,-103 34.25,-103 7448.25,-103 7448.25,-103 7448.25,-103 7448.25,-82.67 7448.25,-82.67"/>
<polygon fill="#c62828" stroke="#c62828" stroke-width="2" points="34.25,-85.8 30.25,-79.8 34.25,-73.8 38.25,-79.8 34.25,-85.8"/>
<polygon fill="#c62828" stroke="#c62828" stroke-width="2" points="7448.25,-82.37 7444.25,-76.37 7448.25,-70.37 7452.25,-76.37 7448.25,-82.37"/>
</g>
<!-- node_3 -->
<g id="node4" class="node">
<title>node_3</title>
<path fill="#ffd54f" stroke="#e65100" stroke-width="4" d="M256.25,-66.62C256.25,-66.62 226.25,-66.62 226.25,-66.62 220.25,-66.62 214.25,-60.62 214.25,-54.62 214.25,-54.62 214.25,-42.62 214.25,-42.62 214.25,-36.62 220.25,-30.62 226.25,-30.62 226.25,-30.62 256.25,-30.62 256.25,-30.62 262.25,-30.62 268.25,-36.62 268.25,-42.62 268.25,-42.62 268.25,-54.62 268.25,-54.62 268.25,-60.62 262.25,-66.62 256.25,-66.62"/>
<text xml:space="preserve" text-anchor="middle" x="241.25" y="-44.75" font-family="Helvetica,sans-Serif" font-size="10.00">Mean</text>
</g>
<!-- node_1&#45;&gt;node_3 -->
<g id="edge3" class="edge">
<title>node_1&#45;&gt;node_3</title>
<path fill="none" stroke="#c62828" stroke-width="2" stroke-dasharray="1,5" d="M193.73,-49C193.73,-49 198.35,-49 198.35,-49"/>
<polygon fill="#c62828" stroke="#c62828" stroke-width="2" points="193.43,-49 187.43,-53 181.43,-49 187.43,-45 193.43,-49"/>
<polygon fill="#c62828" stroke="#c62828" stroke-width="2" points="198.65,-49 204.65,-45 210.65,-49 204.65,-53 198.65,-49"/>
</g>
<!-- node_4 -->
<g id="node5" class="node">
<title>node_4</title>
<path fill="#ffd54f" stroke="#e65100" stroke-width="4" d="M346.25,-66.62C346.25,-66.62 316.25,-66.62 316.25,-66.62 310.25,-66.62 304.25,-60.62 304.25,-54.62 304.25,-54.62 304.25,-42.62 304.25,-42.62 304.25,-36.62 310.25,-30.62 316.25,-30.62 316.25,-30.62 346.25,-30.62 346.25,-30.62 352.25,-30.62 358.25,-36.62 358.25,-42.62 358.25,-42.62 358.25,-54.62 358.25,-54.62 358.25,-60.62 352.25,-66.62 346.25,-66.62"/>
<text xml:space="preserve" text-anchor="middle" x="331.25" y="-44.75" font-family="Helvetica,sans-Serif" font-size="10.00">ReLU</text>
</g>
<!-- node_3&#45;&gt;node_4 -->
<g id="edge4" class="edge">
<title>node_3&#45;&gt;node_4</title>
<path fill="none" stroke="#c62828" stroke-width="2" stroke-dasharray="1,5" d="M284.33,-49C284.33,-49 288.23,-49 288.23,-49"/>
<polygon fill="#c62828" stroke="#c62828" stroke-width="2" points="284.02,-49 278.02,-53 272.02,-49 278.02,-45 284.02,-49"/>
<polygon fill="#c62828" stroke="#c62828" stroke-width="2" points="288.53,-49 294.53,-45 300.53,-49 294.53,-53 288.53,-49"/>
</g>
<!-- node_5 -->
<g id="node6" class="node">
<title>node_5</title>
<path fill="#ffd54f" stroke="#e65100" stroke-width="4" d="M436.25,-66.62C436.25,-66.62 406.25,-66.62 406.25,-66.62 400.25,-66.62 394.25,-60.62 394.25,-54.62 394.25,-54.62 394.25,-42.62 394.25,-42.62 394.25,-36.62 400.25,-30.62 406.25,-30.62 406.25,-30.62 436.25,-30.62 436.25,-30.62 442.25,-30.62 448.25,-36.62 448.25,-42.62 448.25,-42.62 448.25,-54.62 448.25,-54.62 448.25,-60.62 442.25,-66.62 436.25,-66.62"/>
<text xml:space="preserve" text-anchor="middle" x="421.25" y="-44.75" font-family="Helvetica,sans-Serif" font-size="10.00">Add</text>
</g>
<!-- node_4&#45;&gt;node_5 -->
<g id="edge5" class="edge">
<title>node_4&#45;&gt;node_5</title>
<path fill="none" stroke="#c62828" stroke-width="2" stroke-dasharray="1,5" d="M374.33,-49C374.33,-49 378.23,-49 378.23,-49"/>
<polygon fill="#c62828" stroke="#c62828" stroke-width="2" points="374.02,-49 368.02,-53 362.02,-49 368.02,-45 374.02,-49"/>
<polygon fill="#c62828" stroke="#c62828" stroke-width="2" points="378.53,-49 384.53,-45 390.53,-49 384.53,-53 378.53,-49"/>
</g>
<!-- node_6 -->
<g id="node7" class="node">
<title>node_6</title>
<path fill="#81c784" stroke="#e65100" stroke-width="4" d="M548.25,-70.25C548.25,-70.25 496.25,-70.25 496.25,-70.25 490.25,-70.25 484.25,-64.25 484.25,-58.25 484.25,-58.25 484.25,-39 484.25,-39 484.25,-33 490.25,-27 496.25,-27 496.25,-27 548.25,-27 548.25,-27 554.25,-27 560.25,-33 560.25,-39 560.25,-39 560.25,-58.25 560.25,-58.25 560.25,-64.25 554.25,-70.25 548.25,-70.25"/>
<text xml:space="preserve" text-anchor="middle" x="522.25" y="-56.75" font-family="Helvetica,sans-Serif" font-size="10.00">layer4.1.bn2</text>
<text xml:space="preserve" text-anchor="middle" x="522.25" y="-45.5" font-family="Helvetica,sans-Serif" font-size="10.00">BatchNorm2d</text>
<text xml:space="preserve" text-anchor="middle" x="522.25" y="-34.25" font-family="Helvetica,sans-Serif" font-size="10.00">512 → 512</text>
</g>
<!-- node_5&#45;&gt;node_6 -->
<g id="edge6" class="edge">
<title>node_5&#45;&gt;node_6</title>
<path fill="none" stroke="#c62828" stroke-width="2" stroke-dasharray="1,5" d="M464.3,-49C464.3,-49 468.28,-49 468.28,-49"/>
<polygon fill="#c62828" stroke="#c62828" stroke-width="2" points="464,-49 458,-53 452,-49 458,-45 464,-49"/>
<polygon fill="#c62828" stroke="#c62828" stroke-width="2" points="468.59,-49 474.59,-45 480.59,-49 474.59,-53 468.59,-49"/>
</g>
<!-- node_7 -->
<g id="node8" class="node">
<title>node_7</title>
<path fill="#ffd54f" stroke="#e65100" stroke-width="4" d="M1072.25,-66.62C1072.25,-66.62 1042.25,-66.62 1042.25,-66.62 1036.25,-66.62 1030.25,-60.62 1030.25,-54.62 1030.25,-54.62 1030.25,-42.62 1030.25,-42.62 1030.25,-36.62 1036.25,-30.62 1042.25,-30.62 1042.25,-30.62 1072.25,-30.62 1072.25,-30.62 1078.25,-30.62 1084.25,-36.62 1084.25,-42.62 1084.25,-42.62 1084.25,-54.62 1084.25,-54.62 1084.25,-60.62 1078.25,-66.62 1072.25,-66.62"/>
<text xml:space="preserve" text-anchor="middle" x="1057.25" y="-44.75" font-family="Helvetica,sans-Serif" font-size="10.00">ReLU</text>
</g>
<!-- node_5&#45;&gt;node_7 -->
<g id="edge7" class="edge">
<title>node_5&#45;&gt;node_7</title>
<path fill="none" stroke="#c62828" stroke-width="2" stroke-dasharray="1,5" d="M421.25,-76.13C421.25,-76.13 421.25,-77 421.25,-77 421.25,-77 1057.25,-77 1057.25,-77 1057.25,-77 1057.25,-76.13 1057.25,-76.13"/>
<polygon fill="#c62828" stroke="#c62828" stroke-width="2" points="421.25,-82.14 417.25,-76.14 421.25,-70.14 425.25,-76.14 421.25,-82.14"/>
<polygon fill="#c62828" stroke="#c62828" stroke-width="2" points="1057.25,-82.14 1053.25,-76.14 1057.25,-70.14 1061.25,-76.14 1057.25,-82.14"/>
</g>
<!-- node_66 -->
<g id="node67" class="node">
<title>node_66</title>
<path fill="#4a90d9" stroke="#7b1fa2" stroke-width="4" d="M664.12,-70.25C664.12,-70.25 608.38,-70.25 608.38,-70.25 602.38,-70.25 596.38,-64.25 596.38,-58.25 596.38,-58.25 596.38,-39 596.38,-39 596.38,-33 602.38,-27 608.38,-27 608.38,-27 664.12,-27 664.12,-27 670.12,-27 676.12,-33 676.12,-39 676.12,-39 676.12,-58.25 676.12,-58.25 676.12,-64.25 670.12,-70.25 664.12,-70.25"/>
<text xml:space="preserve" text-anchor="middle" x="636.25" y="-56.75" font-family="Helvetica,sans-Serif" font-size="10.00">layer4.1.conv2</text>
<text xml:space="preserve" text-anchor="middle" x="636.25" y="-45.5" font-family="Helvetica,sans-Serif" font-size="10.00">Conv2d</text>
<text xml:space="preserve" text-anchor="middle" x="636.25" y="-34.25" font-family="Helvetica,sans-Serif" font-size="10.00">512 → 512</text>
</g>
<!-- node_6&#45;&gt;node_66 -->
<g id="edge74" class="edge">
<title>node_6&#45;&gt;node_66</title>
<path fill="none" stroke="#2e7d32" stroke-width="1.5" stroke-dasharray="5,2" d="M573.95,-49C573.95,-49 582.83,-49 582.83,-49"/>
<polygon fill="#2e7d32" stroke="#2e7d32" stroke-width="1.5" points="563.95,-49 573.95,-44.5 567.12,-48.75 573.95,-48.75 573.95,-49 573.95,-49.25 567.12,-49.25 573.95,-53.5 563.95,-49"/>
<polygon fill="#2e7d32" stroke="#2e7d32" stroke-width="1.5" points="592.83,-49 582.83,-53.5 589.66,-49.25 582.83,-49.25 582.83,-49 582.83,-48.75 589.66,-48.75 582.83,-44.5 592.83,-49"/>
</g>
<!-- node_8 -->
<g id="node9" class="node">
<title>node_8</title>
<path fill="#ffd54f" stroke="#e65100" stroke-width="4" d="M1162.25,-66.62C1162.25,-66.62 1132.25,-66.62 1132.25,-66.62 1126.25,-66.62 1120.25,-60.62 1120.25,-54.62 1120.25,-54.62 1120.25,-42.62 1120.25,-42.62 1120.25,-36.62 1126.25,-30.62 1132.25,-30.62 1132.25,-30.62 1162.25,-30.62 1162.25,-30.62 1168.25,-30.62 1174.25,-36.62 1174.25,-42.62 1174.25,-42.62 1174.25,-54.62 1174.25,-54.62 1174.25,-60.62 1168.25,-66.62 1162.25,-66.62"/>
<text xml:space="preserve" text-anchor="middle" x="1147.25" y="-44.75" font-family="Helvetica,sans-Serif" font-size="10.00">Add</text>
</g>
<!-- node_7&#45;&gt;node_8 -->
<g id="edge9" class="edge">
<title>node_7&#45;&gt;node_8</title>
<path fill="none" stroke="#c62828" stroke-width="2" stroke-dasharray="1,5" d="M1100.33,-49C1100.33,-49 1104.23,-49 1104.23,-49"/>
<polygon fill="#c62828" stroke="#c62828" stroke-width="2" points="1100.02,-49 1094.02,-53 1088.02,-49 1094.02,-45 1100.02,-49"/>
<polygon fill="#c62828" stroke="#c62828" stroke-width="2" points="1104.53,-49 1110.53,-45 1116.53,-49 1110.53,-53 1104.53,-49"/>
</g>
<!-- node_9 -->
<g id="node10" class="node">
<title>node_9</title>
<path fill="#81c784" stroke="#e65100" stroke-width="4" d="M1274.25,-70.25C1274.25,-70.25 1222.25,-70.25 1222.25,-70.25 1216.25,-70.25 1210.25,-64.25 1210.25,-58.25 1210.25,-58.25 1210.25,-39 1210.25,-39 1210.25,-33 1216.25,-27 1222.25,-27 1222.25,-27 1274.25,-27 1274.25,-27 1280.25,-27 1286.25,-33 1286.25,-39 1286.25,-39 1286.25,-58.25 1286.25,-58.25 1286.25,-64.25 1280.25,-70.25 1274.25,-70.25"/>
<text xml:space="preserve" text-anchor="middle" x="1248.25" y="-56.75" font-family="Helvetica,sans-Serif" font-size="10.00">layer4.0.bn2</text>
<text xml:space="preserve" text-anchor="middle" x="1248.25" y="-45.5" font-family="Helvetica,sans-Serif" font-size="10.00">BatchNorm2d</text>
<text xml:space="preserve" text-anchor="middle" x="1248.25" y="-34.25" font-family="Helvetica,sans-Serif" font-size="10.00">512 → 512</text>
</g>
<!-- node_8&#45;&gt;node_9 -->
<g id="edge10" class="edge">
<title>node_8&#45;&gt;node_9</title>
<path fill="none" stroke="#c62828" stroke-width="2" stroke-dasharray="1,5" d="M1190.3,-49C1190.3,-49 1194.28,-49 1194.28,-49"/>
<polygon fill="#c62828" stroke="#c62828" stroke-width="2" points="1190,-49 1184,-53 1178,-49 1184,-45 1190,-49"/>
<polygon fill="#c62828" stroke="#c62828" stroke-width="2" points="1194.59,-49 1200.59,-45 1206.59,-49 1200.59,-53 1194.59,-49"/>
</g>
<!-- node_10 -->
<g id="node11" class="node">
<title>node_10</title>
<path fill="#81c784" stroke="#e65100" stroke-width="4" d="M7373.5,-70.25C7373.5,-70.25 7281,-70.25 7281,-70.25 7275,-70.25 7269,-64.25 7269,-58.25 7269,-58.25 7269,-39 7269,-39 7269,-33 7275,-27 7281,-27 7281,-27 7373.5,-27 7373.5,-27 7379.5,-27 7385.5,-33 7385.5,-39 7385.5,-39 7385.5,-58.25 7385.5,-58.25 7385.5,-64.25 7379.5,-70.25 7373.5,-70.25"/>
<text xml:space="preserve" text-anchor="middle" x="7327.25" y="-56.75" font-family="Helvetica,sans-Serif" font-size="10.00">layer4.0.downsample.1</text>
<text xml:space="preserve" text-anchor="middle" x="7327.25" y="-45.5" font-family="Helvetica,sans-Serif" font-size="10.00">BatchNorm2d</text>
<text xml:space="preserve" text-anchor="middle" x="7327.25" y="-34.25" font-family="Helvetica,sans-Serif" font-size="10.00">512 → 512</text>
</g>
<!-- node_10&#45;&gt;node_8 -->
<g id="edge11" class="edge">
<title>node_10&#45;&gt;node_8</title>
<path fill="none" stroke="#c62828" stroke-width="2" stroke-dasharray="1,5" d="M7327.25,-11.06C7327.25,-11.06 7327.25,0 7327.25,0 7327.25,0 1147.25,0 1147.25,0 1147.25,0 1147.25,-14.74 1147.25,-14.74"/>
<polygon fill="#c62828" stroke="#c62828" stroke-width="2" points="7327.25,-11.36 7331.25,-17.36 7327.25,-23.36 7323.25,-17.36 7327.25,-11.36"/>
<polygon fill="#c62828" stroke="#c62828" stroke-width="2" points="1147.25,-15.04 1151.25,-21.04 1147.25,-27.04 1143.25,-21.04 1147.25,-15.04"/>
</g>
<!-- node_11 -->
<g id="node12" class="node">
<title>node_11</title>
<path fill="#4a90d9" stroke="#2e7d32" stroke-width="4" d="M7220.5,-70.25C7220.5,-70.25 7128,-70.25 7128,-70.25 7122,-70.25 7116,-64.25 7116,-58.25 7116,-58.25 7116,-39 7116,-39 7116,-33 7122,-27 7128,-27 7128,-27 7220.5,-27 7220.5,-27 7226.5,-27 7232.5,-33 7232.5,-39 7232.5,-39 7232.5,-58.25 7232.5,-58.25 7232.5,-64.25 7226.5,-70.25 7220.5,-70.25"/>
<text xml:space="preserve" text-anchor="middle" x="7174.25" y="-56.75" font-family="Helvetica,sans-Serif" font-size="10.00">layer4.0.downsample.0</text>
<text xml:space="preserve" text-anchor="middle" x="7174.25" y="-45.5" font-family="Helvetica,sans-Serif" font-size="10.00">Conv2d</text>
<text xml:space="preserve" text-anchor="middle" x="7174.25" y="-34.25" font-family="Helvetica,sans-Serif" font-size="10.00">256 → 512</text>
</g>
<!-- node_10&#45;&gt;node_11 -->
<g id="edge12" class="edge">
<title>node_10&#45;&gt;node_11</title>
<path fill="none" stroke="#2e7d32" stroke-width="1.5" stroke-dasharray="5,2" d="M7255.39,-49C7255.39,-49 7246.19,-49 7246.19,-49"/>
<polygon fill="#2e7d32" stroke="#2e7d32" stroke-width="1.5" points="7265.39,-49 7255.39,-53.5 7262.22,-49.25 7255.39,-49.25 7255.39,-49 7255.39,-48.75 7262.22,-48.75 7255.39,-44.5 7265.39,-49"/>
<polygon fill="#2e7d32" stroke="#2e7d32" stroke-width="1.5" points="7236.19,-49 7246.19,-44.5 7239.36,-48.75 7246.19,-48.75 7246.19,-49 7246.19,-49.25 7239.36,-49.25 7246.19,-53.5 7236.19,-49"/>
</g>
<!-- node_12 -->
<g id="node13" class="node">
<title>node_12</title>
<path fill="#ffd54f" stroke="#2e7d32" stroke-width="4" d="M1798.25,-66.62C1798.25,-66.62 1768.25,-66.62 1768.25,-66.62 1762.25,-66.62 1756.25,-60.62 1756.25,-54.62 1756.25,-54.62 1756.25,-42.62 1756.25,-42.62 1756.25,-36.62 1762.25,-30.62 1768.25,-30.62 1768.25,-30.62 1798.25,-30.62 1798.25,-30.62 1804.25,-30.62 1810.25,-36.62 1810.25,-42.62 1810.25,-42.62 1810.25,-54.62 1810.25,-54.62 1810.25,-60.62 1804.25,-66.62 1798.25,-66.62"/>
<text xml:space="preserve" text-anchor="middle" x="1783.25" y="-44.75" font-family="Helvetica,sans-Serif" font-size="10.00">ReLU</text>
</g>
<!-- node_11&#45;&gt;node_12 -->
<g id="edge13" class="edge">
<title>node_11&#45;&gt;node_12</title>
<path fill="none" stroke="#c62828" stroke-width="2" stroke-dasharray="1,5" d="M7174.25,-86.15C7174.25,-86.15 7174.25,-99 7174.25,-99 7174.25,-99 1783.25,-99 1783.25,-99 1783.25,-99 1783.25,-82.64 1783.25,-82.64"/>
<polygon fill="#c62828" stroke="#c62828" stroke-width="2" points="7174.25,-85.85 7170.25,-79.85 7174.25,-73.85 7178.25,-79.85 7174.25,-85.85"/>
<polygon fill="#c62828" stroke="#c62828" stroke-width="2" points="1783.25,-82.34 1779.25,-76.34 1783.25,-70.34 1787.25,-76.34 1783.25,-82.34"/>
</g>
<!-- node_13 -->
<g id="node14" class="node">
<title>node_13</title>
<path fill="#ffd54f" stroke="#2e7d32" stroke-width="4" d="M1888.25,-66.62C1888.25,-66.62 1858.25,-66.62 1858.25,-66.62 1852.25,-66.62 1846.25,-60.62 1846.25,-54.62 1846.25,-54.62 1846.25,-42.62 1846.25,-42.62 1846.25,-36.62 1852.25,-30.62 1858.25,-30.62 1858.25,-30.62 1888.25,-30.62 1888.25,-30.62 1894.25,-30.62 1900.25,-36.62 1900.25,-42.62 1900.25,-42.62 1900.25,-54.62 1900.25,-54.62 1900.25,-60.62 1894.25,-66.62 1888.25,-66.62"/>
<text xml:space="preserve" text-anchor="middle" x="1873.25" y="-44.75" font-family="Helvetica,sans-Serif" font-size="10.00">Add</text>
</g>
<!-- node_12&#45;&gt;node_13 -->
<g id="edge15" class="edge">
<title>node_12&#45;&gt;node_13</title>
<path fill="none" stroke="#c62828" stroke-width="2" stroke-dasharray="1,5" d="M1826.33,-49C1826.33,-49 1830.23,-49 1830.23,-49"/>
<polygon fill="#c62828" stroke="#c62828" stroke-width="2" points="1826.02,-49 1820.02,-53 1814.02,-49 1820.02,-45 1826.02,-49"/>
<polygon fill="#c62828" stroke="#c62828" stroke-width="2" points="1830.53,-49 1836.53,-45 1842.53,-49 1836.53,-53 1830.53,-49"/>
</g>
<!-- node_65 -->
<g id="node66" class="node">
<title>node_65</title>
<path fill="#4a90d9" stroke="#c2185b" stroke-width="4" d="M1708.12,-70.25C1708.12,-70.25 1652.38,-70.25 1652.38,-70.25 1646.38,-70.25 1640.38,-64.25 1640.38,-58.25 1640.38,-58.25 1640.38,-39 1640.38,-39 1640.38,-33 1646.38,-27 1652.38,-27 1652.38,-27 1708.12,-27 1708.12,-27 1714.12,-27 1720.12,-33 1720.12,-39 1720.12,-39 1720.12,-58.25 1720.12,-58.25 1720.12,-64.25 1714.12,-70.25 1708.12,-70.25"/>
<text xml:space="preserve" text-anchor="middle" x="1680.25" y="-56.75" font-family="Helvetica,sans-Serif" font-size="10.00">layer4.0.conv1</text>
<text xml:space="preserve" text-anchor="middle" x="1680.25" y="-45.5" font-family="Helvetica,sans-Serif" font-size="10.00">Conv2d</text>
<text xml:space="preserve" text-anchor="middle" x="1680.25" y="-34.25" font-family="Helvetica,sans-Serif" font-size="10.00">256 → 512</text>
</g>
<!-- node_12&#45;&gt;node_65 -->
<g id="edge14" class="edge">
<title>node_12&#45;&gt;node_65</title>
<path fill="none" stroke="#c62828" stroke-width="2" stroke-dasharray="1,5" d="M1740.18,-49C1740.18,-49 1736.17,-49 1736.17,-49"/>
<polygon fill="#c62828" stroke="#c62828" stroke-width="2" points="1740.48,-49 1746.48,-45 1752.48,-49 1746.48,-53 1740.48,-49"/>
<polygon fill="#c62828" stroke="#c62828" stroke-width="2" points="1735.87,-49 1729.87,-53 1723.87,-49 1729.87,-45 1735.87,-49"/>
</g>
<!-- node_14 -->
<g id="node15" class="node">
<title>node_14</title>
<path fill="#81c784" stroke="#2e7d32" stroke-width="4" d="M2000.25,-70.25C2000.25,-70.25 1948.25,-70.25 1948.25,-70.25 1942.25,-70.25 1936.25,-64.25 1936.25,-58.25 1936.25,-58.25 1936.25,-39 1936.25,-39 1936.25,-33 1942.25,-27 1948.25,-27 1948.25,-27 2000.25,-27 2000.25,-27 2006.25,-27 2012.25,-33 2012.25,-39 2012.25,-39 2012.25,-58.25 2012.25,-58.25 2012.25,-64.25 2006.25,-70.25 2000.25,-70.25"/>
<text xml:space="preserve" text-anchor="middle" x="1974.25" y="-56.75" font-family="Helvetica,sans-Serif" font-size="10.00">layer3.1.bn2</text>
<text xml:space="preserve" text-anchor="middle" x="1974.25" y="-45.5" font-family="Helvetica,sans-Serif" font-size="10.00">BatchNorm2d</text>
<text xml:space="preserve" text-anchor="middle" x="1974.25" y="-34.25" font-family="Helvetica,sans-Serif" font-size="10.00">256 → 256</text>
</g>
<!-- node_13&#45;&gt;node_14 -->
<g id="edge16" class="edge">
<title>node_13&#45;&gt;node_14</title>
<path fill="none" stroke="#c62828" stroke-width="2" stroke-dasharray="1,5" d="M1916.3,-49C1916.3,-49 1920.28,-49 1920.28,-49"/>
<polygon fill="#c62828" stroke="#c62828" stroke-width="2" points="1916,-49 1910,-53 1904,-49 1910,-45 1916,-49"/>
<polygon fill="#c62828" stroke="#c62828" stroke-width="2" points="1920.59,-49 1926.59,-45 1932.59,-49 1926.59,-53 1920.59,-49"/>
</g>
<!-- node_15 -->
<g id="node16" class="node">
<title>node_15</title>
<path fill="#ffd54f" stroke="#2e7d32" stroke-width="4" d="M2524.25,-66.62C2524.25,-66.62 2494.25,-66.62 2494.25,-66.62 2488.25,-66.62 2482.25,-60.62 2482.25,-54.62 2482.25,-54.62 2482.25,-42.62 2482.25,-42.62 2482.25,-36.62 2488.25,-30.62 2494.25,-30.62 2494.25,-30.62 2524.25,-30.62 2524.25,-30.62 2530.25,-30.62 2536.25,-36.62 2536.25,-42.62 2536.25,-42.62 2536.25,-54.62 2536.25,-54.62 2536.25,-60.62 2530.25,-66.62 2524.25,-66.62"/>
<text xml:space="preserve" text-anchor="middle" x="2509.25" y="-44.75" font-family="Helvetica,sans-Serif" font-size="10.00">ReLU</text>
</g>
<!-- node_13&#45;&gt;node_15 -->
<g id="edge17" class="edge">
<title>node_13&#45;&gt;node_15</title>
<path fill="none" stroke="#c62828" stroke-width="2" stroke-dasharray="1,5" d="M1873.25,-79.76C1873.25,-79.76 1873.25,-81 1873.25,-81 1873.25,-81 2509.25,-81 2509.25,-81 2509.25,-81 2509.25,-79.76 2509.25,-79.76"/>
<polygon fill="#c62828" stroke="#c62828" stroke-width="2" points="1873.25,-82.38 1869.25,-76.38 1873.25,-70.38 1877.25,-76.38 1873.25,-82.38"/>
<polygon fill="#c62828" stroke="#c62828" stroke-width="2" points="2509.25,-82.38 2505.25,-76.38 2509.25,-70.38 2513.25,-76.38 2509.25,-82.38"/>
</g>
<!-- node_58 -->
<g id="node59" class="node">
<title>node_58</title>
<path fill="#4a90d9" stroke="#2e7d32" stroke-width="4" d="M2116.12,-70.25C2116.12,-70.25 2060.38,-70.25 2060.38,-70.25 2054.38,-70.25 2048.38,-64.25 2048.38,-58.25 2048.38,-58.25 2048.38,-39 2048.38,-39 2048.38,-33 2054.38,-27 2060.38,-27 2060.38,-27 2116.12,-27 2116.12,-27 2122.12,-27 2128.12,-33 2128.12,-39 2128.12,-39 2128.12,-58.25 2128.12,-58.25 2128.12,-64.25 2122.12,-70.25 2116.12,-70.25"/>
<text xml:space="preserve" text-anchor="middle" x="2088.25" y="-56.75" font-family="Helvetica,sans-Serif" font-size="10.00">layer3.1.conv2</text>
<text xml:space="preserve" text-anchor="middle" x="2088.25" y="-45.5" font-family="Helvetica,sans-Serif" font-size="10.00">Conv2d</text>
<text xml:space="preserve" text-anchor="middle" x="2088.25" y="-34.25" font-family="Helvetica,sans-Serif" font-size="10.00">256 → 256</text>
</g>
<!-- node_14&#45;&gt;node_58 -->
<g id="edge66" class="edge">
<title>node_14&#45;&gt;node_58</title>
<path fill="none" stroke="#2e7d32" stroke-width="1.5" stroke-dasharray="5,2" d="M2025.95,-49C2025.95,-49 2034.83,-49 2034.83,-49"/>
<polygon fill="#2e7d32" stroke="#2e7d32" stroke-width="1.5" points="2015.95,-49 2025.95,-44.5 2019.12,-48.75 2025.95,-48.75 2025.95,-49 2025.95,-49.25 2019.12,-49.25 2025.95,-53.5 2015.95,-49"/>
<polygon fill="#2e7d32" stroke="#2e7d32" stroke-width="1.5" points="2044.83,-49 2034.83,-53.5 2041.66,-49.25 2034.83,-49.25 2034.83,-49 2034.83,-48.75 2041.66,-48.75 2034.83,-44.5 2044.83,-49"/>
</g>
<!-- node_16 -->
<g id="node17" class="node">
<title>node_16</title>
<path fill="#ffd54f" stroke="#2e7d32" stroke-width="4" d="M2614.25,-66.62C2614.25,-66.62 2584.25,-66.62 2584.25,-66.62 2578.25,-66.62 2572.25,-60.62 2572.25,-54.62 2572.25,-54.62 2572.25,-42.62 2572.25,-42.62 2572.25,-36.62 2578.25,-30.62 2584.25,-30.62 2584.25,-30.62 2614.25,-30.62 2614.25,-30.62 2620.25,-30.62 2626.25,-36.62 2626.25,-42.62 2626.25,-42.62 2626.25,-54.62 2626.25,-54.62 2626.25,-60.62 2620.25,-66.62 2614.25,-66.62"/>
<text xml:space="preserve" text-anchor="middle" x="2599.25" y="-44.75" font-family="Helvetica,sans-Serif" font-size="10.00">Add</text>
</g>
<!-- node_15&#45;&gt;node_16 -->
<g id="edge19" class="edge">
<title>node_15&#45;&gt;node_16</title>
<path fill="none" stroke="#c62828" stroke-width="2" stroke-dasharray="1,5" d="M2552.33,-49C2552.33,-49 2556.23,-49 2556.23,-49"/>
<polygon fill="#c62828" stroke="#c62828" stroke-width="2" points="2552.02,-49 2546.02,-53 2540.02,-49 2546.02,-45 2552.02,-49"/>
<polygon fill="#c62828" stroke="#c62828" stroke-width="2" points="2556.53,-49 2562.53,-45 2568.53,-49 2562.53,-53 2556.53,-49"/>
</g>
<!-- node_61 -->
<g id="node62" class="node">
<title>node_61</title>
<path fill="#4a90d9" stroke="#2e7d32" stroke-width="4" d="M2434.12,-70.25C2434.12,-70.25 2378.38,-70.25 2378.38,-70.25 2372.38,-70.25 2366.38,-64.25 2366.38,-58.25 2366.38,-58.25 2366.38,-39 2366.38,-39 2366.38,-33 2372.38,-27 2378.38,-27 2378.38,-27 2434.12,-27 2434.12,-27 2440.12,-27 2446.12,-33 2446.12,-39 2446.12,-39 2446.12,-58.25 2446.12,-58.25 2446.12,-64.25 2440.12,-70.25 2434.12,-70.25"/>
<text xml:space="preserve" text-anchor="middle" x="2406.25" y="-56.75" font-family="Helvetica,sans-Serif" font-size="10.00">layer3.1.conv1</text>
<text xml:space="preserve" text-anchor="middle" x="2406.25" y="-45.5" font-family="Helvetica,sans-Serif" font-size="10.00">Conv2d</text>
<text xml:space="preserve" text-anchor="middle" x="2406.25" y="-34.25" font-family="Helvetica,sans-Serif" font-size="10.00">256 → 256</text>
</g>
<!-- node_15&#45;&gt;node_61 -->
<g id="edge18" class="edge">
<title>node_15&#45;&gt;node_61</title>
<path fill="none" stroke="#c62828" stroke-width="2" stroke-dasharray="1,5" d="M2466.18,-49C2466.18,-49 2462.17,-49 2462.17,-49"/>
<polygon fill="#c62828" stroke="#c62828" stroke-width="2" points="2466.48,-49 2472.48,-45 2478.48,-49 2472.48,-53 2466.48,-49"/>
<polygon fill="#c62828" stroke="#c62828" stroke-width="2" points="2461.87,-49 2455.87,-53 2449.87,-49 2455.87,-45 2461.87,-49"/>
</g>
<!-- node_17 -->
<g id="node18" class="node">
<title>node_17</title>
<path fill="#81c784" stroke="#2e7d32" stroke-width="4" d="M2726.25,-70.25C2726.25,-70.25 2674.25,-70.25 2674.25,-70.25 2668.25,-70.25 2662.25,-64.25 2662.25,-58.25 2662.25,-58.25 2662.25,-39 2662.25,-39 2662.25,-33 2668.25,-27 2674.25,-27 2674.25,-27 2726.25,-27 2726.25,-27 2732.25,-27 2738.25,-33 2738.25,-39 2738.25,-39 2738.25,-58.25 2738.25,-58.25 2738.25,-64.25 2732.25,-70.25 2726.25,-70.25"/>
<text xml:space="preserve" text-anchor="middle" x="2700.25" y="-56.75" font-family="Helvetica,sans-Serif" font-size="10.00">layer3.0.bn2</text>
<text xml:space="preserve" text-anchor="middle" x="2700.25" y="-45.5" font-family="Helvetica,sans-Serif" font-size="10.00">BatchNorm2d</text>
<text xml:space="preserve" text-anchor="middle" x="2700.25" y="-34.25" font-family="Helvetica,sans-Serif" font-size="10.00">256 → 256</text>
</g>
<!-- node_16&#45;&gt;node_17 -->
<g id="edge20" class="edge">
<title>node_16&#45;&gt;node_17</title>
<path fill="none" stroke="#c62828" stroke-width="2" stroke-dasharray="1,5" d="M2642.3,-49C2642.3,-49 2646.28,-49 2646.28,-49"/>
<polygon fill="#c62828" stroke="#c62828" stroke-width="2" points="2642,-49 2636,-53 2630,-49 2636,-45 2642,-49"/>
<polygon fill="#c62828" stroke="#c62828" stroke-width="2" points="2646.59,-49 2652.59,-45 2658.59,-49 2652.59,-53 2646.59,-49"/>
</g>
<!-- node_18 -->
<g id="node19" class="node">
<title>node_18</title>
<path fill="#81c784" stroke="#2e7d32" stroke-width="4" d="M7067.5,-70.25C7067.5,-70.25 6975,-70.25 6975,-70.25 6969,-70.25 6963,-64.25 6963,-58.25 6963,-58.25 6963,-39 6963,-39 6963,-33 6969,-27 6975,-27 6975,-27 7067.5,-27 7067.5,-27 7073.5,-27 7079.5,-33 7079.5,-39 7079.5,-39 7079.5,-58.25 7079.5,-58.25 7079.5,-64.25 7073.5,-70.25 7067.5,-70.25"/>
<text xml:space="preserve" text-anchor="middle" x="7021.25" y="-56.75" font-family="Helvetica,sans-Serif" font-size="10.00">layer3.0.downsample.1</text>
<text xml:space="preserve" text-anchor="middle" x="7021.25" y="-45.5" font-family="Helvetica,sans-Serif" font-size="10.00">BatchNorm2d</text>
<text xml:space="preserve" text-anchor="middle" x="7021.25" y="-34.25" font-family="Helvetica,sans-Serif" font-size="10.00">256 → 256</text>
</g>
<!-- node_16&#45;&gt;node_18 -->
<g id="edge21" class="edge">
<title>node_16&#45;&gt;node_18</title>
<path fill="none" stroke="#c62828" stroke-width="2" stroke-dasharray="1,5" d="M2599.25,-82.67C2599.25,-82.67 2599.25,-95 2599.25,-95 2599.25,-95 7021.25,-95 7021.25,-95 7021.25,-95 7021.25,-86.19 7021.25,-86.19"/>
<polygon fill="#c62828" stroke="#c62828" stroke-width="2" points="2599.25,-82.36 2595.25,-76.36 2599.25,-70.36 2603.25,-76.36 2599.25,-82.36"/>
<polygon fill="#c62828" stroke="#c62828" stroke-width="2" points="7021.25,-85.89 7017.25,-79.89 7021.25,-73.89 7025.25,-79.89 7021.25,-85.89"/>
</g>
<!-- node_54 -->
<g id="node55" class="node">
<title>node_54</title>
<path fill="#4a90d9" stroke="#e65100" stroke-width="4" d="M2842.12,-70.25C2842.12,-70.25 2786.38,-70.25 2786.38,-70.25 2780.38,-70.25 2774.38,-64.25 2774.38,-58.25 2774.38,-58.25 2774.38,-39 2774.38,-39 2774.38,-33 2780.38,-27 2786.38,-27 2786.38,-27 2842.12,-27 2842.12,-27 2848.12,-27 2854.12,-33 2854.12,-39 2854.12,-39 2854.12,-58.25 2854.12,-58.25 2854.12,-64.25 2848.12,-70.25 2842.12,-70.25"/>
<text xml:space="preserve" text-anchor="middle" x="2814.25" y="-56.75" font-family="Helvetica,sans-Serif" font-size="10.00">layer3.0.conv2</text>
<text xml:space="preserve" text-anchor="middle" x="2814.25" y="-45.5" font-family="Helvetica,sans-Serif" font-size="10.00">Conv2d</text>
<text xml:space="preserve" text-anchor="middle" x="2814.25" y="-34.25" font-family="Helvetica,sans-Serif" font-size="10.00">256 → 256</text>
</g>
<!-- node_17&#45;&gt;node_54 -->
<g id="edge62" class="edge">
<title>node_17&#45;&gt;node_54</title>
<path fill="none" stroke="#2e7d32" stroke-width="1.5" stroke-dasharray="5,2" d="M2751.95,-49C2751.95,-49 2760.83,-49 2760.83,-49"/>
<polygon fill="#2e7d32" stroke="#2e7d32" stroke-width="1.5" points="2741.95,-49 2751.95,-44.5 2745.12,-48.75 2751.95,-48.75 2751.95,-49 2751.95,-49.25 2745.12,-49.25 2751.95,-53.5 2741.95,-49"/>
<polygon fill="#2e7d32" stroke="#2e7d32" stroke-width="1.5" points="2770.83,-49 2760.83,-53.5 2767.66,-49.25 2760.83,-49.25 2760.83,-49 2760.83,-48.75 2767.66,-48.75 2760.83,-44.5 2770.83,-49"/>
</g>
<!-- node_19 -->
<g id="node20" class="node">
<title>node_19</title>
<path fill="#4a90d9" stroke="#c2185b" stroke-width="4" d="M6914.5,-70.25C6914.5,-70.25 6822,-70.25 6822,-70.25 6816,-70.25 6810,-64.25 6810,-58.25 6810,-58.25 6810,-39 6810,-39 6810,-33 6816,-27 6822,-27 6822,-27 6914.5,-27 6914.5,-27 6920.5,-27 6926.5,-33 6926.5,-39 6926.5,-39 6926.5,-58.25 6926.5,-58.25 6926.5,-64.25 6920.5,-70.25 6914.5,-70.25"/>
<text xml:space="preserve" text-anchor="middle" x="6868.25" y="-56.75" font-family="Helvetica,sans-Serif" font-size="10.00">layer3.0.downsample.0</text>
<text xml:space="preserve" text-anchor="middle" x="6868.25" y="-45.5" font-family="Helvetica,sans-Serif" font-size="10.00">Conv2d</text>
<text xml:space="preserve" text-anchor="middle" x="6868.25" y="-34.25" font-family="Helvetica,sans-Serif" font-size="10.00">128 → 256</text>
</g>
<!-- node_18&#45;&gt;node_19 -->
<g id="edge22" class="edge">
<title>node_18&#45;&gt;node_19</title>
<path fill="none" stroke="#2e7d32" stroke-width="1.5" stroke-dasharray="5,2" d="M6949.39,-49C6949.39,-49 6940.19,-49 6940.19,-49"/>
<polygon fill="#2e7d32" stroke="#2e7d32" stroke-width="1.5" points="6959.39,-49 6949.39,-53.5 6956.22,-49.25 6949.39,-49.25 6949.39,-49 6949.39,-48.75 6956.22,-48.75 6949.39,-44.5 6959.39,-49"/>
<polygon fill="#2e7d32" stroke="#2e7d32" stroke-width="1.5" points="6930.19,-49 6940.19,-44.5 6933.36,-48.75 6940.19,-48.75 6940.19,-49 6940.19,-49.25 6933.36,-49.25 6940.19,-53.5 6930.19,-49"/>
</g>
<!-- node_20 -->
<g id="node21" class="node">
<title>node_20</title>
<path fill="#ffd54f" stroke="#c2185b" stroke-width="4" d="M3250.25,-66.62C3250.25,-66.62 3220.25,-66.62 3220.25,-66.62 3214.25,-66.62 3208.25,-60.62 3208.25,-54.62 3208.25,-54.62 3208.25,-42.62 3208.25,-42.62 3208.25,-36.62 3214.25,-30.62 3220.25,-30.62 3220.25,-30.62 3250.25,-30.62 3250.25,-30.62 3256.25,-30.62 3262.25,-36.62 3262.25,-42.62 3262.25,-42.62 3262.25,-54.62 3262.25,-54.62 3262.25,-60.62 3256.25,-66.62 3250.25,-66.62"/>
<text xml:space="preserve" text-anchor="middle" x="3235.25" y="-44.75" font-family="Helvetica,sans-Serif" font-size="10.00">ReLU</text>
</g>
<!-- node_19&#45;&gt;node_20 -->
<g id="edge23" class="edge">
<title>node_19&#45;&gt;node_20</title>
<path fill="none" stroke="#c62828" stroke-width="2" stroke-dasharray="1,5" d="M6868.25,-86.2C6868.25,-86.2 6868.25,-92 6868.25,-92 6868.25,-92 3235.25,-92 3235.25,-92 3235.25,-92 3235.25,-82.64 3235.25,-82.64"/>
<polygon fill="#c62828" stroke="#c62828" stroke-width="2" points="6868.25,-85.89 6864.25,-79.89 6868.25,-73.89 6872.25,-79.89 6868.25,-85.89"/>
<polygon fill="#c62828" stroke="#c62828" stroke-width="2" points="3235.25,-82.34 3231.25,-76.34 3235.25,-70.34 3239.25,-76.34 3235.25,-82.34"/>
</g>
<!-- node_21 -->
<g id="node22" class="node">
<title>node_21</title>
<path fill="#ffd54f" stroke="#c2185b" stroke-width="4" d="M3340.25,-66.62C3340.25,-66.62 3310.25,-66.62 3310.25,-66.62 3304.25,-66.62 3298.25,-60.62 3298.25,-54.62 3298.25,-54.62 3298.25,-42.62 3298.25,-42.62 3298.25,-36.62 3304.25,-30.62 3310.25,-30.62 3310.25,-30.62 3340.25,-30.62 3340.25,-30.62 3346.25,-30.62 3352.25,-36.62 3352.25,-42.62 3352.25,-42.62 3352.25,-54.62 3352.25,-54.62 3352.25,-60.62 3346.25,-66.62 3340.25,-66.62"/>
<text xml:space="preserve" text-anchor="middle" x="3325.25" y="-44.75" font-family="Helvetica,sans-Serif" font-size="10.00">Add</text>
</g>
<!-- node_20&#45;&gt;node_21 -->
<g id="edge25" class="edge">
<title>node_20&#45;&gt;node_21</title>
<path fill="none" stroke="#c62828" stroke-width="2" stroke-dasharray="1,5" d="M3278.33,-49C3278.33,-49 3282.23,-49 3282.23,-49"/>
<polygon fill="#c62828" stroke="#c62828" stroke-width="2" points="3278.02,-49 3272.02,-53 3266.02,-49 3272.02,-45 3278.02,-49"/>
<polygon fill="#c62828" stroke="#c62828" stroke-width="2" points="3282.53,-49 3288.53,-45 3294.53,-49 3288.53,-53 3282.53,-49"/>
</g>
<!-- node_57 -->
<g id="node58" class="node">
<title>node_57</title>
<path fill="#4a90d9" stroke="#e65100" stroke-width="4" d="M3160.12,-70.25C3160.12,-70.25 3104.38,-70.25 3104.38,-70.25 3098.38,-70.25 3092.38,-64.25 3092.38,-58.25 3092.38,-58.25 3092.38,-39 3092.38,-39 3092.38,-33 3098.38,-27 3104.38,-27 3104.38,-27 3160.12,-27 3160.12,-27 3166.12,-27 3172.12,-33 3172.12,-39 3172.12,-39 3172.12,-58.25 3172.12,-58.25 3172.12,-64.25 3166.12,-70.25 3160.12,-70.25"/>
<text xml:space="preserve" text-anchor="middle" x="3132.25" y="-56.75" font-family="Helvetica,sans-Serif" font-size="10.00">layer3.0.conv1</text>
<text xml:space="preserve" text-anchor="middle" x="3132.25" y="-45.5" font-family="Helvetica,sans-Serif" font-size="10.00">Conv2d</text>
<text xml:space="preserve" text-anchor="middle" x="3132.25" y="-34.25" font-family="Helvetica,sans-Serif" font-size="10.00">128 → 256</text>
</g>
<!-- node_20&#45;&gt;node_57 -->
<g id="edge24" class="edge">
<title>node_20&#45;&gt;node_57</title>
<path fill="none" stroke="#c62828" stroke-width="2" stroke-dasharray="1,5" d="M3192.18,-49C3192.18,-49 3188.17,-49 3188.17,-49"/>
<polygon fill="#c62828" stroke="#c62828" stroke-width="2" points="3192.48,-49 3198.48,-45 3204.48,-49 3198.48,-53 3192.48,-49"/>
<polygon fill="#c62828" stroke="#c62828" stroke-width="2" points="3187.87,-49 3181.87,-53 3175.87,-49 3181.87,-45 3187.87,-49"/>
</g>
<!-- node_22 -->
<g id="node23" class="node">
<title>node_22</title>
<path fill="#81c784" stroke="#c2185b" stroke-width="4" d="M3452.25,-70.25C3452.25,-70.25 3400.25,-70.25 3400.25,-70.25 3394.25,-70.25 3388.25,-64.25 3388.25,-58.25 3388.25,-58.25 3388.25,-39 3388.25,-39 3388.25,-33 3394.25,-27 3400.25,-27 3400.25,-27 3452.25,-27 3452.25,-27 3458.25,-27 3464.25,-33 3464.25,-39 3464.25,-39 3464.25,-58.25 3464.25,-58.25 3464.25,-64.25 3458.25,-70.25 3452.25,-70.25"/>
<text xml:space="preserve" text-anchor="middle" x="3426.25" y="-56.75" font-family="Helvetica,sans-Serif" font-size="10.00">layer2.1.bn2</text>
<text xml:space="preserve" text-anchor="middle" x="3426.25" y="-45.5" font-family="Helvetica,sans-Serif" font-size="10.00">BatchNorm2d</text>
<text xml:space="preserve" text-anchor="middle" x="3426.25" y="-34.25" font-family="Helvetica,sans-Serif" font-size="10.00">128 → 128</text>
</g>
<!-- node_21&#45;&gt;node_22 -->
<g id="edge26" class="edge">
<title>node_21&#45;&gt;node_22</title>
<path fill="none" stroke="#c62828" stroke-width="2" stroke-dasharray="1,5" d="M3368.3,-49C3368.3,-49 3372.28,-49 3372.28,-49"/>
<polygon fill="#c62828" stroke="#c62828" stroke-width="2" points="3368,-49 3362,-53 3356,-49 3362,-45 3368,-49"/>
<polygon fill="#c62828" stroke="#c62828" stroke-width="2" points="3372.59,-49 3378.59,-45 3384.59,-49 3378.59,-53 3372.59,-49"/>
</g>
<!-- node_23 -->
<g id="node24" class="node">
<title>node_23</title>
<path fill="#ffd54f" stroke="#c2185b" stroke-width="4" d="M3976.25,-66.62C3976.25,-66.62 3946.25,-66.62 3946.25,-66.62 3940.25,-66.62 3934.25,-60.62 3934.25,-54.62 3934.25,-54.62 3934.25,-42.62 3934.25,-42.62 3934.25,-36.62 3940.25,-30.62 3946.25,-30.62 3946.25,-30.62 3976.25,-30.62 3976.25,-30.62 3982.25,-30.62 3988.25,-36.62 3988.25,-42.62 3988.25,-42.62 3988.25,-54.62 3988.25,-54.62 3988.25,-60.62 3982.25,-66.62 3976.25,-66.62"/>
<text xml:space="preserve" text-anchor="middle" x="3961.25" y="-44.75" font-family="Helvetica,sans-Serif" font-size="10.00">ReLU</text>
</g>
<!-- node_21&#45;&gt;node_23 -->
<g id="edge27" class="edge">
<title>node_21&#45;&gt;node_23</title>
<path fill="none" stroke="#c62828" stroke-width="2" stroke-dasharray="1,5" d="M3325.25,-82.62C3325.25,-82.62 3325.25,-85 3325.25,-85 3325.25,-85 3961.25,-85 3961.25,-85 3961.25,-85 3961.25,-82.62 3961.25,-82.62"/>
<polygon fill="#c62828" stroke="#c62828" stroke-width="2" points="3325.25,-82.32 3321.25,-76.32 3325.25,-70.32 3329.25,-76.32 3325.25,-82.32"/>
<polygon fill="#c62828" stroke="#c62828" stroke-width="2" points="3961.25,-82.32 3957.25,-76.32 3961.25,-70.32 3965.25,-76.32 3961.25,-82.32"/>
</g>
<!-- node_50 -->
<g id="node51" class="node">
<title>node_50</title>
<path fill="#4a90d9" stroke="#1565c0" stroke-width="4" d="M3568.12,-70.25C3568.12,-70.25 3512.38,-70.25 3512.38,-70.25 3506.38,-70.25 3500.38,-64.25 3500.38,-58.25 3500.38,-58.25 3500.38,-39 3500.38,-39 3500.38,-33 3506.38,-27 3512.38,-27 3512.38,-27 3568.12,-27 3568.12,-27 3574.12,-27 3580.12,-33 3580.12,-39 3580.12,-39 3580.12,-58.25 3580.12,-58.25 3580.12,-64.25 3574.12,-70.25 3568.12,-70.25"/>
<text xml:space="preserve" text-anchor="middle" x="3540.25" y="-56.75" font-family="Helvetica,sans-Serif" font-size="10.00">layer2.1.conv2</text>
<text xml:space="preserve" text-anchor="middle" x="3540.25" y="-45.5" font-family="Helvetica,sans-Serif" font-size="10.00">Conv2d</text>
<text xml:space="preserve" text-anchor="middle" x="3540.25" y="-34.25" font-family="Helvetica,sans-Serif" font-size="10.00">128 → 128</text>
</g>
<!-- node_22&#45;&gt;node_50 -->
<g id="edge58" class="edge">
<title>node_22&#45;&gt;node_50</title>
<path fill="none" stroke="#2e7d32" stroke-width="1.5" stroke-dasharray="5,2" d="M3477.95,-49C3477.95,-49 3486.83,-49 3486.83,-49"/>
<polygon fill="#2e7d32" stroke="#2e7d32" stroke-width="1.5" points="3467.95,-49 3477.95,-44.5 3471.12,-48.75 3477.95,-48.75 3477.95,-49 3477.95,-49.25 3471.12,-49.25 3477.95,-53.5 3467.95,-49"/>
<polygon fill="#2e7d32" stroke="#2e7d32" stroke-width="1.5" points="3496.83,-49 3486.83,-53.5 3493.66,-49.25 3486.83,-49.25 3486.83,-49 3486.83,-48.75 3493.66,-48.75 3486.83,-44.5 3496.83,-49"/>
</g>
<!-- node_24 -->
<g id="node25" class="node">
<title>node_24</title>
<path fill="#ffd54f" stroke="#c2185b" stroke-width="4" d="M4066.25,-66.62C4066.25,-66.62 4036.25,-66.62 4036.25,-66.62 4030.25,-66.62 4024.25,-60.62 4024.25,-54.62 4024.25,-54.62 4024.25,-42.62 4024.25,-42.62 4024.25,-36.62 4030.25,-30.62 4036.25,-30.62 4036.25,-30.62 4066.25,-30.62 4066.25,-30.62 4072.25,-30.62 4078.25,-36.62 4078.25,-42.62 4078.25,-42.62 4078.25,-54.62 4078.25,-54.62 4078.25,-60.62 4072.25,-66.62 4066.25,-66.62"/>
<text xml:space="preserve" text-anchor="middle" x="4051.25" y="-44.75" font-family="Helvetica,sans-Serif" font-size="10.00">Add</text>
</g>
<!-- node_23&#45;&gt;node_24 -->
<g id="edge29" class="edge">
<title>node_23&#45;&gt;node_24</title>
<path fill="none" stroke="#c62828" stroke-width="2" stroke-dasharray="1,5" d="M4004.33,-49C4004.33,-49 4008.23,-49 4008.23,-49"/>
<polygon fill="#c62828" stroke="#c62828" stroke-width="2" points="4004.02,-49 3998.02,-53 3992.02,-49 3998.02,-45 4004.02,-49"/>
<polygon fill="#c62828" stroke="#c62828" stroke-width="2" points="4008.53,-49 4014.53,-45 4020.53,-49 4014.53,-53 4008.53,-49"/>
</g>
<!-- node_53 -->
<g id="node54" class="node">
<title>node_53</title>
<path fill="#4a90d9" stroke="#1565c0" stroke-width="4" d="M3886.12,-70.25C3886.12,-70.25 3830.38,-70.25 3830.38,-70.25 3824.38,-70.25 3818.38,-64.25 3818.38,-58.25 3818.38,-58.25 3818.38,-39 3818.38,-39 3818.38,-33 3824.38,-27 3830.38,-27 3830.38,-27 3886.12,-27 3886.12,-27 3892.12,-27 3898.12,-33 3898.12,-39 3898.12,-39 3898.12,-58.25 3898.12,-58.25 3898.12,-64.25 3892.12,-70.25 3886.12,-70.25"/>
<text xml:space="preserve" text-anchor="middle" x="3858.25" y="-56.75" font-family="Helvetica,sans-Serif" font-size="10.00">layer2.1.conv1</text>
<text xml:space="preserve" text-anchor="middle" x="3858.25" y="-45.5" font-family="Helvetica,sans-Serif" font-size="10.00">Conv2d</text>
<text xml:space="preserve" text-anchor="middle" x="3858.25" y="-34.25" font-family="Helvetica,sans-Serif" font-size="10.00">128 → 128</text>
</g>
<!-- node_23&#45;&gt;node_53 -->
<g id="edge28" class="edge">
<title>node_23&#45;&gt;node_53</title>
<path fill="none" stroke="#c62828" stroke-width="2" stroke-dasharray="1,5" d="M3918.18,-49C3918.18,-49 3914.17,-49 3914.17,-49"/>
<polygon fill="#c62828" stroke="#c62828" stroke-width="2" points="3918.48,-49 3924.48,-45 3930.48,-49 3924.48,-53 3918.48,-49"/>
<polygon fill="#c62828" stroke="#c62828" stroke-width="2" points="3913.87,-49 3907.87,-53 3901.87,-49 3907.87,-45 3913.87,-49"/>
</g>
<!-- node_25 -->
<g id="node26" class="node">
<title>node_25</title>
<path fill="#81c784" stroke="#c2185b" stroke-width="4" d="M4178.25,-70.25C4178.25,-70.25 4126.25,-70.25 4126.25,-70.25 4120.25,-70.25 4114.25,-64.25 4114.25,-58.25 4114.25,-58.25 4114.25,-39 4114.25,-39 4114.25,-33 4120.25,-27 4126.25,-27 4126.25,-27 4178.25,-27 4178.25,-27 4184.25,-27 4190.25,-33 4190.25,-39 4190.25,-39 4190.25,-58.25 4190.25,-58.25 4190.25,-64.25 4184.25,-70.25 4178.25,-70.25"/>
<text xml:space="preserve" text-anchor="middle" x="4152.25" y="-56.75" font-family="Helvetica,sans-Serif" font-size="10.00">layer2.0.bn2</text>
<text xml:space="preserve" text-anchor="middle" x="4152.25" y="-45.5" font-family="Helvetica,sans-Serif" font-size="10.00">BatchNorm2d</text>
<text xml:space="preserve" text-anchor="middle" x="4152.25" y="-34.25" font-family="Helvetica,sans-Serif" font-size="10.00">128 → 128</text>
</g>
<!-- node_24&#45;&gt;node_25 -->
<g id="edge30" class="edge">
<title>node_24&#45;&gt;node_25</title>
<path fill="none" stroke="#c62828" stroke-width="2" stroke-dasharray="1,5" d="M4094.3,-49C4094.3,-49 4098.28,-49 4098.28,-49"/>
<polygon fill="#c62828" stroke="#c62828" stroke-width="2" points="4094,-49 4088,-53 4082,-49 4088,-45 4094,-49"/>
<polygon fill="#c62828" stroke="#c62828" stroke-width="2" points="4098.59,-49 4104.59,-45 4110.59,-49 4104.59,-53 4098.59,-49"/>
</g>
<!-- node_26 -->
<g id="node27" class="node">
<title>node_26</title>
<path fill="#81c784" stroke="#c2185b" stroke-width="4" d="M6761.5,-70.25C6761.5,-70.25 6669,-70.25 6669,-70.25 6663,-70.25 6657,-64.25 6657,-58.25 6657,-58.25 6657,-39 6657,-39 6657,-33 6663,-27 6669,-27 6669,-27 6761.5,-27 6761.5,-27 6767.5,-27 6773.5,-33 6773.5,-39 6773.5,-39 6773.5,-58.25 6773.5,-58.25 6773.5,-64.25 6767.5,-70.25 6761.5,-70.25"/>
<text xml:space="preserve" text-anchor="middle" x="6715.25" y="-56.75" font-family="Helvetica,sans-Serif" font-size="10.00">layer2.0.downsample.1</text>
<text xml:space="preserve" text-anchor="middle" x="6715.25" y="-45.5" font-family="Helvetica,sans-Serif" font-size="10.00">BatchNorm2d</text>
<text xml:space="preserve" text-anchor="middle" x="6715.25" y="-34.25" font-family="Helvetica,sans-Serif" font-size="10.00">128 → 128</text>
</g>
<!-- node_24&#45;&gt;node_26 -->
<g id="edge31" class="edge">
<title>node_24&#45;&gt;node_26</title>
<path fill="none" stroke="#c62828" stroke-width="2" stroke-dasharray="1,5" d="M4051.25,-82.42C4051.25,-82.42 4051.25,-88 4051.25,-88 4051.25,-88 6715.25,-88 6715.25,-88 6715.25,-88 6715.25,-86.09 6715.25,-86.09"/>
<polygon fill="#c62828" stroke="#c62828" stroke-width="2" points="4051.25,-82.12 4047.25,-76.12 4051.25,-70.12 4055.25,-76.12 4051.25,-82.12"/>
<polygon fill="#c62828" stroke="#c62828" stroke-width="2" points="6715.25,-85.79 6711.25,-79.79 6715.25,-73.79 6719.25,-79.79 6715.25,-85.79"/>
</g>
<!-- node_46 -->
<g id="node47" class="node">
<title>node_46</title>
<path fill="#4a90d9" stroke="#5d4037" stroke-width="4" d="M4294.12,-70.25C4294.12,-70.25 4238.38,-70.25 4238.38,-70.25 4232.38,-70.25 4226.38,-64.25 4226.38,-58.25 4226.38,-58.25 4226.38,-39 4226.38,-39 4226.38,-33 4232.38,-27 4238.38,-27 4238.38,-27 4294.12,-27 4294.12,-27 4300.12,-27 4306.12,-33 4306.12,-39 4306.12,-39 4306.12,-58.25 4306.12,-58.25 4306.12,-64.25 4300.12,-70.25 4294.12,-70.25"/>
<text xml:space="preserve" text-anchor="middle" x="4266.25" y="-56.75" font-family="Helvetica,sans-Serif" font-size="10.00">layer2.0.conv2</text>
<text xml:space="preserve" text-anchor="middle" x="4266.25" y="-45.5" font-family="Helvetica,sans-Serif" font-size="10.00">Conv2d</text>
<text xml:space="preserve" text-anchor="middle" x="4266.25" y="-34.25" font-family="Helvetica,sans-Serif" font-size="10.00">128 → 128</text>
</g>
<!-- node_25&#45;&gt;node_46 -->
<g id="edge54" class="edge">
<title>node_25&#45;&gt;node_46</title>
<path fill="none" stroke="#2e7d32" stroke-width="1.5" stroke-dasharray="5,2" d="M4203.95,-49C4203.95,-49 4212.83,-49 4212.83,-49"/>
<polygon fill="#2e7d32" stroke="#2e7d32" stroke-width="1.5" points="4193.95,-49 4203.95,-44.5 4197.12,-48.75 4203.95,-48.75 4203.95,-49 4203.95,-49.25 4197.12,-49.25 4203.95,-53.5 4193.95,-49"/>
<polygon fill="#2e7d32" stroke="#2e7d32" stroke-width="1.5" points="4222.83,-49 4212.83,-53.5 4219.66,-49.25 4212.83,-49.25 4212.83,-49 4212.83,-48.75 4219.66,-48.75 4212.83,-44.5 4222.83,-49"/>
</g>
<!-- node_27 -->
<g id="node28" class="node">
<title>node_27</title>
<path fill="#4a90d9" stroke="#7b1fa2" stroke-width="4" d="M6608.5,-70.25C6608.5,-70.25 6516,-70.25 6516,-70.25 6510,-70.25 6504,-64.25 6504,-58.25 6504,-58.25 6504,-39 6504,-39 6504,-33 6510,-27 6516,-27 6516,-27 6608.5,-27 6608.5,-27 6614.5,-27 6620.5,-33 6620.5,-39 6620.5,-39 6620.5,-58.25 6620.5,-58.25 6620.5,-64.25 6614.5,-70.25 6608.5,-70.25"/>
<text xml:space="preserve" text-anchor="middle" x="6562.25" y="-56.75" font-family="Helvetica,sans-Serif" font-size="10.00">layer2.0.downsample.0</text>
<text xml:space="preserve" text-anchor="middle" x="6562.25" y="-45.5" font-family="Helvetica,sans-Serif" font-size="10.00">Conv2d</text>
<text xml:space="preserve" text-anchor="middle" x="6562.25" y="-34.25" font-family="Helvetica,sans-Serif" font-size="10.00">64 → 128</text>
</g>
<!-- node_26&#45;&gt;node_27 -->
<g id="edge32" class="edge">
<title>node_26&#45;&gt;node_27</title>
<path fill="none" stroke="#2e7d32" stroke-width="1.5" stroke-dasharray="5,2" d="M6643.39,-49C6643.39,-49 6634.19,-49 6634.19,-49"/>
<polygon fill="#2e7d32" stroke="#2e7d32" stroke-width="1.5" points="6653.39,-49 6643.39,-53.5 6650.22,-49.25 6643.39,-49.25 6643.39,-49 6643.39,-48.75 6650.22,-48.75 6643.39,-44.5 6653.39,-49"/>
<polygon fill="#2e7d32" stroke="#2e7d32" stroke-width="1.5" points="6624.19,-49 6634.19,-44.5 6627.36,-48.75 6634.19,-48.75 6634.19,-49 6634.19,-49.25 6627.36,-49.25 6634.19,-53.5 6624.19,-49"/>
</g>
<!-- node_28 -->
<g id="node29" class="node">
<title>node_28</title>
<path fill="#ffd54f" stroke="#7b1fa2" stroke-width="4" d="M4702.25,-66.62C4702.25,-66.62 4672.25,-66.62 4672.25,-66.62 4666.25,-66.62 4660.25,-60.62 4660.25,-54.62 4660.25,-54.62 4660.25,-42.62 4660.25,-42.62 4660.25,-36.62 4666.25,-30.62 4672.25,-30.62 4672.25,-30.62 4702.25,-30.62 4702.25,-30.62 4708.25,-30.62 4714.25,-36.62 4714.25,-42.62 4714.25,-42.62 4714.25,-54.62 4714.25,-54.62 4714.25,-60.62 4708.25,-66.62 4702.25,-66.62"/>
<text xml:space="preserve" text-anchor="middle" x="4687.25" y="-44.75" font-family="Helvetica,sans-Serif" font-size="10.00">ReLU</text>
</g>
<!-- node_27&#45;&gt;node_28 -->
<g id="edge33" class="edge">
<title>node_27&#45;&gt;node_28</title>
<path fill="none" stroke="#c62828" stroke-width="2" stroke-dasharray="1,5" d="M6562.25,-11.01C6562.25,-11.01 6562.25,-9 6562.25,-9 6562.25,-9 4687.25,-9 4687.25,-9 4687.25,-9 4687.25,-14.71 4687.25,-14.71"/>
<polygon fill="#c62828" stroke="#c62828" stroke-width="2" points="6562.25,-11.31 6566.25,-17.31 6562.25,-23.31 6558.25,-17.31 6562.25,-11.31"/>
<polygon fill="#c62828" stroke="#c62828" stroke-width="2" points="4687.25,-15.01 4691.25,-21.01 4687.25,-27.01 4683.25,-21.01 4687.25,-15.01"/>
</g>
<!-- node_29 -->
<g id="node30" class="node">
<title>node_29</title>
<path fill="#ffd54f" stroke="#7b1fa2" stroke-width="4" d="M4792.25,-66.62C4792.25,-66.62 4762.25,-66.62 4762.25,-66.62 4756.25,-66.62 4750.25,-60.62 4750.25,-54.62 4750.25,-54.62 4750.25,-42.62 4750.25,-42.62 4750.25,-36.62 4756.25,-30.62 4762.25,-30.62 4762.25,-30.62 4792.25,-30.62 4792.25,-30.62 4798.25,-30.62 4804.25,-36.62 4804.25,-42.62 4804.25,-42.62 4804.25,-54.62 4804.25,-54.62 4804.25,-60.62 4798.25,-66.62 4792.25,-66.62"/>
<text xml:space="preserve" text-anchor="middle" x="4777.25" y="-44.75" font-family="Helvetica,sans-Serif" font-size="10.00">Add</text>
</g>
<!-- node_28&#45;&gt;node_29 -->
<g id="edge35" class="edge">
<title>node_28&#45;&gt;node_29</title>
<path fill="none" stroke="#c62828" stroke-width="2" stroke-dasharray="1,5" d="M4730.33,-49C4730.33,-49 4734.23,-49 4734.23,-49"/>
<polygon fill="#c62828" stroke="#c62828" stroke-width="2" points="4730.02,-49 4724.02,-53 4718.02,-49 4724.02,-45 4730.02,-49"/>
<polygon fill="#c62828" stroke="#c62828" stroke-width="2" points="4734.53,-49 4740.53,-45 4746.53,-49 4740.53,-53 4734.53,-49"/>
</g>
<!-- node_49 -->
<g id="node50" class="node">
<title>node_49</title>
<path fill="#4a90d9" stroke="#5d4037" stroke-width="4" d="M4612.12,-70.25C4612.12,-70.25 4556.38,-70.25 4556.38,-70.25 4550.38,-70.25 4544.38,-64.25 4544.38,-58.25 4544.38,-58.25 4544.38,-39 4544.38,-39 4544.38,-33 4550.38,-27 4556.38,-27 4556.38,-27 4612.12,-27 4612.12,-27 4618.12,-27 4624.12,-33 4624.12,-39 4624.12,-39 4624.12,-58.25 4624.12,-58.25 4624.12,-64.25 4618.12,-70.25 4612.12,-70.25"/>
<text xml:space="preserve" text-anchor="middle" x="4584.25" y="-56.75" font-family="Helvetica,sans-Serif" font-size="10.00">layer2.0.conv1</text>
<text xml:space="preserve" text-anchor="middle" x="4584.25" y="-45.5" font-family="Helvetica,sans-Serif" font-size="10.00">Conv2d</text>
<text xml:space="preserve" text-anchor="middle" x="4584.25" y="-34.25" font-family="Helvetica,sans-Serif" font-size="10.00">64 → 128</text>
</g>
<!-- node_28&#45;&gt;node_49 -->
<g id="edge34" class="edge">
<title>node_28&#45;&gt;node_49</title>
<path fill="none" stroke="#c62828" stroke-width="2" stroke-dasharray="1,5" d="M4644.18,-49C4644.18,-49 4640.17,-49 4640.17,-49"/>
<polygon fill="#c62828" stroke="#c62828" stroke-width="2" points="4644.48,-49 4650.48,-45 4656.48,-49 4650.48,-53 4644.48,-49"/>
<polygon fill="#c62828" stroke="#c62828" stroke-width="2" points="4639.87,-49 4633.87,-53 4627.87,-49 4633.87,-45 4639.87,-49"/>
</g>
<!-- node_30 -->
<g id="node31" class="node">
<title>node_30</title>
<path fill="#81c784" stroke="#7b1fa2" stroke-width="4" d="M4904.25,-70.25C4904.25,-70.25 4852.25,-70.25 4852.25,-70.25 4846.25,-70.25 4840.25,-64.25 4840.25,-58.25 4840.25,-58.25 4840.25,-39 4840.25,-39 4840.25,-33 4846.25,-27 4852.25,-27 4852.25,-27 4904.25,-27 4904.25,-27 4910.25,-27 4916.25,-33 4916.25,-39 4916.25,-39 4916.25,-58.25 4916.25,-58.25 4916.25,-64.25 4910.25,-70.25 4904.25,-70.25"/>
<text xml:space="preserve" text-anchor="middle" x="4878.25" y="-56.75" font-family="Helvetica,sans-Serif" font-size="10.00">layer1.1.bn2</text>
<text xml:space="preserve" text-anchor="middle" x="4878.25" y="-45.5" font-family="Helvetica,sans-Serif" font-size="10.00">BatchNorm2d</text>
<text xml:space="preserve" text-anchor="middle" x="4878.25" y="-34.25" font-family="Helvetica,sans-Serif" font-size="10.00">64 → 64</text>
</g>
<!-- node_29&#45;&gt;node_30 -->
<g id="edge36" class="edge">
<title>node_29&#45;&gt;node_30</title>
<path fill="none" stroke="#c62828" stroke-width="2" stroke-dasharray="1,5" d="M4820.3,-49C4820.3,-49 4824.28,-49 4824.28,-49"/>
<polygon fill="#c62828" stroke="#c62828" stroke-width="2" points="4820,-49 4814,-53 4808,-49 4814,-45 4820,-49"/>
<polygon fill="#c62828" stroke="#c62828" stroke-width="2" points="4824.59,-49 4830.59,-45 4836.59,-49 4830.59,-53 4824.59,-49"/>
</g>
<!-- node_31 -->
<g id="node32" class="node">
<title>node_31</title>
<path fill="#ffd54f" stroke="#7b1fa2" stroke-width="4" d="M5428.25,-66.62C5428.25,-66.62 5398.25,-66.62 5398.25,-66.62 5392.25,-66.62 5386.25,-60.62 5386.25,-54.62 5386.25,-54.62 5386.25,-42.62 5386.25,-42.62 5386.25,-36.62 5392.25,-30.62 5398.25,-30.62 5398.25,-30.62 5428.25,-30.62 5428.25,-30.62 5434.25,-30.62 5440.25,-36.62 5440.25,-42.62 5440.25,-42.62 5440.25,-54.62 5440.25,-54.62 5440.25,-60.62 5434.25,-66.62 5428.25,-66.62"/>
<text xml:space="preserve" text-anchor="middle" x="5413.25" y="-44.75" font-family="Helvetica,sans-Serif" font-size="10.00">ReLU</text>
</g>
<!-- node_29&#45;&gt;node_31 -->
<g id="edge37" class="edge">
<title>node_29&#45;&gt;node_31</title>
<path fill="none" stroke="#c62828" stroke-width="2" stroke-dasharray="1,5" d="M4777.25,-73.46C4777.25,-73.46 4777.25,-74 4777.25,-74 4777.25,-74 5413.25,-74 5413.25,-74 5413.25,-74 5413.25,-73.46 5413.25,-73.46"/>
<polygon fill="#c62828" stroke="#c62828" stroke-width="2" points="4777.25,-82.42 4773.25,-76.42 4777.25,-70.42 4781.25,-76.42 4777.25,-82.42"/>
<polygon fill="#c62828" stroke="#c62828" stroke-width="2" points="5413.25,-82.42 5409.25,-76.42 5413.25,-70.42 5417.25,-76.42 5413.25,-82.42"/>
</g>
<!-- node_42 -->
<g id="node43" class="node">
<title>node_42</title>
<path fill="#4a90d9" stroke="#f9a825" stroke-width="4" d="M5020.12,-70.25C5020.12,-70.25 4964.38,-70.25 4964.38,-70.25 4958.38,-70.25 4952.38,-64.25 4952.38,-58.25 4952.38,-58.25 4952.38,-39 4952.38,-39 4952.38,-33 4958.38,-27 4964.38,-27 4964.38,-27 5020.12,-27 5020.12,-27 5026.12,-27 5032.12,-33 5032.12,-39 5032.12,-39 5032.12,-58.25 5032.12,-58.25 5032.12,-64.25 5026.12,-70.25 5020.12,-70.25"/>
<text xml:space="preserve" text-anchor="middle" x="4992.25" y="-56.75" font-family="Helvetica,sans-Serif" font-size="10.00">layer1.1.conv2</text>
<text xml:space="preserve" text-anchor="middle" x="4992.25" y="-45.5" font-family="Helvetica,sans-Serif" font-size="10.00">Conv2d</text>
<text xml:space="preserve" text-anchor="middle" x="4992.25" y="-34.25" font-family="Helvetica,sans-Serif" font-size="10.00">64 → 64</text>
</g>
<!-- node_30&#45;&gt;node_42 -->
<g id="edge50" class="edge">
<title>node_30&#45;&gt;node_42</title>
<path fill="none" stroke="#2e7d32" stroke-width="1.5" stroke-dasharray="5,2" d="M4929.95,-49C4929.95,-49 4938.83,-49 4938.83,-49"/>
<polygon fill="#2e7d32" stroke="#2e7d32" stroke-width="1.5" points="4919.95,-49 4929.95,-44.5 4923.12,-48.75 4929.95,-48.75 4929.95,-49 4929.95,-49.25 4923.12,-49.25 4929.95,-53.5 4919.95,-49"/>
<polygon fill="#2e7d32" stroke="#2e7d32" stroke-width="1.5" points="4948.83,-49 4938.83,-53.5 4945.66,-49.25 4938.83,-49.25 4938.83,-49 4938.83,-48.75 4945.66,-48.75 4938.83,-44.5 4948.83,-49"/>
</g>
<!-- node_32 -->
<g id="node33" class="node">
<title>node_32</title>
<path fill="#ffd54f" stroke="#7b1fa2" stroke-width="4" d="M5518.25,-66.62C5518.25,-66.62 5488.25,-66.62 5488.25,-66.62 5482.25,-66.62 5476.25,-60.62 5476.25,-54.62 5476.25,-54.62 5476.25,-42.62 5476.25,-42.62 5476.25,-36.62 5482.25,-30.62 5488.25,-30.62 5488.25,-30.62 5518.25,-30.62 5518.25,-30.62 5524.25,-30.62 5530.25,-36.62 5530.25,-42.62 5530.25,-42.62 5530.25,-54.62 5530.25,-54.62 5530.25,-60.62 5524.25,-66.62 5518.25,-66.62"/>
<text xml:space="preserve" text-anchor="middle" x="5503.25" y="-44.75" font-family="Helvetica,sans-Serif" font-size="10.00">Add</text>
</g>
<!-- node_31&#45;&gt;node_32 -->
<g id="edge39" class="edge">
<title>node_31&#45;&gt;node_32</title>
<path fill="none" stroke="#c62828" stroke-width="2" stroke-dasharray="1,5" d="M5456.33,-49C5456.33,-49 5460.23,-49 5460.23,-49"/>
<polygon fill="#c62828" stroke="#c62828" stroke-width="2" points="5456.02,-49 5450.02,-53 5444.02,-49 5450.02,-45 5456.02,-49"/>
<polygon fill="#c62828" stroke="#c62828" stroke-width="2" points="5460.53,-49 5466.53,-45 5472.53,-49 5466.53,-53 5460.53,-49"/>
</g>
<!-- node_45 -->
<g id="node46" class="node">
<title>node_45</title>
<path fill="#4a90d9" stroke="#f9a825" stroke-width="4" d="M5338.12,-70.25C5338.12,-70.25 5282.38,-70.25 5282.38,-70.25 5276.38,-70.25 5270.38,-64.25 5270.38,-58.25 5270.38,-58.25 5270.38,-39 5270.38,-39 5270.38,-33 5276.38,-27 5282.38,-27 5282.38,-27 5338.12,-27 5338.12,-27 5344.12,-27 5350.12,-33 5350.12,-39 5350.12,-39 5350.12,-58.25 5350.12,-58.25 5350.12,-64.25 5344.12,-70.25 5338.12,-70.25"/>
<text xml:space="preserve" text-anchor="middle" x="5310.25" y="-56.75" font-family="Helvetica,sans-Serif" font-size="10.00">layer1.1.conv1</text>
<text xml:space="preserve" text-anchor="middle" x="5310.25" y="-45.5" font-family="Helvetica,sans-Serif" font-size="10.00">Conv2d</text>
<text xml:space="preserve" text-anchor="middle" x="5310.25" y="-34.25" font-family="Helvetica,sans-Serif" font-size="10.00">64 → 64</text>
</g>
<!-- node_31&#45;&gt;node_45 -->
<g id="edge38" class="edge">
<title>node_31&#45;&gt;node_45</title>
<path fill="none" stroke="#c62828" stroke-width="2" stroke-dasharray="1,5" d="M5370.18,-49C5370.18,-49 5366.17,-49 5366.17,-49"/>
<polygon fill="#c62828" stroke="#c62828" stroke-width="2" points="5370.48,-49 5376.48,-45 5382.48,-49 5376.48,-53 5370.48,-49"/>
<polygon fill="#c62828" stroke="#c62828" stroke-width="2" points="5365.87,-49 5359.87,-53 5353.87,-49 5359.87,-45 5365.87,-49"/>
</g>
<!-- node_33 -->
<g id="node34" class="node">
<title>node_33</title>
<path fill="#81c784" stroke="#7b1fa2" stroke-width="4" d="M5630.25,-70.25C5630.25,-70.25 5578.25,-70.25 5578.25,-70.25 5572.25,-70.25 5566.25,-64.25 5566.25,-58.25 5566.25,-58.25 5566.25,-39 5566.25,-39 5566.25,-33 5572.25,-27 5578.25,-27 5578.25,-27 5630.25,-27 5630.25,-27 5636.25,-27 5642.25,-33 5642.25,-39 5642.25,-39 5642.25,-58.25 5642.25,-58.25 5642.25,-64.25 5636.25,-70.25 5630.25,-70.25"/>
<text xml:space="preserve" text-anchor="middle" x="5604.25" y="-56.75" font-family="Helvetica,sans-Serif" font-size="10.00">layer1.0.bn2</text>
<text xml:space="preserve" text-anchor="middle" x="5604.25" y="-45.5" font-family="Helvetica,sans-Serif" font-size="10.00">BatchNorm2d</text>
<text xml:space="preserve" text-anchor="middle" x="5604.25" y="-34.25" font-family="Helvetica,sans-Serif" font-size="10.00">64 → 64</text>
</g>
<!-- node_32&#45;&gt;node_33 -->
<g id="edge40" class="edge">
<title>node_32&#45;&gt;node_33</title>
<path fill="none" stroke="#c62828" stroke-width="2" stroke-dasharray="1,5" d="M5546.3,-49C5546.3,-49 5550.28,-49 5550.28,-49"/>
<polygon fill="#c62828" stroke="#c62828" stroke-width="2" points="5546,-49 5540,-53 5534,-49 5540,-45 5546,-49"/>
<polygon fill="#c62828" stroke="#c62828" stroke-width="2" points="5550.59,-49 5556.59,-45 5562.59,-49 5556.59,-53 5550.59,-49"/>
</g>
<!-- node_34 -->
<g id="node35" class="node">
<title>node_34</title>
<path fill="#ffd54f" stroke="#7b1fa2" stroke-width="4" d="M6164.62,-66.62C6164.62,-66.62 6123.88,-66.62 6123.88,-66.62 6117.88,-66.62 6111.88,-60.62 6111.88,-54.62 6111.88,-54.62 6111.88,-42.62 6111.88,-42.62 6111.88,-36.62 6117.88,-30.62 6123.88,-30.62 6123.88,-30.62 6164.62,-30.62 6164.62,-30.62 6170.62,-30.62 6176.62,-36.62 6176.62,-42.62 6176.62,-42.62 6176.62,-54.62 6176.62,-54.62 6176.62,-60.62 6170.62,-66.62 6164.62,-66.62"/>
<text xml:space="preserve" text-anchor="middle" x="6144.25" y="-44.75" font-family="Helvetica,sans-Serif" font-size="10.00">MaxPool2d</text>
</g>
<!-- node_32&#45;&gt;node_34 -->
<g id="edge41" class="edge">
<title>node_32&#45;&gt;node_34</title>
<path fill="none" stroke="#c62828" stroke-width="2" stroke-dasharray="1,5" d="M5503.25,-19.07C5503.25,-19.07 5503.25,-18 5503.25,-18 5503.25,-18 6144.25,-18 6144.25,-18 6144.25,-18 6144.25,-19.07 6144.25,-19.07"/>
<polygon fill="#c62828" stroke="#c62828" stroke-width="2" points="5503.25,-14.91 5507.25,-20.91 5503.25,-26.91 5499.25,-20.91 5503.25,-14.91"/>
<polygon fill="#c62828" stroke="#c62828" stroke-width="2" points="6144.25,-14.91 6148.25,-20.91 6144.25,-26.91 6140.25,-20.91 6144.25,-14.91"/>
</g>
<!-- node_38 -->
<g id="node39" class="node">
<title>node_38</title>
<path fill="#4a90d9" stroke="#00838f" stroke-width="4" d="M5746.12,-70.25C5746.12,-70.25 5690.38,-70.25 5690.38,-70.25 5684.38,-70.25 5678.38,-64.25 5678.38,-58.25 5678.38,-58.25 5678.38,-39 5678.38,-39 5678.38,-33 5684.38,-27 5690.38,-27 5690.38,-27 5746.12,-27 5746.12,-27 5752.12,-27 5758.12,-33 5758.12,-39 5758.12,-39 5758.12,-58.25 5758.12,-58.25 5758.12,-64.25 5752.12,-70.25 5746.12,-70.25"/>
<text xml:space="preserve" text-anchor="middle" x="5718.25" y="-56.75" font-family="Helvetica,sans-Serif" font-size="10.00">layer1.0.conv2</text>
<text xml:space="preserve" text-anchor="middle" x="5718.25" y="-45.5" font-family="Helvetica,sans-Serif" font-size="10.00">Conv2d</text>
<text xml:space="preserve" text-anchor="middle" x="5718.25" y="-34.25" font-family="Helvetica,sans-Serif" font-size="10.00">64 → 64</text>
</g>
<!-- node_33&#45;&gt;node_38 -->
<g id="edge46" class="edge">
<title>node_33&#45;&gt;node_38</title>
<path fill="none" stroke="#2e7d32" stroke-width="1.5" stroke-dasharray="5,2" d="M5655.95,-49C5655.95,-49 5664.83,-49 5664.83,-49"/>
<polygon fill="#2e7d32" stroke="#2e7d32" stroke-width="1.5" points="5645.95,-49 5655.95,-44.5 5649.12,-48.75 5655.95,-48.75 5655.95,-49 5655.95,-49.25 5649.12,-49.25 5655.95,-53.5 5645.95,-49"/>
<polygon fill="#2e7d32" stroke="#2e7d32" stroke-width="1.5" points="5674.83,-49 5664.83,-53.5 5671.66,-49.25 5664.83,-49.25 5664.83,-49 5664.83,-48.75 5671.66,-48.75 5664.83,-44.5 5674.83,-49"/>
</g>
<!-- node_35 -->
<g id="node36" class="node">
<title>node_35</title>
<path fill="#ffd54f" stroke="#7b1fa2" stroke-width="4" d="M6254.25,-66.62C6254.25,-66.62 6224.25,-66.62 6224.25,-66.62 6218.25,-66.62 6212.25,-60.62 6212.25,-54.62 6212.25,-54.62 6212.25,-42.62 6212.25,-42.62 6212.25,-36.62 6218.25,-30.62 6224.25,-30.62 6224.25,-30.62 6254.25,-30.62 6254.25,-30.62 6260.25,-30.62 6266.25,-36.62 6266.25,-42.62 6266.25,-42.62 6266.25,-54.62 6266.25,-54.62 6266.25,-60.62 6260.25,-66.62 6254.25,-66.62"/>
<text xml:space="preserve" text-anchor="middle" x="6239.25" y="-44.75" font-family="Helvetica,sans-Serif" font-size="10.00">ReLU</text>
</g>
<!-- node_34&#45;&gt;node_35 -->
<g id="edge43" class="edge">
<title>node_34&#45;&gt;node_35</title>
<path fill="none" stroke="#c62828" stroke-width="2" stroke-dasharray="1,5" d="M6192.65,-49C6192.65,-49 6196.22,-49 6196.22,-49"/>
<polygon fill="#c62828" stroke="#c62828" stroke-width="2" points="6192.35,-49 6186.35,-53 6180.35,-49 6186.35,-45 6192.35,-49"/>
<polygon fill="#c62828" stroke="#c62828" stroke-width="2" points="6196.52,-49 6202.52,-45 6208.52,-49 6202.52,-53 6196.52,-49"/>
</g>
<!-- node_41 -->
<g id="node42" class="node">
<title>node_41</title>
<path fill="#4a90d9" stroke="#00838f" stroke-width="4" d="M6064.12,-70.25C6064.12,-70.25 6008.38,-70.25 6008.38,-70.25 6002.38,-70.25 5996.38,-64.25 5996.38,-58.25 5996.38,-58.25 5996.38,-39 5996.38,-39 5996.38,-33 6002.38,-27 6008.38,-27 6008.38,-27 6064.12,-27 6064.12,-27 6070.12,-27 6076.12,-33 6076.12,-39 6076.12,-39 6076.12,-58.25 6076.12,-58.25 6076.12,-64.25 6070.12,-70.25 6064.12,-70.25"/>
<text xml:space="preserve" text-anchor="middle" x="6036.25" y="-56.75" font-family="Helvetica,sans-Serif" font-size="10.00">layer1.0.conv1</text>
<text xml:space="preserve" text-anchor="middle" x="6036.25" y="-45.5" font-family="Helvetica,sans-Serif" font-size="10.00">Conv2d</text>
<text xml:space="preserve" text-anchor="middle" x="6036.25" y="-34.25" font-family="Helvetica,sans-Serif" font-size="10.00">64 → 64</text>
</g>
<!-- node_34&#45;&gt;node_41 -->
<g id="edge42" class="edge">
<title>node_34&#45;&gt;node_41</title>
<path fill="none" stroke="#c62828" stroke-width="2" stroke-dasharray="1,5" d="M6095.97,-49C6095.97,-49 6091.88,-49 6091.88,-49"/>
<polygon fill="#c62828" stroke="#c62828" stroke-width="2" points="6096.28,-49 6102.28,-45 6108.28,-49 6102.28,-53 6096.28,-49"/>
<polygon fill="#c62828" stroke="#c62828" stroke-width="2" points="6091.58,-49 6085.58,-53 6079.58,-49 6085.58,-45 6091.58,-49"/>
</g>
<!-- node_36 -->
<g id="node37" class="node">
<title>node_36</title>
<path fill="#81c784" stroke="#7b1fa2" stroke-width="4" d="M6366.25,-70.25C6366.25,-70.25 6314.25,-70.25 6314.25,-70.25 6308.25,-70.25 6302.25,-64.25 6302.25,-58.25 6302.25,-58.25 6302.25,-39 6302.25,-39 6302.25,-33 6308.25,-27 6314.25,-27 6314.25,-27 6366.25,-27 6366.25,-27 6372.25,-27 6378.25,-33 6378.25,-39 6378.25,-39 6378.25,-58.25 6378.25,-58.25 6378.25,-64.25 6372.25,-70.25 6366.25,-70.25"/>
<text xml:space="preserve" text-anchor="middle" x="6340.25" y="-56.75" font-family="Helvetica,sans-Serif" font-size="10.00">bn1</text>
<text xml:space="preserve" text-anchor="middle" x="6340.25" y="-45.5" font-family="Helvetica,sans-Serif" font-size="10.00">BatchNorm2d</text>
<text xml:space="preserve" text-anchor="middle" x="6340.25" y="-34.25" font-family="Helvetica,sans-Serif" font-size="10.00">64 → 64</text>
</g>
<!-- node_35&#45;&gt;node_36 -->
<g id="edge44" class="edge">
<title>node_35&#45;&gt;node_36</title>
<path fill="none" stroke="#c62828" stroke-width="2" stroke-dasharray="1,5" d="M6282.3,-49C6282.3,-49 6286.28,-49 6286.28,-49"/>
<polygon fill="#c62828" stroke="#c62828" stroke-width="2" points="6282,-49 6276,-53 6270,-49 6276,-45 6282,-49"/>
<polygon fill="#c62828" stroke="#c62828" stroke-width="2" points="6286.59,-49 6292.59,-45 6298.59,-49 6292.59,-53 6286.59,-49"/>
</g>
<!-- node_37 -->
<g id="node38" class="node">
<title>node_37</title>
<path fill="#4a90d9" stroke="#7b1fa2" stroke-width="4" d="M6456.25,-70.25C6456.25,-70.25 6426.25,-70.25 6426.25,-70.25 6420.25,-70.25 6414.25,-64.25 6414.25,-58.25 6414.25,-58.25 6414.25,-39 6414.25,-39 6414.25,-33 6420.25,-27 6426.25,-27 6426.25,-27 6456.25,-27 6456.25,-27 6462.25,-27 6468.25,-33 6468.25,-39 6468.25,-39 6468.25,-58.25 6468.25,-58.25 6468.25,-64.25 6462.25,-70.25 6456.25,-70.25"/>
<text xml:space="preserve" text-anchor="middle" x="6441.25" y="-56.75" font-family="Helvetica,sans-Serif" font-size="10.00">conv1</text>
<text xml:space="preserve" text-anchor="middle" x="6441.25" y="-45.5" font-family="Helvetica,sans-Serif" font-size="10.00">Conv2d</text>
<text xml:space="preserve" text-anchor="middle" x="6441.25" y="-34.25" font-family="Helvetica,sans-Serif" font-size="10.00">3 → 64</text>
</g>
<!-- node_36&#45;&gt;node_37 -->
<g id="edge45" class="edge">
<title>node_36&#45;&gt;node_37</title>
<path fill="none" stroke="#2e7d32" stroke-width="1.5" stroke-dasharray="5,2" d="M6392,-49C6392,-49 6400.69,-49 6400.69,-49"/>
<polygon fill="#2e7d32" stroke="#2e7d32" stroke-width="1.5" points="6382,-49 6392,-44.5 6385.17,-48.75 6392,-48.75 6392,-49 6392,-49.25 6385.17,-49.25 6392,-53.5 6382,-49"/>
<polygon fill="#2e7d32" stroke="#2e7d32" stroke-width="1.5" points="6410.69,-49 6400.69,-53.5 6407.52,-49.25 6400.69,-49.25 6400.69,-49 6400.69,-48.75 6407.52,-48.75 6400.69,-44.5 6410.69,-49"/>
</g>
<!-- node_39 -->
<g id="node40" class="node">
<title>node_39</title>
<path fill="#ffd54f" stroke="#00838f" stroke-width="4" d="M5836.25,-66.62C5836.25,-66.62 5806.25,-66.62 5806.25,-66.62 5800.25,-66.62 5794.25,-60.62 5794.25,-54.62 5794.25,-54.62 5794.25,-42.62 5794.25,-42.62 5794.25,-36.62 5800.25,-30.62 5806.25,-30.62 5806.25,-30.62 5836.25,-30.62 5836.25,-30.62 5842.25,-30.62 5848.25,-36.62 5848.25,-42.62 5848.25,-42.62 5848.25,-54.62 5848.25,-54.62 5848.25,-60.62 5842.25,-66.62 5836.25,-66.62"/>
<text xml:space="preserve" text-anchor="middle" x="5821.25" y="-44.75" font-family="Helvetica,sans-Serif" font-size="10.00">ReLU</text>
</g>
<!-- node_38&#45;&gt;node_39 -->
<g id="edge47" class="edge">
<title>node_38&#45;&gt;node_39</title>
<path fill="none" stroke="#c62828" stroke-width="2" stroke-dasharray="1,5" d="M5773.95,-49C5773.95,-49 5778.35,-49 5778.35,-49"/>
<polygon fill="#c62828" stroke="#c62828" stroke-width="2" points="5773.65,-49 5767.65,-53 5761.65,-49 5767.65,-45 5773.65,-49"/>
<polygon fill="#c62828" stroke="#c62828" stroke-width="2" points="5778.66,-49 5784.66,-45 5790.66,-49 5784.66,-53 5778.66,-49"/>
</g>
<!-- node_40 -->
<g id="node41" class="node">
<title>node_40</title>
<path fill="#81c784" stroke="#00838f" stroke-width="4" d="M5948.25,-70.25C5948.25,-70.25 5896.25,-70.25 5896.25,-70.25 5890.25,-70.25 5884.25,-64.25 5884.25,-58.25 5884.25,-58.25 5884.25,-39 5884.25,-39 5884.25,-33 5890.25,-27 5896.25,-27 5896.25,-27 5948.25,-27 5948.25,-27 5954.25,-27 5960.25,-33 5960.25,-39 5960.25,-39 5960.25,-58.25 5960.25,-58.25 5960.25,-64.25 5954.25,-70.25 5948.25,-70.25"/>
<text xml:space="preserve" text-anchor="middle" x="5922.25" y="-56.75" font-family="Helvetica,sans-Serif" font-size="10.00">layer1.0.bn1</text>
<text xml:space="preserve" text-anchor="middle" x="5922.25" y="-45.5" font-family="Helvetica,sans-Serif" font-size="10.00">BatchNorm2d</text>
<text xml:space="preserve" text-anchor="middle" x="5922.25" y="-34.25" font-family="Helvetica,sans-Serif" font-size="10.00">64 → 64</text>
</g>
<!-- node_39&#45;&gt;node_40 -->
<g id="edge48" class="edge">
<title>node_39&#45;&gt;node_40</title>
<path fill="none" stroke="#c62828" stroke-width="2" stroke-dasharray="1,5" d="M5864.3,-49C5864.3,-49 5868.28,-49 5868.28,-49"/>
<polygon fill="#c62828" stroke="#c62828" stroke-width="2" points="5864,-49 5858,-53 5852,-49 5858,-45 5864,-49"/>
<polygon fill="#c62828" stroke="#c62828" stroke-width="2" points="5868.59,-49 5874.59,-45 5880.59,-49 5874.59,-53 5868.59,-49"/>
</g>
<!-- node_40&#45;&gt;node_41 -->
<g id="edge49" class="edge">
<title>node_40&#45;&gt;node_41</title>
<path fill="none" stroke="#2e7d32" stroke-width="1.5" stroke-dasharray="5,2" d="M5973.95,-49C5973.95,-49 5982.83,-49 5982.83,-49"/>
<polygon fill="#2e7d32" stroke="#2e7d32" stroke-width="1.5" points="5963.95,-49 5973.95,-44.5 5967.12,-48.75 5973.95,-48.75 5973.95,-49 5973.95,-49.25 5967.12,-49.25 5973.95,-53.5 5963.95,-49"/>
<polygon fill="#2e7d32" stroke="#2e7d32" stroke-width="1.5" points="5992.83,-49 5982.83,-53.5 5989.66,-49.25 5982.83,-49.25 5982.83,-49 5982.83,-48.75 5989.66,-48.75 5982.83,-44.5 5992.83,-49"/>
</g>
<!-- node_43 -->
<g id="node44" class="node">
<title>node_43</title>
<path fill="#ffd54f" stroke="#f9a825" stroke-width="4" d="M5110.25,-66.62C5110.25,-66.62 5080.25,-66.62 5080.25,-66.62 5074.25,-66.62 5068.25,-60.62 5068.25,-54.62 5068.25,-54.62 5068.25,-42.62 5068.25,-42.62 5068.25,-36.62 5074.25,-30.62 5080.25,-30.62 5080.25,-30.62 5110.25,-30.62 5110.25,-30.62 5116.25,-30.62 5122.25,-36.62 5122.25,-42.62 5122.25,-42.62 5122.25,-54.62 5122.25,-54.62 5122.25,-60.62 5116.25,-66.62 5110.25,-66.62"/>
<text xml:space="preserve" text-anchor="middle" x="5095.25" y="-44.75" font-family="Helvetica,sans-Serif" font-size="10.00">ReLU</text>
</g>
<!-- node_42&#45;&gt;node_43 -->
<g id="edge51" class="edge">
<title>node_42&#45;&gt;node_43</title>
<path fill="none" stroke="#c62828" stroke-width="2" stroke-dasharray="1,5" d="M5047.95,-49C5047.95,-49 5052.35,-49 5052.35,-49"/>
<polygon fill="#c62828" stroke="#c62828" stroke-width="2" points="5047.65,-49 5041.65,-53 5035.65,-49 5041.65,-45 5047.65,-49"/>
<polygon fill="#c62828" stroke="#c62828" stroke-width="2" points="5052.66,-49 5058.66,-45 5064.66,-49 5058.66,-53 5052.66,-49"/>
</g>
<!-- node_44 -->
<g id="node45" class="node">
<title>node_44</title>
<path fill="#81c784" stroke="#f9a825" stroke-width="4" d="M5222.25,-70.25C5222.25,-70.25 5170.25,-70.25 5170.25,-70.25 5164.25,-70.25 5158.25,-64.25 5158.25,-58.25 5158.25,-58.25 5158.25,-39 5158.25,-39 5158.25,-33 5164.25,-27 5170.25,-27 5170.25,-27 5222.25,-27 5222.25,-27 5228.25,-27 5234.25,-33 5234.25,-39 5234.25,-39 5234.25,-58.25 5234.25,-58.25 5234.25,-64.25 5228.25,-70.25 5222.25,-70.25"/>
<text xml:space="preserve" text-anchor="middle" x="5196.25" y="-56.75" font-family="Helvetica,sans-Serif" font-size="10.00">layer1.1.bn1</text>
<text xml:space="preserve" text-anchor="middle" x="5196.25" y="-45.5" font-family="Helvetica,sans-Serif" font-size="10.00">BatchNorm2d</text>
<text xml:space="preserve" text-anchor="middle" x="5196.25" y="-34.25" font-family="Helvetica,sans-Serif" font-size="10.00">64 → 64</text>
</g>
<!-- node_43&#45;&gt;node_44 -->
<g id="edge52" class="edge">
<title>node_43&#45;&gt;node_44</title>
<path fill="none" stroke="#c62828" stroke-width="2" stroke-dasharray="1,5" d="M5138.3,-49C5138.3,-49 5142.28,-49 5142.28,-49"/>
<polygon fill="#c62828" stroke="#c62828" stroke-width="2" points="5138,-49 5132,-53 5126,-49 5132,-45 5138,-49"/>
<polygon fill="#c62828" stroke="#c62828" stroke-width="2" points="5142.59,-49 5148.59,-45 5154.59,-49 5148.59,-53 5142.59,-49"/>
</g>
<!-- node_44&#45;&gt;node_45 -->
<g id="edge53" class="edge">
<title>node_44&#45;&gt;node_45</title>
<path fill="none" stroke="#2e7d32" stroke-width="1.5" stroke-dasharray="5,2" d="M5247.95,-49C5247.95,-49 5256.83,-49 5256.83,-49"/>
<polygon fill="#2e7d32" stroke="#2e7d32" stroke-width="1.5" points="5237.95,-49 5247.95,-44.5 5241.12,-48.75 5247.95,-48.75 5247.95,-49 5247.95,-49.25 5241.12,-49.25 5247.95,-53.5 5237.95,-49"/>
<polygon fill="#2e7d32" stroke="#2e7d32" stroke-width="1.5" points="5266.83,-49 5256.83,-53.5 5263.66,-49.25 5256.83,-49.25 5256.83,-49 5256.83,-48.75 5263.66,-48.75 5256.83,-44.5 5266.83,-49"/>
</g>
<!-- node_47 -->
<g id="node48" class="node">
<title>node_47</title>
<path fill="#ffd54f" stroke="#5d4037" stroke-width="4" d="M4384.25,-66.62C4384.25,-66.62 4354.25,-66.62 4354.25,-66.62 4348.25,-66.62 4342.25,-60.62 4342.25,-54.62 4342.25,-54.62 4342.25,-42.62 4342.25,-42.62 4342.25,-36.62 4348.25,-30.62 4354.25,-30.62 4354.25,-30.62 4384.25,-30.62 4384.25,-30.62 4390.25,-30.62 4396.25,-36.62 4396.25,-42.62 4396.25,-42.62 4396.25,-54.62 4396.25,-54.62 4396.25,-60.62 4390.25,-66.62 4384.25,-66.62"/>
<text xml:space="preserve" text-anchor="middle" x="4369.25" y="-44.75" font-family="Helvetica,sans-Serif" font-size="10.00">ReLU</text>
</g>
<!-- node_46&#45;&gt;node_47 -->
<g id="edge55" class="edge">
<title>node_46&#45;&gt;node_47</title>
<path fill="none" stroke="#c62828" stroke-width="2" stroke-dasharray="1,5" d="M4321.95,-49C4321.95,-49 4326.35,-49 4326.35,-49"/>
<polygon fill="#c62828" stroke="#c62828" stroke-width="2" points="4321.65,-49 4315.65,-53 4309.65,-49 4315.65,-45 4321.65,-49"/>
<polygon fill="#c62828" stroke="#c62828" stroke-width="2" points="4326.66,-49 4332.66,-45 4338.66,-49 4332.66,-53 4326.66,-49"/>
</g>
<!-- node_48 -->
<g id="node49" class="node">
<title>node_48</title>
<path fill="#81c784" stroke="#5d4037" stroke-width="4" d="M4496.25,-70.25C4496.25,-70.25 4444.25,-70.25 4444.25,-70.25 4438.25,-70.25 4432.25,-64.25 4432.25,-58.25 4432.25,-58.25 4432.25,-39 4432.25,-39 4432.25,-33 4438.25,-27 4444.25,-27 4444.25,-27 4496.25,-27 4496.25,-27 4502.25,-27 4508.25,-33 4508.25,-39 4508.25,-39 4508.25,-58.25 4508.25,-58.25 4508.25,-64.25 4502.25,-70.25 4496.25,-70.25"/>
<text xml:space="preserve" text-anchor="middle" x="4470.25" y="-56.75" font-family="Helvetica,sans-Serif" font-size="10.00">layer2.0.bn1</text>
<text xml:space="preserve" text-anchor="middle" x="4470.25" y="-45.5" font-family="Helvetica,sans-Serif" font-size="10.00">BatchNorm2d</text>
<text xml:space="preserve" text-anchor="middle" x="4470.25" y="-34.25" font-family="Helvetica,sans-Serif" font-size="10.00">128 → 128</text>
</g>
<!-- node_47&#45;&gt;node_48 -->
<g id="edge56" class="edge">
<title>node_47&#45;&gt;node_48</title>
<path fill="none" stroke="#c62828" stroke-width="2" stroke-dasharray="1,5" d="M4412.3,-49C4412.3,-49 4416.28,-49 4416.28,-49"/>
<polygon fill="#c62828" stroke="#c62828" stroke-width="2" points="4412,-49 4406,-53 4400,-49 4406,-45 4412,-49"/>
<polygon fill="#c62828" stroke="#c62828" stroke-width="2" points="4416.59,-49 4422.59,-45 4428.59,-49 4422.59,-53 4416.59,-49"/>
</g>
<!-- node_48&#45;&gt;node_49 -->
<g id="edge57" class="edge">
<title>node_48&#45;&gt;node_49</title>
<path fill="none" stroke="#2e7d32" stroke-width="1.5" stroke-dasharray="5,2" d="M4521.95,-49C4521.95,-49 4530.83,-49 4530.83,-49"/>
<polygon fill="#2e7d32" stroke="#2e7d32" stroke-width="1.5" points="4511.95,-49 4521.95,-44.5 4515.12,-48.75 4521.95,-48.75 4521.95,-49 4521.95,-49.25 4515.12,-49.25 4521.95,-53.5 4511.95,-49"/>
<polygon fill="#2e7d32" stroke="#2e7d32" stroke-width="1.5" points="4540.83,-49 4530.83,-53.5 4537.66,-49.25 4530.83,-49.25 4530.83,-49 4530.83,-48.75 4537.66,-48.75 4530.83,-44.5 4540.83,-49"/>
</g>
<!-- node_51 -->
<g id="node52" class="node">
<title>node_51</title>
<path fill="#ffd54f" stroke="#1565c0" stroke-width="4" d="M3658.25,-66.62C3658.25,-66.62 3628.25,-66.62 3628.25,-66.62 3622.25,-66.62 3616.25,-60.62 3616.25,-54.62 3616.25,-54.62 3616.25,-42.62 3616.25,-42.62 3616.25,-36.62 3622.25,-30.62 3628.25,-30.62 3628.25,-30.62 3658.25,-30.62 3658.25,-30.62 3664.25,-30.62 3670.25,-36.62 3670.25,-42.62 3670.25,-42.62 3670.25,-54.62 3670.25,-54.62 3670.25,-60.62 3664.25,-66.62 3658.25,-66.62"/>
<text xml:space="preserve" text-anchor="middle" x="3643.25" y="-44.75" font-family="Helvetica,sans-Serif" font-size="10.00">ReLU</text>
</g>
<!-- node_50&#45;&gt;node_51 -->
<g id="edge59" class="edge">
<title>node_50&#45;&gt;node_51</title>
<path fill="none" stroke="#c62828" stroke-width="2" stroke-dasharray="1,5" d="M3595.95,-49C3595.95,-49 3600.35,-49 3600.35,-49"/>
<polygon fill="#c62828" stroke="#c62828" stroke-width="2" points="3595.65,-49 3589.65,-53 3583.65,-49 3589.65,-45 3595.65,-49"/>
<polygon fill="#c62828" stroke="#c62828" stroke-width="2" points="3600.66,-49 3606.66,-45 3612.66,-49 3606.66,-53 3600.66,-49"/>
</g>
<!-- node_52 -->
<g id="node53" class="node">
<title>node_52</title>
<path fill="#81c784" stroke="#1565c0" stroke-width="4" d="M3770.25,-70.25C3770.25,-70.25 3718.25,-70.25 3718.25,-70.25 3712.25,-70.25 3706.25,-64.25 3706.25,-58.25 3706.25,-58.25 3706.25,-39 3706.25,-39 3706.25,-33 3712.25,-27 3718.25,-27 3718.25,-27 3770.25,-27 3770.25,-27 3776.25,-27 3782.25,-33 3782.25,-39 3782.25,-39 3782.25,-58.25 3782.25,-58.25 3782.25,-64.25 3776.25,-70.25 3770.25,-70.25"/>
<text xml:space="preserve" text-anchor="middle" x="3744.25" y="-56.75" font-family="Helvetica,sans-Serif" font-size="10.00">layer2.1.bn1</text>
<text xml:space="preserve" text-anchor="middle" x="3744.25" y="-45.5" font-family="Helvetica,sans-Serif" font-size="10.00">BatchNorm2d</text>
<text xml:space="preserve" text-anchor="middle" x="3744.25" y="-34.25" font-family="Helvetica,sans-Serif" font-size="10.00">128 → 128</text>
</g>
<!-- node_51&#45;&gt;node_52 -->
<g id="edge60" class="edge">
<title>node_51&#45;&gt;node_52</title>
<path fill="none" stroke="#c62828" stroke-width="2" stroke-dasharray="1,5" d="M3686.3,-49C3686.3,-49 3690.28,-49 3690.28,-49"/>
<polygon fill="#c62828" stroke="#c62828" stroke-width="2" points="3686,-49 3680,-53 3674,-49 3680,-45 3686,-49"/>
<polygon fill="#c62828" stroke="#c62828" stroke-width="2" points="3690.59,-49 3696.59,-45 3702.59,-49 3696.59,-53 3690.59,-49"/>
</g>
<!-- node_52&#45;&gt;node_53 -->
<g id="edge61" class="edge">
<title>node_52&#45;&gt;node_53</title>
<path fill="none" stroke="#2e7d32" stroke-width="1.5" stroke-dasharray="5,2" d="M3795.95,-49C3795.95,-49 3804.83,-49 3804.83,-49"/>
<polygon fill="#2e7d32" stroke="#2e7d32" stroke-width="1.5" points="3785.95,-49 3795.95,-44.5 3789.12,-48.75 3795.95,-48.75 3795.95,-49 3795.95,-49.25 3789.12,-49.25 3795.95,-53.5 3785.95,-49"/>
<polygon fill="#2e7d32" stroke="#2e7d32" stroke-width="1.5" points="3814.83,-49 3804.83,-53.5 3811.66,-49.25 3804.83,-49.25 3804.83,-49 3804.83,-48.75 3811.66,-48.75 3804.83,-44.5 3814.83,-49"/>
</g>
<!-- node_55 -->
<g id="node56" class="node">
<title>node_55</title>
<path fill="#ffd54f" stroke="#e65100" stroke-width="4" d="M2932.25,-66.62C2932.25,-66.62 2902.25,-66.62 2902.25,-66.62 2896.25,-66.62 2890.25,-60.62 2890.25,-54.62 2890.25,-54.62 2890.25,-42.62 2890.25,-42.62 2890.25,-36.62 2896.25,-30.62 2902.25,-30.62 2902.25,-30.62 2932.25,-30.62 2932.25,-30.62 2938.25,-30.62 2944.25,-36.62 2944.25,-42.62 2944.25,-42.62 2944.25,-54.62 2944.25,-54.62 2944.25,-60.62 2938.25,-66.62 2932.25,-66.62"/>
<text xml:space="preserve" text-anchor="middle" x="2917.25" y="-44.75" font-family="Helvetica,sans-Serif" font-size="10.00">ReLU</text>
</g>
<!-- node_54&#45;&gt;node_55 -->
<g id="edge63" class="edge">
<title>node_54&#45;&gt;node_55</title>
<path fill="none" stroke="#c62828" stroke-width="2" stroke-dasharray="1,5" d="M2869.95,-49C2869.95,-49 2874.35,-49 2874.35,-49"/>
<polygon fill="#c62828" stroke="#c62828" stroke-width="2" points="2869.65,-49 2863.65,-53 2857.65,-49 2863.65,-45 2869.65,-49"/>
<polygon fill="#c62828" stroke="#c62828" stroke-width="2" points="2874.66,-49 2880.66,-45 2886.66,-49 2880.66,-53 2874.66,-49"/>
</g>
<!-- node_56 -->
<g id="node57" class="node">
<title>node_56</title>
<path fill="#81c784" stroke="#e65100" stroke-width="4" d="M3044.25,-70.25C3044.25,-70.25 2992.25,-70.25 2992.25,-70.25 2986.25,-70.25 2980.25,-64.25 2980.25,-58.25 2980.25,-58.25 2980.25,-39 2980.25,-39 2980.25,-33 2986.25,-27 2992.25,-27 2992.25,-27 3044.25,-27 3044.25,-27 3050.25,-27 3056.25,-33 3056.25,-39 3056.25,-39 3056.25,-58.25 3056.25,-58.25 3056.25,-64.25 3050.25,-70.25 3044.25,-70.25"/>
<text xml:space="preserve" text-anchor="middle" x="3018.25" y="-56.75" font-family="Helvetica,sans-Serif" font-size="10.00">layer3.0.bn1</text>
<text xml:space="preserve" text-anchor="middle" x="3018.25" y="-45.5" font-family="Helvetica,sans-Serif" font-size="10.00">BatchNorm2d</text>
<text xml:space="preserve" text-anchor="middle" x="3018.25" y="-34.25" font-family="Helvetica,sans-Serif" font-size="10.00">256 → 256</text>
</g>
<!-- node_55&#45;&gt;node_56 -->
<g id="edge64" class="edge">
<title>node_55&#45;&gt;node_56</title>
<path fill="none" stroke="#c62828" stroke-width="2" stroke-dasharray="1,5" d="M2960.3,-49C2960.3,-49 2964.28,-49 2964.28,-49"/>
<polygon fill="#c62828" stroke="#c62828" stroke-width="2" points="2960,-49 2954,-53 2948,-49 2954,-45 2960,-49"/>
<polygon fill="#c62828" stroke="#c62828" stroke-width="2" points="2964.59,-49 2970.59,-45 2976.59,-49 2970.59,-53 2964.59,-49"/>
</g>
<!-- node_56&#45;&gt;node_57 -->
<g id="edge65" class="edge">
<title>node_56&#45;&gt;node_57</title>
<path fill="none" stroke="#2e7d32" stroke-width="1.5" stroke-dasharray="5,2" d="M3069.95,-49C3069.95,-49 3078.83,-49 3078.83,-49"/>
<polygon fill="#2e7d32" stroke="#2e7d32" stroke-width="1.5" points="3059.95,-49 3069.95,-44.5 3063.12,-48.75 3069.95,-48.75 3069.95,-49 3069.95,-49.25 3063.12,-49.25 3069.95,-53.5 3059.95,-49"/>
<polygon fill="#2e7d32" stroke="#2e7d32" stroke-width="1.5" points="3088.83,-49 3078.83,-53.5 3085.66,-49.25 3078.83,-49.25 3078.83,-49 3078.83,-48.75 3085.66,-48.75 3078.83,-44.5 3088.83,-49"/>
</g>
<!-- node_59 -->
<g id="node60" class="node">
<title>node_59</title>
<path fill="#ffd54f" stroke="#2e7d32" stroke-width="4" d="M2206.25,-66.62C2206.25,-66.62 2176.25,-66.62 2176.25,-66.62 2170.25,-66.62 2164.25,-60.62 2164.25,-54.62 2164.25,-54.62 2164.25,-42.62 2164.25,-42.62 2164.25,-36.62 2170.25,-30.62 2176.25,-30.62 2176.25,-30.62 2206.25,-30.62 2206.25,-30.62 2212.25,-30.62 2218.25,-36.62 2218.25,-42.62 2218.25,-42.62 2218.25,-54.62 2218.25,-54.62 2218.25,-60.62 2212.25,-66.62 2206.25,-66.62"/>
<text xml:space="preserve" text-anchor="middle" x="2191.25" y="-44.75" font-family="Helvetica,sans-Serif" font-size="10.00">ReLU</text>
</g>
<!-- node_58&#45;&gt;node_59 -->
<g id="edge67" class="edge">
<title>node_58&#45;&gt;node_59</title>
<path fill="none" stroke="#c62828" stroke-width="2" stroke-dasharray="1,5" d="M2143.95,-49C2143.95,-49 2148.35,-49 2148.35,-49"/>
<polygon fill="#c62828" stroke="#c62828" stroke-width="2" points="2143.65,-49 2137.65,-53 2131.65,-49 2137.65,-45 2143.65,-49"/>
<polygon fill="#c62828" stroke="#c62828" stroke-width="2" points="2148.66,-49 2154.66,-45 2160.66,-49 2154.66,-53 2148.66,-49"/>
</g>
<!-- node_60 -->
<g id="node61" class="node">
<title>node_60</title>
<path fill="#81c784" stroke="#2e7d32" stroke-width="4" d="M2318.25,-70.25C2318.25,-70.25 2266.25,-70.25 2266.25,-70.25 2260.25,-70.25 2254.25,-64.25 2254.25,-58.25 2254.25,-58.25 2254.25,-39 2254.25,-39 2254.25,-33 2260.25,-27 2266.25,-27 2266.25,-27 2318.25,-27 2318.25,-27 2324.25,-27 2330.25,-33 2330.25,-39 2330.25,-39 2330.25,-58.25 2330.25,-58.25 2330.25,-64.25 2324.25,-70.25 2318.25,-70.25"/>
<text xml:space="preserve" text-anchor="middle" x="2292.25" y="-56.75" font-family="Helvetica,sans-Serif" font-size="10.00">layer3.1.bn1</text>
<text xml:space="preserve" text-anchor="middle" x="2292.25" y="-45.5" font-family="Helvetica,sans-Serif" font-size="10.00">BatchNorm2d</text>
<text xml:space="preserve" text-anchor="middle" x="2292.25" y="-34.25" font-family="Helvetica,sans-Serif" font-size="10.00">256 → 256</text>
</g>
<!-- node_59&#45;&gt;node_60 -->
<g id="edge68" class="edge">
<title>node_59&#45;&gt;node_60</title>
<path fill="none" stroke="#c62828" stroke-width="2" stroke-dasharray="1,5" d="M2234.3,-49C2234.3,-49 2238.28,-49 2238.28,-49"/>
<polygon fill="#c62828" stroke="#c62828" stroke-width="2" points="2234,-49 2228,-53 2222,-49 2228,-45 2234,-49"/>
<polygon fill="#c62828" stroke="#c62828" stroke-width="2" points="2238.59,-49 2244.59,-45 2250.59,-49 2244.59,-53 2238.59,-49"/>
</g>
<!-- node_60&#45;&gt;node_61 -->
<g id="edge69" class="edge">
<title>node_60&#45;&gt;node_61</title>
<path fill="none" stroke="#2e7d32" stroke-width="1.5" stroke-dasharray="5,2" d="M2343.95,-49C2343.95,-49 2352.83,-49 2352.83,-49"/>
<polygon fill="#2e7d32" stroke="#2e7d32" stroke-width="1.5" points="2333.95,-49 2343.95,-44.5 2337.12,-48.75 2343.95,-48.75 2343.95,-49 2343.95,-49.25 2337.12,-49.25 2343.95,-53.5 2333.95,-49"/>
<polygon fill="#2e7d32" stroke="#2e7d32" stroke-width="1.5" points="2362.83,-49 2352.83,-53.5 2359.66,-49.25 2352.83,-49.25 2352.83,-49 2352.83,-48.75 2359.66,-48.75 2352.83,-44.5 2362.83,-49"/>
</g>
<!-- node_62 -->
<g id="node63" class="node">
<title>node_62</title>
<path fill="#4a90d9" stroke="#c2185b" stroke-width="4" d="M1390.12,-70.25C1390.12,-70.25 1334.38,-70.25 1334.38,-70.25 1328.38,-70.25 1322.38,-64.25 1322.38,-58.25 1322.38,-58.25 1322.38,-39 1322.38,-39 1322.38,-33 1328.38,-27 1334.38,-27 1334.38,-27 1390.12,-27 1390.12,-27 1396.12,-27 1402.12,-33 1402.12,-39 1402.12,-39 1402.12,-58.25 1402.12,-58.25 1402.12,-64.25 1396.12,-70.25 1390.12,-70.25"/>
<text xml:space="preserve" text-anchor="middle" x="1362.25" y="-56.75" font-family="Helvetica,sans-Serif" font-size="10.00">layer4.0.conv2</text>
<text xml:space="preserve" text-anchor="middle" x="1362.25" y="-45.5" font-family="Helvetica,sans-Serif" font-size="10.00">Conv2d</text>
<text xml:space="preserve" text-anchor="middle" x="1362.25" y="-34.25" font-family="Helvetica,sans-Serif" font-size="10.00">512 → 512</text>
</g>
<!-- node_62&#45;&gt;node_9 -->
<g id="edge70" class="edge">
<title>node_62&#45;&gt;node_9</title>
<path fill="none" stroke="#2e7d32" stroke-width="1.5" stroke-dasharray="5,2" d="M1308.62,-49C1308.62,-49 1299.98,-49 1299.98,-49"/>
<polygon fill="#2e7d32" stroke="#2e7d32" stroke-width="1.5" points="1318.62,-49 1308.62,-53.5 1315.45,-49.25 1308.62,-49.25 1308.62,-49 1308.62,-48.75 1315.45,-48.75 1308.62,-44.5 1318.62,-49"/>
<polygon fill="#2e7d32" stroke="#2e7d32" stroke-width="1.5" points="1289.98,-49 1299.98,-44.5 1293.15,-48.75 1299.98,-48.75 1299.98,-49 1299.98,-49.25 1293.15,-49.25 1299.98,-53.5 1289.98,-49"/>
</g>
<!-- node_63 -->
<g id="node64" class="node">
<title>node_63</title>
<path fill="#ffd54f" stroke="#c2185b" stroke-width="4" d="M1480.25,-66.62C1480.25,-66.62 1450.25,-66.62 1450.25,-66.62 1444.25,-66.62 1438.25,-60.62 1438.25,-54.62 1438.25,-54.62 1438.25,-42.62 1438.25,-42.62 1438.25,-36.62 1444.25,-30.62 1450.25,-30.62 1450.25,-30.62 1480.25,-30.62 1480.25,-30.62 1486.25,-30.62 1492.25,-36.62 1492.25,-42.62 1492.25,-42.62 1492.25,-54.62 1492.25,-54.62 1492.25,-60.62 1486.25,-66.62 1480.25,-66.62"/>
<text xml:space="preserve" text-anchor="middle" x="1465.25" y="-44.75" font-family="Helvetica,sans-Serif" font-size="10.00">ReLU</text>
</g>
<!-- node_62&#45;&gt;node_63 -->
<g id="edge71" class="edge">
<title>node_62&#45;&gt;node_63</title>
<path fill="none" stroke="#c62828" stroke-width="2" stroke-dasharray="1,5" d="M1417.95,-49C1417.95,-49 1422.35,-49 1422.35,-49"/>
<polygon fill="#c62828" stroke="#c62828" stroke-width="2" points="1417.65,-49 1411.65,-53 1405.65,-49 1411.65,-45 1417.65,-49"/>
<polygon fill="#c62828" stroke="#c62828" stroke-width="2" points="1422.66,-49 1428.66,-45 1434.66,-49 1428.66,-53 1422.66,-49"/>
</g>
<!-- node_64 -->
<g id="node65" class="node">
<title>node_64</title>
<path fill="#81c784" stroke="#c2185b" stroke-width="4" d="M1592.25,-70.25C1592.25,-70.25 1540.25,-70.25 1540.25,-70.25 1534.25,-70.25 1528.25,-64.25 1528.25,-58.25 1528.25,-58.25 1528.25,-39 1528.25,-39 1528.25,-33 1534.25,-27 1540.25,-27 1540.25,-27 1592.25,-27 1592.25,-27 1598.25,-27 1604.25,-33 1604.25,-39 1604.25,-39 1604.25,-58.25 1604.25,-58.25 1604.25,-64.25 1598.25,-70.25 1592.25,-70.25"/>
<text xml:space="preserve" text-anchor="middle" x="1566.25" y="-56.75" font-family="Helvetica,sans-Serif" font-size="10.00">layer4.0.bn1</text>
<text xml:space="preserve" text-anchor="middle" x="1566.25" y="-45.5" font-family="Helvetica,sans-Serif" font-size="10.00">BatchNorm2d</text>
<text xml:space="preserve" text-anchor="middle" x="1566.25" y="-34.25" font-family="Helvetica,sans-Serif" font-size="10.00">512 → 512</text>
</g>
<!-- node_63&#45;&gt;node_64 -->
<g id="edge72" class="edge">
<title>node_63&#45;&gt;node_64</title>
<path fill="none" stroke="#c62828" stroke-width="2" stroke-dasharray="1,5" d="M1508.3,-49C1508.3,-49 1512.28,-49 1512.28,-49"/>
<polygon fill="#c62828" stroke="#c62828" stroke-width="2" points="1508,-49 1502,-53 1496,-49 1502,-45 1508,-49"/>
<polygon fill="#c62828" stroke="#c62828" stroke-width="2" points="1512.59,-49 1518.59,-45 1524.59,-49 1518.59,-53 1512.59,-49"/>
</g>
<!-- node_64&#45;&gt;node_65 -->
<g id="edge73" class="edge">
<title>node_64&#45;&gt;node_65</title>
<path fill="none" stroke="#2e7d32" stroke-width="1.5" stroke-dasharray="5,2" d="M1617.95,-49C1617.95,-49 1626.83,-49 1626.83,-49"/>
<polygon fill="#2e7d32" stroke="#2e7d32" stroke-width="1.5" points="1607.95,-49 1617.95,-44.5 1611.12,-48.75 1617.95,-48.75 1617.95,-49 1617.95,-49.25 1611.12,-49.25 1617.95,-53.5 1607.95,-49"/>
<polygon fill="#2e7d32" stroke="#2e7d32" stroke-width="1.5" points="1636.83,-49 1626.83,-53.5 1633.66,-49.25 1626.83,-49.25 1626.83,-49 1626.83,-48.75 1633.66,-48.75 1626.83,-44.5 1636.83,-49"/>
</g>
<!-- node_67 -->
<g id="node68" class="node">
<title>node_67</title>
<path fill="#ffd54f" stroke="#7b1fa2" stroke-width="4" d="M754.25,-66.62C754.25,-66.62 724.25,-66.62 724.25,-66.62 718.25,-66.62 712.25,-60.62 712.25,-54.62 712.25,-54.62 712.25,-42.62 712.25,-42.62 712.25,-36.62 718.25,-30.62 724.25,-30.62 724.25,-30.62 754.25,-30.62 754.25,-30.62 760.25,-30.62 766.25,-36.62 766.25,-42.62 766.25,-42.62 766.25,-54.62 766.25,-54.62 766.25,-60.62 760.25,-66.62 754.25,-66.62"/>
<text xml:space="preserve" text-anchor="middle" x="739.25" y="-44.75" font-family="Helvetica,sans-Serif" font-size="10.00">ReLU</text>
</g>
<!-- node_66&#45;&gt;node_67 -->
<g id="edge75" class="edge">
<title>node_66&#45;&gt;node_67</title>
<path fill="none" stroke="#c62828" stroke-width="2" stroke-dasharray="1,5" d="M691.95,-49C691.95,-49 696.35,-49 696.35,-49"/>
<polygon fill="#c62828" stroke="#c62828" stroke-width="2" points="691.65,-49 685.65,-53 679.65,-49 685.65,-45 691.65,-49"/>
<polygon fill="#c62828" stroke="#c62828" stroke-width="2" points="696.66,-49 702.66,-45 708.66,-49 702.66,-53 696.66,-49"/>
</g>
<!-- node_68 -->
<g id="node69" class="node">
<title>node_68</title>
<path fill="#81c784" stroke="#7b1fa2" stroke-width="4" d="M866.25,-70.25C866.25,-70.25 814.25,-70.25 814.25,-70.25 808.25,-70.25 802.25,-64.25 802.25,-58.25 802.25,-58.25 802.25,-39 802.25,-39 802.25,-33 808.25,-27 814.25,-27 814.25,-27 866.25,-27 866.25,-27 872.25,-27 878.25,-33 878.25,-39 878.25,-39 878.25,-58.25 878.25,-58.25 878.25,-64.25 872.25,-70.25 866.25,-70.25"/>
<text xml:space="preserve" text-anchor="middle" x="840.25" y="-56.75" font-family="Helvetica,sans-Serif" font-size="10.00">layer4.1.bn1</text>
<text xml:space="preserve" text-anchor="middle" x="840.25" y="-45.5" font-family="Helvetica,sans-Serif" font-size="10.00">BatchNorm2d</text>
<text xml:space="preserve" text-anchor="middle" x="840.25" y="-34.25" font-family="Helvetica,sans-Serif" font-size="10.00">512 → 512</text>
</g>
<!-- node_67&#45;&gt;node_68 -->
<g id="edge76" class="edge">
<title>node_67&#45;&gt;node_68</title>
<path fill="none" stroke="#c62828" stroke-width="2" stroke-dasharray="1,5" d="M782.3,-49C782.3,-49 786.28,-49 786.28,-49"/>
<polygon fill="#c62828" stroke="#c62828" stroke-width="2" points="782,-49 776,-53 770,-49 776,-45 782,-49"/>
<polygon fill="#c62828" stroke="#c62828" stroke-width="2" points="786.59,-49 792.59,-45 798.59,-49 792.59,-53 786.59,-49"/>
</g>
<!-- node_69 -->
<g id="node70" class="node">
<title>node_69</title>
<path fill="#4a90d9" stroke="#7b1fa2" stroke-width="4" d="M982.12,-70.25C982.12,-70.25 926.38,-70.25 926.38,-70.25 920.38,-70.25 914.38,-64.25 914.38,-58.25 914.38,-58.25 914.38,-39 914.38,-39 914.38,-33 920.38,-27 926.38,-27 926.38,-27 982.12,-27 982.12,-27 988.12,-27 994.12,-33 994.12,-39 994.12,-39 994.12,-58.25 994.12,-58.25 994.12,-64.25 988.12,-70.25 982.12,-70.25"/>
<text xml:space="preserve" text-anchor="middle" x="954.25" y="-56.75" font-family="Helvetica,sans-Serif" font-size="10.00">layer4.1.conv1</text>
<text xml:space="preserve" text-anchor="middle" x="954.25" y="-45.5" font-family="Helvetica,sans-Serif" font-size="10.00">Conv2d</text>
<text xml:space="preserve" text-anchor="middle" x="954.25" y="-34.25" font-family="Helvetica,sans-Serif" font-size="10.00">512 → 512</text>
</g>
<!-- node_68&#45;&gt;node_69 -->
<g id="edge77" class="edge">
<title>node_68&#45;&gt;node_69</title>
<path fill="none" stroke="#2e7d32" stroke-width="1.5" stroke-dasharray="5,2" d="M891.95,-49C891.95,-49 900.83,-49 900.83,-49"/>
<polygon fill="#2e7d32" stroke="#2e7d32" stroke-width="1.5" points="881.95,-49 891.95,-44.5 885.12,-48.75 891.95,-48.75 891.95,-49 891.95,-49.25 885.12,-49.25 891.95,-53.5 881.95,-49"/>
<polygon fill="#2e7d32" stroke="#2e7d32" stroke-width="1.5" points="910.83,-49 900.83,-53.5 907.66,-49.25 900.83,-49.25 900.83,-49 900.83,-48.75 907.66,-48.75 900.83,-44.5 910.83,-49"/>
</g>
<!-- node_69&#45;&gt;node_7 -->
<g id="edge8" class="edge">
<title>node_69&#45;&gt;node_7</title>
<path fill="none" stroke="#c62828" stroke-width="2" stroke-dasharray="1,5" d="M1009.95,-49C1009.95,-49 1014.35,-49 1014.35,-49"/>
<polygon fill="#c62828" stroke="#c62828" stroke-width="2" points="1009.65,-49 1003.65,-53 997.65,-49 1003.65,-45 1009.65,-49"/>
<polygon fill="#c62828" stroke="#c62828" stroke-width="2" points="1014.66,-49 1020.66,-45 1026.66,-49 1020.66,-53 1014.66,-49"/>
</g>
</g>
</svg>
