<?xml version="1.0" encoding="UTF-8" standalone="no"?>
<!DOCTYPE svg PUBLIC "-//W3C//DTD SVG 1.1//EN"
 "http://www.w3.org/Graphics/SVG/1.1/DTD/svg11.dtd">
<!-- Generated by graphviz version 14.1.2 (0)
 -->
<!-- Title: DependencyGraph Pages: 1 -->
<svg width="1366pt" height="2551pt"
 viewBox="0.00 0.00 1366.00 2551.00" xmlns="http://www.w3.org/2000/svg" xmlns:xlink="http://www.w3.org/1999/xlink">
<g id="graph0" class="graph" transform="scale(1 1) rotate(0) translate(4 2547)">
<title>DependencyGraph</title>
<polygon fill="white" stroke="none" points="-4,4 -4,-2547 1362,-2547 1362,4 -4,4"/>
<!-- node_0 -->
<g id="node1" class="node">
<title>node_0</title>
<path fill="#e57373" stroke="black" d="M263.25,-2543C263.25,-2543 218.75,-2543 218.75,-2543 212.75,-2543 206.75,-2537 206.75,-2531 206.75,-2531 206.75,-2511.75 206.75,-2511.75 206.75,-2505.75 212.75,-2499.75 218.75,-2499.75 218.75,-2499.75 263.25,-2499.75 263.25,-2499.75 269.25,-2499.75 275.25,-2505.75 275.25,-2511.75 275.25,-2511.75 275.25,-2531 275.25,-2531 275.25,-2537 269.25,-2543 263.25,-2543"/>
<text xml:space="preserve" text-anchor="middle" x="241" y="-2529.5" font-family="Helvetica,sans-Serif" font-size="10.00">fc</text>
<text xml:space="preserve" text-anchor="middle" x="241" y="-2518.25" font-family="Helvetica,sans-Serif" font-size="10.00">Linear</text>
<text xml:space="preserve" text-anchor="middle" x="241" y="-2507" font-family="Helvetica,sans-Serif" font-size="10.00">512 → 1000</text>
</g>
<!-- node_1 -->
<g id="node2" class="node">
<title>node_1</title>
<path fill="#90caf9" stroke="black" d="M215.5,-2463.75C215.5,-2463.75 166.5,-2463.75 166.5,-2463.75 160.5,-2463.75 154.5,-2457.75 154.5,-2451.75 154.5,-2451.75 154.5,-2439.75 154.5,-2439.75 154.5,-2433.75 160.5,-2427.75 166.5,-2427.75 166.5,-2427.75 215.5,-2427.75 215.5,-2427.75 221.5,-2427.75 227.5,-2433.75 227.5,-2439.75 227.5,-2439.75 227.5,-2451.75 227.5,-2451.75 227.5,-2457.75 221.5,-2463.75 215.5,-2463.75"/>
<text xml:space="preserve" text-anchor="middle" x="191" y="-2441.88" font-family="Helvetica,sans-Serif" font-size="10.00">_ReshapeOp</text>
</g>
<!-- node_0&#45;&gt;node_1 -->
<g id="edge1" class="edge">
<title>node_0&#45;&gt;node_1</title>
<path fill="none" stroke="#757575" d="M217.12,-2487.99C217.12,-2487.99 217.12,-2464.25 217.12,-2464.25"/>
<polygon fill="#757575" stroke="#757575" points="213.63,-2487.99 217.13,-2497.99 220.63,-2487.99 213.63,-2487.99"/>
</g>
<!-- node_2 -->
<g id="node3" class="node">
<title>node_2</title>
<path fill="#ffd54f" stroke="black" d="M306,-2463.75C306,-2463.75 276,-2463.75 276,-2463.75 270,-2463.75 264,-2457.75 264,-2451.75 264,-2451.75 264,-2439.75 264,-2439.75 264,-2433.75 270,-2427.75 276,-2427.75 276,-2427.75 306,-2427.75 306,-2427.75 312,-2427.75 318,-2433.75 318,-2439.75 318,-2439.75 318,-2451.75 318,-2451.75 318,-2457.75 312,-2463.75 306,-2463.75"/>
<text xml:space="preserve" text-anchor="middle" x="291" y="-2441.88" font-family="Helvetica,sans-Serif" font-size="10.00">T</text>
</g>
<!-- node_0&#45;&gt;node_2 -->
<g id="edge2" class="edge">
<title>node_0&#45;&gt;node_2</title>
<path fill="none" stroke="#757575" d="M269.62,-2487.99C269.62,-2487.99 269.62,-2464.25 269.62,-2464.25"/>
<polygon fill="#757575" stroke="#757575" points="266.13,-2487.99 269.63,-2497.99 273.13,-2487.99 266.13,-2487.99"/>
</g>
<!-- node_3 -->
<g id="node4" class="node">
<title>node_3</title>
<path fill="#ffd54f" stroke="black" d="M206,-2391.75C206,-2391.75 176,-2391.75 176,-2391.75 170,-2391.75 164,-2385.75 164,-2379.75 164,-2379.75 164,-2367.75 164,-2367.75 164,-2361.75 170,-2355.75 176,-2355.75 176,-2355.75 206,-2355.75 206,-2355.75 212,-2355.75 218,-2361.75 218,-2367.75 218,-2367.75 218,-2379.75 218,-2379.75 218,-2385.75 212,-2391.75 206,-2391.75"/>
<text xml:space="preserve" text-anchor="middle" x="191" y="-2369.88" font-family="Helvetica,sans-Serif" font-size="10.00">Mean</text>
</g>
<!-- node_1&#45;&gt;node_3 -->
<g id="edge3" class="edge">
<title>node_1&#45;&gt;node_3</title>
<path fill="none" stroke="#757575" d="M191,-2416.07C191,-2416.07 191,-2392.16 191,-2392.16"/>
<polygon fill="#757575" stroke="#757575" points="187.5,-2416.07 191,-2426.07 194.5,-2416.07 187.5,-2416.07"/>
</g>
<!-- node_4 -->
<g id="node5" class="node">
<title>node_4</title>
<path fill="#ffd54f" stroke="black" d="M206,-2319.75C206,-2319.75 176,-2319.75 176,-2319.75 170,-2319.75 164,-2313.75 164,-2307.75 164,-2307.75 164,-2295.75 164,-2295.75 164,-2289.75 170,-2283.75 176,-2283.75 176,-2283.75 206,-2283.75 206,-2283.75 212,-2283.75 218,-2289.75 218,-2295.75 218,-2295.75 218,-2307.75 218,-2307.75 218,-2313.75 212,-2319.75 206,-2319.75"/>
<text xml:space="preserve" text-anchor="middle" x="191" y="-2297.88" font-family="Helvetica,sans-Serif" font-size="10.00">ReLU</text>
</g>
<!-- node_3&#45;&gt;node_4 -->
<g id="edge4" class="edge">
<title>node_3&#45;&gt;node_4</title>
<path fill="none" stroke="#757575" d="M191,-2344.07C191,-2344.07 191,-2320.16 191,-2320.16"/>
<polygon fill="#757575" stroke="#757575" points="187.5,-2344.07 191,-2354.07 194.5,-2344.07 187.5,-2344.07"/>
</g>
<!-- node_5 -->
<g id="node6" class="node">
<title>node_5</title>
<path fill="#ffd54f" stroke="black" d="M206,-2247.75C206,-2247.75 176,-2247.75 176,-2247.75 170,-2247.75 164,-2241.75 164,-2235.75 164,-2235.75 164,-2223.75 164,-2223.75 164,-2217.75 170,-2211.75 176,-2211.75 176,-2211.75 206,-2211.75 206,-2211.75 212,-2211.75 218,-2217.75 218,-2223.75 218,-2223.75 218,-2235.75 218,-2235.75 218,-2241.75 212,-2247.75 206,-2247.75"/>
<text xml:space="preserve" text-anchor="middle" x="191" y="-2225.88" font-family="Helvetica,sans-Serif" font-size="10.00">Add</text>
</g>
<!-- node_4&#45;&gt;node_5 -->
<g id="edge5" class="edge">
<title>node_4&#45;&gt;node_5</title>
<path fill="none" stroke="#757575" d="M191,-2272.07C191,-2272.07 191,-2248.16 191,-2248.16"/>
<polygon fill="#757575" stroke="#757575" points="187.5,-2272.07 191,-2282.07 194.5,-2272.07 187.5,-2272.07"/>
</g>
<!-- node_6 -->
<g id="node7" class="node">
<title>node_6</title>
<path fill="#81c784" stroke="black" d="M170,-2175.75C170,-2175.75 118,-2175.75 118,-2175.75 112,-2175.75 106,-2169.75 106,-2163.75 106,-2163.75 106,-2144.5 106,-2144.5 106,-2138.5 112,-2132.5 118,-2132.5 118,-2132.5 170,-2132.5 170,-2132.5 176,-2132.5 182,-2138.5 182,-2144.5 182,-2144.5 182,-2163.75 182,-2163.75 182,-2169.75 176,-2175.75 170,-2175.75"/>
<text xml:space="preserve" text-anchor="middle" x="144" y="-2162.25" font-family="Helvetica,sans-Serif" font-size="10.00">layer4.1.bn2</text>
<text xml:space="preserve" text-anchor="middle" x="144" y="-2151" font-family="Helvetica,sans-Serif" font-size="10.00">BatchNorm2d</text>
<text xml:space="preserve" text-anchor="middle" x="144" y="-2139.75" font-family="Helvetica,sans-Serif" font-size="10.00">512 → 512</text>
</g>
<!-- node_5&#45;&gt;node_6 -->
<g id="edge6" class="edge">
<title>node_5&#45;&gt;node_6</title>
<path fill="none" stroke="#757575" d="M173,-2199.93C173,-2199.93 173,-2176.03 173,-2176.03"/>
<polygon fill="#757575" stroke="#757575" points="169.5,-2199.93 173,-2209.93 176.5,-2199.93 169.5,-2199.93"/>
</g>
<!-- node_7 -->
<g id="node8" class="node">
<title>node_7</title>
<path fill="#ffd54f" stroke="black" d="M206,-1783.12C206,-1783.12 176,-1783.12 176,-1783.12 170,-1783.12 164,-1777.12 164,-1771.12 164,-1771.12 164,-1759.12 164,-1759.12 164,-1753.12 170,-1747.12 176,-1747.12 176,-1747.12 206,-1747.12 206,-1747.12 212,-1747.12 218,-1753.12 218,-1759.12 218,-1759.12 218,-1771.12 218,-1771.12 218,-1777.12 212,-1783.12 206,-1783.12"/>
<text xml:space="preserve" text-anchor="middle" x="191" y="-1761.25" font-family="Helvetica,sans-Serif" font-size="10.00">ReLU</text>
</g>
<!-- node_5&#45;&gt;node_7 -->
<g id="edge7" class="edge">
<title>node_5&#45;&gt;node_7</title>
<path fill="none" stroke="#757575" d="M200.44,-2200.02C200.44,-2200.02 200.44,-1783.46 200.44,-1783.46"/>
<polygon fill="#757575" stroke="#757575" points="196.94,-2200.02 200.44,-2210.02 203.94,-2200.02 196.94,-2200.02"/>
</g>
<!-- node_66 -->
<g id="node67" class="node">
<title>node_66</title>
<path fill="#4a90d9" stroke="black" d="M170.88,-2096.5C170.88,-2096.5 115.12,-2096.5 115.12,-2096.5 109.12,-2096.5 103.12,-2090.5 103.12,-2084.5 103.12,-2084.5 103.12,-2065.25 103.12,-2065.25 103.12,-2059.25 109.12,-2053.25 115.12,-2053.25 115.12,-2053.25 170.88,-2053.25 170.88,-2053.25 176.88,-2053.25 182.88,-2059.25 182.88,-2065.25 182.88,-2065.25 182.88,-2084.5 182.88,-2084.5 182.88,-2090.5 176.88,-2096.5 170.88,-2096.5"/>
<text xml:space="preserve" text-anchor="middle" x="143" y="-2083" font-family="Helvetica,sans-Serif" font-size="10.00">layer4.1.conv2</text>
<text xml:space="preserve" text-anchor="middle" x="143" y="-2071.75" font-family="Helvetica,sans-Serif" font-size="10.00">Conv2d</text>
<text xml:space="preserve" text-anchor="middle" x="143" y="-2060.5" font-family="Helvetica,sans-Serif" font-size="10.00">512 → 512</text>
</g>
<!-- node_6&#45;&gt;node_66 -->
<g id="edge74" class="edge">
<title>node_6&#45;&gt;node_66</title>
<path fill="none" stroke="#757575" d="M144,-2120.54C144,-2120.54 144,-2096.83 144,-2096.83"/>
<polygon fill="#757575" stroke="#757575" points="140.5,-2120.54 144,-2130.54 147.5,-2120.54 140.5,-2120.54"/>
</g>
<!-- node_8 -->
<g id="node9" class="node">
<title>node_8</title>
<path fill="#ffd54f" stroke="black" d="M206,-1703.88C206,-1703.88 176,-1703.88 176,-1703.88 170,-1703.88 164,-1697.88 164,-1691.88 164,-1691.88 164,-1679.88 164,-1679.88 164,-1673.88 170,-1667.88 176,-1667.88 176,-1667.88 206,-1667.88 206,-1667.88 212,-1667.88 218,-1673.88 218,-1679.88 218,-1679.88 218,-1691.88 218,-1691.88 218,-1697.88 212,-1703.88 206,-1703.88"/>
<text xml:space="preserve" text-anchor="middle" x="191" y="-1682" font-family="Helvetica,sans-Serif" font-size="10.00">Add</text>
</g>
<!-- node_7&#45;&gt;node_8 -->
<g id="edge9" class="edge">
<title>node_7&#45;&gt;node_8</title>
<path fill="none" stroke="#757575" d="M191,-1735.23C191,-1735.23 191,-1704.16 191,-1704.16"/>
<polygon fill="#757575" stroke="#757575" points="187.5,-1735.23 191,-1745.23 194.5,-1735.23 187.5,-1735.23"/>
</g>
<!-- node_9 -->
<g id="node10" class="node">
<title>node_9</title>
<path fill="#81c784" stroke="black" d="M204,-1628.25C204,-1628.25 152,-1628.25 152,-1628.25 146,-1628.25 140,-1622.25 140,-1616.25 140,-1616.25 140,-1597 140,-1597 140,-1591 146,-1585 152,-1585 152,-1585 204,-1585 204,-1585 210,-1585 216,-1591 216,-1597 216,-1597 216,-1616.25 216,-1616.25 216,-1622.25 210,-1628.25 204,-1628.25"/>
<text xml:space="preserve" text-anchor="middle" x="178" y="-1614.75" font-family="Helvetica,sans-Serif" font-size="10.00">layer4.0.bn2</text>
<text xml:space="preserve" text-anchor="middle" x="178" y="-1603.5" font-family="Helvetica,sans-Serif" font-size="10.00">BatchNorm2d</text>
<text xml:space="preserve" text-anchor="middle" x="178" y="-1592.25" font-family="Helvetica,sans-Serif" font-size="10.00">512 → 512</text>
</g>
<!-- node_8&#45;&gt;node_9 -->
<g id="edge10" class="edge">
<title>node_8&#45;&gt;node_9</title>
<path fill="none" stroke="#757575" d="M190,-1655.98C190,-1655.98 190,-1628.57 190,-1628.57"/>
<polygon fill="#757575" stroke="#757575" points="186.5,-1655.98 190,-1665.98 193.5,-1655.98 186.5,-1655.98"/>
</g>
<!-- node_10 -->
<g id="node11" class="node">
<title>node_10</title>
<path fill="#81c784" stroke="black" d="M358.25,-1786.75C358.25,-1786.75 265.75,-1786.75 265.75,-1786.75 259.75,-1786.75 253.75,-1780.75 253.75,-1774.75 253.75,-1774.75 253.75,-1755.5 253.75,-1755.5 253.75,-1749.5 259.75,-1743.5 265.75,-1743.5 265.75,-1743.5 358.25,-1743.5 358.25,-1743.5 364.25,-1743.5 370.25,-1749.5 370.25,-1755.5 370.25,-1755.5 370.25,-1774.75 370.25,-1774.75 370.25,-1780.75 364.25,-1786.75 358.25,-1786.75"/>
<text xml:space="preserve" text-anchor="middle" x="312" y="-1773.25" font-family="Helvetica,sans-Serif" font-size="10.00">layer4.0.downsample.1</text>
<text xml:space="preserve" text-anchor="middle" x="312" y="-1762" font-family="Helvetica,sans-Serif" font-size="10.00">BatchNorm2d</text>
<text xml:space="preserve" text-anchor="middle" x="312" y="-1750.75" font-family="Helvetica,sans-Serif" font-size="10.00">512 → 512</text>
</g>
<!-- node_10&#45;&gt;node_8 -->
<g id="edge11" class="edge">
<title>node_10&#45;&gt;node_8</title>
<path fill="none" stroke="#757575" d="M253.46,-1765C236.64,-1765 222.75,-1765 222.75,-1765 222.75,-1765 222.75,-1686 222.75,-1686 222.75,-1686 222.31,-1686 222.31,-1686"/>
<polygon fill="#757575" stroke="#757575" points="229.85,-1682.5 219.85,-1686 229.85,-1689.5 229.85,-1682.5"/>
</g>
<!-- node_11 -->
<g id="node12" class="node">
<title>node_11</title>
<path fill="#4a90d9" stroke="black" d="M358.25,-1707.5C358.25,-1707.5 265.75,-1707.5 265.75,-1707.5 259.75,-1707.5 253.75,-1701.5 253.75,-1695.5 253.75,-1695.5 253.75,-1676.25 253.75,-1676.25 253.75,-1670.25 259.75,-1664.25 265.75,-1664.25 265.75,-1664.25 358.25,-1664.25 358.25,-1664.25 364.25,-1664.25 370.25,-1670.25 370.25,-1676.25 370.25,-1676.25 370.25,-1695.5 370.25,-1695.5 370.25,-1701.5 364.25,-1707.5 358.25,-1707.5"/>
<text xml:space="preserve" text-anchor="middle" x="312" y="-1694" font-family="Helvetica,sans-Serif" font-size="10.00">layer4.0.downsample.0</text>
<text xml:space="preserve" text-anchor="middle" x="312" y="-1682.75" font-family="Helvetica,sans-Serif" font-size="10.00">Conv2d</text>
<text xml:space="preserve" text-anchor="middle" x="312" y="-1671.5" font-family="Helvetica,sans-Serif" font-size="10.00">256 → 512</text>
</g>
<!-- node_10&#45;&gt;node_11 -->
<g id="edge12" class="edge">
<title>node_10&#45;&gt;node_11</title>
<path fill="none" stroke="#757575" d="M312,-1731.54C312,-1731.54 312,-1707.83 312,-1707.83"/>
<polygon fill="#757575" stroke="#757575" points="308.5,-1731.54 312,-1741.54 315.5,-1731.54 308.5,-1731.54"/>
</g>
<!-- node_12 -->
<g id="node13" class="node">
<title>node_12</title>
<path fill="#ffd54f" stroke="black" d="M310,-1624.62C310,-1624.62 280,-1624.62 280,-1624.62 274,-1624.62 268,-1618.62 268,-1612.62 268,-1612.62 268,-1600.62 268,-1600.62 268,-1594.62 274,-1588.62 280,-1588.62 280,-1588.62 310,-1588.62 310,-1588.62 316,-1588.62 322,-1594.62 322,-1600.62 322,-1600.62 322,-1612.62 322,-1612.62 322,-1618.62 316,-1624.62 310,-1624.62"/>
<text xml:space="preserve" text-anchor="middle" x="295" y="-1602.75" font-family="Helvetica,sans-Serif" font-size="10.00">ReLU</text>
</g>
<!-- node_11&#45;&gt;node_12 -->
<g id="edge13" class="edge">
<title>node_11&#45;&gt;node_12</title>
<path fill="none" stroke="#757575" d="M295,-1652.29C295,-1652.29 295,-1625.1 295,-1625.1"/>
<polygon fill="#757575" stroke="#757575" points="291.5,-1652.29 295,-1662.29 298.5,-1652.29 291.5,-1652.29"/>
</g>
<!-- node_13 -->
<g id="node14" class="node">
<title>node_13</title>
<path fill="#ffd54f" stroke="black" d="M310,-1545.38C310,-1545.38 280,-1545.38 280,-1545.38 274,-1545.38 268,-1539.38 268,-1533.38 268,-1533.38 268,-1521.38 268,-1521.38 268,-1515.38 274,-1509.38 280,-1509.38 280,-1509.38 310,-1509.38 310,-1509.38 316,-1509.38 322,-1515.38 322,-1521.38 322,-1521.38 322,-1533.38 322,-1533.38 322,-1539.38 316,-1545.38 310,-1545.38"/>
<text xml:space="preserve" text-anchor="middle" x="295" y="-1523.5" font-family="Helvetica,sans-Serif" font-size="10.00">Add</text>
</g>
<!-- node_12&#45;&gt;node_13 -->
<g id="edge15" class="edge">
<title>node_12&#45;&gt;node_13</title>
<path fill="none" stroke="#757575" d="M304,-1576.73C304,-1576.73 304,-1545.66 304,-1545.66"/>
<polygon fill="#757575" stroke="#757575" points="300.5,-1576.73 304,-1586.73 307.5,-1576.73 300.5,-1576.73"/>
</g>
<!-- node_65 -->
<g id="node66" class="node">
<title>node_65</title>
<path fill="#4a90d9" stroke="black" d="M135.88,-1549C135.88,-1549 80.12,-1549 80.12,-1549 74.12,-1549 68.12,-1543 68.12,-1537 68.12,-1537 68.12,-1517.75 68.12,-1517.75 68.12,-1511.75 74.12,-1505.75 80.12,-1505.75 80.12,-1505.75 135.88,-1505.75 135.88,-1505.75 141.88,-1505.75 147.88,-1511.75 147.88,-1517.75 147.88,-1517.75 147.88,-1537 147.88,-1537 147.88,-1543 141.88,-1549 135.88,-1549"/>
<text xml:space="preserve" text-anchor="middle" x="108" y="-1535.5" font-family="Helvetica,sans-Serif" font-size="10.00">layer4.0.conv1</text>
<text xml:space="preserve" text-anchor="middle" x="108" y="-1524.25" font-family="Helvetica,sans-Serif" font-size="10.00">Conv2d</text>
<text xml:space="preserve" text-anchor="middle" x="108" y="-1513" font-family="Helvetica,sans-Serif" font-size="10.00">256 → 512</text>
</g>
<!-- node_12&#45;&gt;node_65 -->
<g id="edge14" class="edge">
<title>node_12&#45;&gt;node_65</title>
<path fill="none" stroke="#757575" d="M286,-1588.2C286,-1577.86 286,-1567 286,-1567 286,-1567 143.94,-1567 143.94,-1567 143.94,-1567 143.94,-1560.56 143.94,-1560.56"/>
<polygon fill="#757575" stroke="#757575" points="147.44,-1560.56 143.94,-1550.56 140.44,-1560.56 147.44,-1560.56"/>
</g>
<!-- node_14 -->
<g id="node15" class="node">
<title>node_14</title>
<path fill="#81c784" stroke="black" d="M270,-1469.75C270,-1469.75 218,-1469.75 218,-1469.75 212,-1469.75 206,-1463.75 206,-1457.75 206,-1457.75 206,-1438.5 206,-1438.5 206,-1432.5 212,-1426.5 218,-1426.5 218,-1426.5 270,-1426.5 270,-1426.5 276,-1426.5 282,-1432.5 282,-1438.5 282,-1438.5 282,-1457.75 282,-1457.75 282,-1463.75 276,-1469.75 270,-1469.75"/>
<text xml:space="preserve" text-anchor="middle" x="244" y="-1456.25" font-family="Helvetica,sans-Serif" font-size="10.00">layer3.1.bn2</text>
<text xml:space="preserve" text-anchor="middle" x="244" y="-1445" font-family="Helvetica,sans-Serif" font-size="10.00">BatchNorm2d</text>
<text xml:space="preserve" text-anchor="middle" x="244" y="-1433.75" font-family="Helvetica,sans-Serif" font-size="10.00">256 → 256</text>
</g>
<!-- node_13&#45;&gt;node_14 -->
<g id="edge16" class="edge">
<title>node_13&#45;&gt;node_14</title>
<path fill="none" stroke="#757575" d="M275,-1497.48C275,-1497.48 275,-1470.07 275,-1470.07"/>
<polygon fill="#757575" stroke="#757575" points="271.5,-1497.48 275,-1507.48 278.5,-1497.48 271.5,-1497.48"/>
</g>
<!-- node_15 -->
<g id="node16" class="node">
<title>node_15</title>
<path fill="#ffd54f" stroke="black" d="M360,-1466.12C360,-1466.12 330,-1466.12 330,-1466.12 324,-1466.12 318,-1460.12 318,-1454.12 318,-1454.12 318,-1442.12 318,-1442.12 318,-1436.12 324,-1430.12 330,-1430.12 330,-1430.12 360,-1430.12 360,-1430.12 366,-1430.12 372,-1436.12 372,-1442.12 372,-1442.12 372,-1454.12 372,-1454.12 372,-1460.12 366,-1466.12 360,-1466.12"/>
<text xml:space="preserve" text-anchor="middle" x="345" y="-1444.25" font-family="Helvetica,sans-Serif" font-size="10.00">ReLU</text>
</g>
<!-- node_13&#45;&gt;node_15 -->
<g id="edge17" class="edge">
<title>node_13&#45;&gt;node_15</title>
<path fill="none" stroke="#757575" d="M301,-1497.45C301,-1497.45 301,-1448 301,-1448 301,-1448 308.69,-1448 317.63,-1448"/>
<polygon fill="#757575" stroke="#757575" points="297.5,-1497.45 301,-1507.45 304.5,-1497.45 297.5,-1497.45"/>
</g>
<!-- node_58 -->
<g id="node59" class="node">
<title>node_58</title>
<path fill="#4a90d9" stroke="black" d="M271.88,-1390.5C271.88,-1390.5 216.12,-1390.5 216.12,-1390.5 210.12,-1390.5 204.12,-1384.5 204.12,-1378.5 204.12,-1378.5 204.12,-1359.25 204.12,-1359.25 204.12,-1353.25 210.12,-1347.25 216.12,-1347.25 216.12,-1347.25 271.88,-1347.25 271.88,-1347.25 277.88,-1347.25 283.88,-1353.25 283.88,-1359.25 283.88,-1359.25 283.88,-1378.5 283.88,-1378.5 283.88,-1384.5 277.88,-1390.5 271.88,-1390.5"/>
<text xml:space="preserve" text-anchor="middle" x="244" y="-1377" font-family="Helvetica,sans-Serif" font-size="10.00">layer3.1.conv2</text>
<text xml:space="preserve" text-anchor="middle" x="244" y="-1365.75" font-family="Helvetica,sans-Serif" font-size="10.00">Conv2d</text>
<text xml:space="preserve" text-anchor="middle" x="244" y="-1354.5" font-family="Helvetica,sans-Serif" font-size="10.00">256 → 256</text>
</g>
<!-- node_14&#45;&gt;node_58 -->
<g id="edge66" class="edge">
<title>node_14&#45;&gt;node_58</title>
<path fill="none" stroke="#757575" d="M244,-1414.54C244,-1414.54 244,-1390.83 244,-1390.83"/>
<polygon fill="#757575" stroke="#757575" points="240.5,-1414.54 244,-1424.54 247.5,-1414.54 240.5,-1414.54"/>
</g>
<!-- node_16 -->
<g id="node17" class="node">
<title>node_16</title>
<path fill="#ffd54f" stroke="black" d="M449,-1386.88C449,-1386.88 419,-1386.88 419,-1386.88 413,-1386.88 407,-1380.88 407,-1374.88 407,-1374.88 407,-1362.88 407,-1362.88 407,-1356.88 413,-1350.88 419,-1350.88 419,-1350.88 449,-1350.88 449,-1350.88 455,-1350.88 461,-1356.88 461,-1362.88 461,-1362.88 461,-1374.88 461,-1374.88 461,-1380.88 455,-1386.88 449,-1386.88"/>
<text xml:space="preserve" text-anchor="middle" x="434" y="-1365" font-family="Helvetica,sans-Serif" font-size="10.00">Add</text>
</g>
<!-- node_15&#45;&gt;node_16 -->
<g id="edge19" class="edge">
<title>node_15&#45;&gt;node_16</title>
<path fill="none" stroke="#757575" d="M350.44,-1418.26C350.44,-1418.26 350.44,-1369 350.44,-1369 350.44,-1369 382.27,-1369 406.64,-1369"/>
<polygon fill="#757575" stroke="#757575" points="346.94,-1418.26 350.44,-1428.26 353.94,-1418.26 346.94,-1418.26"/>
</g>
<!-- node_61 -->
<g id="node62" class="node">
<title>node_61</title>
<path fill="#4a90d9" stroke="black" d="M316.88,-1152.75C316.88,-1152.75 261.12,-1152.75 261.12,-1152.75 255.12,-1152.75 249.12,-1146.75 249.12,-1140.75 249.12,-1140.75 249.12,-1121.5 249.12,-1121.5 249.12,-1115.5 255.12,-1109.5 261.12,-1109.5 261.12,-1109.5 316.88,-1109.5 316.88,-1109.5 322.88,-1109.5 328.88,-1115.5 328.88,-1121.5 328.88,-1121.5 328.88,-1140.75 328.88,-1140.75 328.88,-1146.75 322.88,-1152.75 316.88,-1152.75"/>
<text xml:space="preserve" text-anchor="middle" x="289" y="-1139.25" font-family="Helvetica,sans-Serif" font-size="10.00">layer3.1.conv1</text>
<text xml:space="preserve" text-anchor="middle" x="289" y="-1128" font-family="Helvetica,sans-Serif" font-size="10.00">Conv2d</text>
<text xml:space="preserve" text-anchor="middle" x="289" y="-1116.75" font-family="Helvetica,sans-Serif" font-size="10.00">256 → 256</text>
</g>
<!-- node_15&#45;&gt;node_61 -->
<g id="edge18" class="edge">
<title>node_15&#45;&gt;node_61</title>
<path fill="none" stroke="#757575" d="M323.44,-1429.71C323.44,-1429.71 323.44,-1164.4 323.44,-1164.4"/>
<polygon fill="#757575" stroke="#757575" points="326.94,-1164.4 323.44,-1154.4 319.94,-1164.4 326.94,-1164.4"/>
</g>
<!-- node_17 -->
<g id="node18" class="node">
<title>node_17</title>
<path fill="#81c784" stroke="black" d="M460,-1311.25C460,-1311.25 408,-1311.25 408,-1311.25 402,-1311.25 396,-1305.25 396,-1299.25 396,-1299.25 396,-1280 396,-1280 396,-1274 402,-1268 408,-1268 408,-1268 460,-1268 460,-1268 466,-1268 472,-1274 472,-1280 472,-1280 472,-1299.25 472,-1299.25 472,-1305.25 466,-1311.25 460,-1311.25"/>
<text xml:space="preserve" text-anchor="middle" x="434" y="-1297.75" font-family="Helvetica,sans-Serif" font-size="10.00">layer3.0.bn2</text>
<text xml:space="preserve" text-anchor="middle" x="434" y="-1286.5" font-family="Helvetica,sans-Serif" font-size="10.00">BatchNorm2d</text>
<text xml:space="preserve" text-anchor="middle" x="434" y="-1275.25" font-family="Helvetica,sans-Serif" font-size="10.00">256 → 256</text>
</g>
<!-- node_16&#45;&gt;node_17 -->
<g id="edge20" class="edge">
<title>node_16&#45;&gt;node_17</title>
<path fill="none" stroke="#757575" d="M434,-1338.98C434,-1338.98 434,-1311.57 434,-1311.57"/>
<polygon fill="#757575" stroke="#757575" points="430.5,-1338.98 434,-1348.98 437.5,-1338.98 430.5,-1338.98"/>
</g>
<!-- node_18 -->
<g id="node19" class="node">
<title>node_18</title>
<path fill="#81c784" stroke="black" d="M613.25,-1311.25C613.25,-1311.25 520.75,-1311.25 520.75,-1311.25 514.75,-1311.25 508.75,-1305.25 508.75,-1299.25 508.75,-1299.25 508.75,-1280 508.75,-1280 508.75,-1274 514.75,-1268 520.75,-1268 520.75,-1268 613.25,-1268 613.25,-1268 619.25,-1268 625.25,-1274 625.25,-1280 625.25,-1280 625.25,-1299.25 625.25,-1299.25 625.25,-1305.25 619.25,-1311.25 613.25,-1311.25"/>
<text xml:space="preserve" text-anchor="middle" x="567" y="-1297.75" font-family="Helvetica,sans-Serif" font-size="10.00">layer3.0.downsample.1</text>
<text xml:space="preserve" text-anchor="middle" x="567" y="-1286.5" font-family="Helvetica,sans-Serif" font-size="10.00">BatchNorm2d</text>
<text xml:space="preserve" text-anchor="middle" x="567" y="-1275.25" font-family="Helvetica,sans-Serif" font-size="10.00">256 → 256</text>
</g>
<!-- node_16&#45;&gt;node_18 -->
<g id="edge21" class="edge">
<title>node_16&#45;&gt;node_18</title>
<path fill="none" stroke="#757575" d="M472.75,-1369C472.75,-1369 567,-1369 567,-1369 567,-1369 567,-1335.22 567,-1311.74"/>
<polygon fill="#757575" stroke="#757575" points="472.75,-1365.5 462.75,-1369 472.75,-1372.5 472.75,-1365.5"/>
</g>
<!-- node_54 -->
<g id="node55" class="node">
<title>node_54</title>
<path fill="#4a90d9" stroke="black" d="M461.88,-1232C461.88,-1232 406.12,-1232 406.12,-1232 400.12,-1232 394.12,-1226 394.12,-1220 394.12,-1220 394.12,-1200.75 394.12,-1200.75 394.12,-1194.75 400.12,-1188.75 406.12,-1188.75 406.12,-1188.75 461.88,-1188.75 461.88,-1188.75 467.88,-1188.75 473.88,-1194.75 473.88,-1200.75 473.88,-1200.75 473.88,-1220 473.88,-1220 473.88,-1226 467.88,-1232 461.88,-1232"/>
<text xml:space="preserve" text-anchor="middle" x="434" y="-1218.5" font-family="Helvetica,sans-Serif" font-size="10.00">layer3.0.conv2</text>
<text xml:space="preserve" text-anchor="middle" x="434" y="-1207.25" font-family="Helvetica,sans-Serif" font-size="10.00">Conv2d</text>
<text xml:space="preserve" text-anchor="middle" x="434" y="-1196" font-family="Helvetica,sans-Serif" font-size="10.00">256 → 256</text>
</g>
<!-- node_17&#45;&gt;node_54 -->
<g id="edge62" class="edge">
<title>node_17&#45;&gt;node_54</title>
<path fill="none" stroke="#757575" d="M434,-1256.04C434,-1256.04 434,-1232.33 434,-1232.33"/>
<polygon fill="#757575" stroke="#757575" points="430.5,-1256.04 434,-1266.04 437.5,-1256.04 430.5,-1256.04"/>
</g>
<!-- node_19 -->
<g id="node20" class="node">
<title>node_19</title>
<path fill="#4a90d9" stroke="black" d="M614.25,-1232C614.25,-1232 521.75,-1232 521.75,-1232 515.75,-1232 509.75,-1226 509.75,-1220 509.75,-1220 509.75,-1200.75 509.75,-1200.75 509.75,-1194.75 515.75,-1188.75 521.75,-1188.75 521.75,-1188.75 614.25,-1188.75 614.25,-1188.75 620.25,-1188.75 626.25,-1194.75 626.25,-1200.75 626.25,-1200.75 626.25,-1220 626.25,-1220 626.25,-1226 620.25,-1232 614.25,-1232"/>
<text xml:space="preserve" text-anchor="middle" x="568" y="-1218.5" font-family="Helvetica,sans-Serif" font-size="10.00">layer3.0.downsample.0</text>
<text xml:space="preserve" text-anchor="middle" x="568" y="-1207.25" font-family="Helvetica,sans-Serif" font-size="10.00">Conv2d</text>
<text xml:space="preserve" text-anchor="middle" x="568" y="-1196" font-family="Helvetica,sans-Serif" font-size="10.00">128 → 256</text>
</g>
<!-- node_18&#45;&gt;node_19 -->
<g id="edge22" class="edge">
<title>node_18&#45;&gt;node_19</title>
<path fill="none" stroke="#757575" d="M567.5,-1256.04C567.5,-1256.04 567.5,-1232.33 567.5,-1232.33"/>
<polygon fill="#757575" stroke="#757575" points="564,-1256.04 567.5,-1266.04 571,-1256.04 564,-1256.04"/>
</g>
<!-- node_20 -->
<g id="node21" class="node">
<title>node_20</title>
<path fill="#ffd54f" stroke="black" d="M583,-1149.12C583,-1149.12 553,-1149.12 553,-1149.12 547,-1149.12 541,-1143.12 541,-1137.12 541,-1137.12 541,-1125.12 541,-1125.12 541,-1119.12 547,-1113.12 553,-1113.12 553,-1113.12 583,-1113.12 583,-1113.12 589,-1113.12 595,-1119.12 595,-1125.12 595,-1125.12 595,-1137.12 595,-1137.12 595,-1143.12 589,-1149.12 583,-1149.12"/>
<text xml:space="preserve" text-anchor="middle" x="568" y="-1127.25" font-family="Helvetica,sans-Serif" font-size="10.00">ReLU</text>
</g>
<!-- node_19&#45;&gt;node_20 -->
<g id="edge23" class="edge">
<title>node_19&#45;&gt;node_20</title>
<path fill="none" stroke="#757575" d="M568,-1176.79C568,-1176.79 568,-1149.6 568,-1149.6"/>
<polygon fill="#757575" stroke="#757575" points="564.5,-1176.79 568,-1186.79 571.5,-1176.79 564.5,-1176.79"/>
</g>
<!-- node_21 -->
<g id="node22" class="node">
<title>node_21</title>
<path fill="#ffd54f" stroke="black" d="M624,-1069.88C624,-1069.88 594,-1069.88 594,-1069.88 588,-1069.88 582,-1063.88 582,-1057.88 582,-1057.88 582,-1045.88 582,-1045.88 582,-1039.88 588,-1033.88 594,-1033.88 594,-1033.88 624,-1033.88 624,-1033.88 630,-1033.88 636,-1039.88 636,-1045.88 636,-1045.88 636,-1057.88 636,-1057.88 636,-1063.88 630,-1069.88 624,-1069.88"/>
<text xml:space="preserve" text-anchor="middle" x="609" y="-1048" font-family="Helvetica,sans-Serif" font-size="10.00">Add</text>
</g>
<!-- node_20&#45;&gt;node_21 -->
<g id="edge25" class="edge">
<title>node_20&#45;&gt;node_21</title>
<path fill="none" stroke="#757575" d="M588.5,-1101.23C588.5,-1101.23 588.5,-1070.16 588.5,-1070.16"/>
<polygon fill="#757575" stroke="#757575" points="585,-1101.23 588.5,-1111.23 592,-1101.23 585,-1101.23"/>
</g>
<!-- node_57 -->
<g id="node58" class="node">
<title>node_57</title>
<path fill="#4a90d9" stroke="black" d="M491.88,-994.25C491.88,-994.25 436.12,-994.25 436.12,-994.25 430.12,-994.25 424.12,-988.25 424.12,-982.25 424.12,-982.25 424.12,-963 424.12,-963 424.12,-957 430.12,-951 436.12,-951 436.12,-951 491.88,-951 491.88,-951 497.88,-951 503.88,-957 503.88,-963 503.88,-963 503.88,-982.25 503.88,-982.25 503.88,-988.25 497.88,-994.25 491.88,-994.25"/>
<text xml:space="preserve" text-anchor="middle" x="464" y="-980.75" font-family="Helvetica,sans-Serif" font-size="10.00">layer3.0.conv1</text>
<text xml:space="preserve" text-anchor="middle" x="464" y="-969.5" font-family="Helvetica,sans-Serif" font-size="10.00">Conv2d</text>
<text xml:space="preserve" text-anchor="middle" x="464" y="-958.25" font-family="Helvetica,sans-Serif" font-size="10.00">128 → 256</text>
</g>
<!-- node_20&#45;&gt;node_57 -->
<g id="edge24" class="edge">
<title>node_20&#45;&gt;node_57</title>
<path fill="none" stroke="#757575" d="M547.06,-1112.68C547.06,-1070.96 547.06,-973 547.06,-973 547.06,-973 515.58,-973 515.58,-973"/>
<polygon fill="#757575" stroke="#757575" points="515.59,-969.5 505.58,-973 515.58,-976.5 515.59,-969.5"/>
</g>
<!-- node_22 -->
<g id="node23" class="node">
<title>node_22</title>
<path fill="#81c784" stroke="black" d="M619,-994.25C619,-994.25 567,-994.25 567,-994.25 561,-994.25 555,-988.25 555,-982.25 555,-982.25 555,-963 555,-963 555,-957 561,-951 567,-951 567,-951 619,-951 619,-951 625,-951 631,-957 631,-963 631,-963 631,-982.25 631,-982.25 631,-988.25 625,-994.25 619,-994.25"/>
<text xml:space="preserve" text-anchor="middle" x="593" y="-980.75" font-family="Helvetica,sans-Serif" font-size="10.00">layer2.1.bn2</text>
<text xml:space="preserve" text-anchor="middle" x="593" y="-969.5" font-family="Helvetica,sans-Serif" font-size="10.00">BatchNorm2d</text>
<text xml:space="preserve" text-anchor="middle" x="593" y="-958.25" font-family="Helvetica,sans-Serif" font-size="10.00">128 → 128</text>
</g>
<!-- node_21&#45;&gt;node_22 -->
<g id="edge26" class="edge">
<title>node_21&#45;&gt;node_22</title>
<path fill="none" stroke="#757575" d="M606.5,-1021.98C606.5,-1021.98 606.5,-994.57 606.5,-994.57"/>
<polygon fill="#757575" stroke="#757575" points="603,-1021.98 606.5,-1031.98 610,-1021.98 603,-1021.98"/>
</g>
<!-- node_23 -->
<g id="node24" class="node">
<title>node_23</title>
<path fill="#ffd54f" stroke="black" d="M709,-990.62C709,-990.62 679,-990.62 679,-990.62 673,-990.62 667,-984.62 667,-978.62 667,-978.62 667,-966.62 667,-966.62 667,-960.62 673,-954.62 679,-954.62 679,-954.62 709,-954.62 709,-954.62 715,-954.62 721,-960.62 721,-966.62 721,-966.62 721,-978.62 721,-978.62 721,-984.62 715,-990.62 709,-990.62"/>
<text xml:space="preserve" text-anchor="middle" x="694" y="-968.75" font-family="Helvetica,sans-Serif" font-size="10.00">ReLU</text>
</g>
<!-- node_21&#45;&gt;node_23 -->
<g id="edge27" class="edge">
<title>node_21&#45;&gt;node_23</title>
<path fill="none" stroke="#757575" d="M647.88,-1052C647.88,-1052 694,-1052 694,-1052 694,-1052 694,-1014.48 694,-991.03"/>
<polygon fill="#757575" stroke="#757575" points="647.88,-1048.5 637.88,-1052 647.88,-1055.5 647.88,-1048.5"/>
</g>
<!-- node_50 -->
<g id="node51" class="node">
<title>node_50</title>
<path fill="#4a90d9" stroke="black" d="M620.88,-915C620.88,-915 565.12,-915 565.12,-915 559.12,-915 553.12,-909 553.12,-903 553.12,-903 553.12,-883.75 553.12,-883.75 553.12,-877.75 559.12,-871.75 565.12,-871.75 565.12,-871.75 620.88,-871.75 620.88,-871.75 626.88,-871.75 632.88,-877.75 632.88,-883.75 632.88,-883.75 632.88,-903 632.88,-903 632.88,-909 626.88,-915 620.88,-915"/>
<text xml:space="preserve" text-anchor="middle" x="593" y="-901.5" font-family="Helvetica,sans-Serif" font-size="10.00">layer2.1.conv2</text>
<text xml:space="preserve" text-anchor="middle" x="593" y="-890.25" font-family="Helvetica,sans-Serif" font-size="10.00">Conv2d</text>
<text xml:space="preserve" text-anchor="middle" x="593" y="-879" font-family="Helvetica,sans-Serif" font-size="10.00">128 → 128</text>
</g>
<!-- node_22&#45;&gt;node_50 -->
<g id="edge58" class="edge">
<title>node_22&#45;&gt;node_50</title>
<path fill="none" stroke="#757575" d="M593,-939.04C593,-939.04 593,-915.33 593,-915.33"/>
<polygon fill="#757575" stroke="#757575" points="589.5,-939.04 593,-949.04 596.5,-939.04 589.5,-939.04"/>
</g>
<!-- node_24 -->
<g id="node25" class="node">
<title>node_24</title>
<path fill="#ffd54f" stroke="black" d="M798,-911.38C798,-911.38 768,-911.38 768,-911.38 762,-911.38 756,-905.38 756,-899.38 756,-899.38 756,-887.38 756,-887.38 756,-881.38 762,-875.38 768,-875.38 768,-875.38 798,-875.38 798,-875.38 804,-875.38 810,-881.38 810,-887.38 810,-887.38 810,-899.38 810,-899.38 810,-905.38 804,-911.38 798,-911.38"/>
<text xml:space="preserve" text-anchor="middle" x="783" y="-889.5" font-family="Helvetica,sans-Serif" font-size="10.00">Add</text>
</g>
<!-- node_23&#45;&gt;node_24 -->
<g id="edge29" class="edge">
<title>node_23&#45;&gt;node_24</title>
<path fill="none" stroke="#757575" d="M699.44,-942.64C699.44,-942.64 699.44,-893 699.44,-893 699.44,-893 731.27,-893 755.64,-893"/>
<polygon fill="#757575" stroke="#757575" points="695.94,-942.64 699.44,-952.64 702.94,-942.64 695.94,-942.64"/>
</g>
<!-- node_53 -->
<g id="node54" class="node">
<title>node_53</title>
<path fill="#4a90d9" stroke="black" d="M665.88,-677.25C665.88,-677.25 610.12,-677.25 610.12,-677.25 604.12,-677.25 598.12,-671.25 598.12,-665.25 598.12,-665.25 598.12,-646 598.12,-646 598.12,-640 604.12,-634 610.12,-634 610.12,-634 665.88,-634 665.88,-634 671.88,-634 677.88,-640 677.88,-646 677.88,-646 677.88,-665.25 677.88,-665.25 677.88,-671.25 671.88,-677.25 665.88,-677.25"/>
<text xml:space="preserve" text-anchor="middle" x="638" y="-663.75" font-family="Helvetica,sans-Serif" font-size="10.00">layer2.1.conv1</text>
<text xml:space="preserve" text-anchor="middle" x="638" y="-652.5" font-family="Helvetica,sans-Serif" font-size="10.00">Conv2d</text>
<text xml:space="preserve" text-anchor="middle" x="638" y="-641.25" font-family="Helvetica,sans-Serif" font-size="10.00">128 → 128</text>
</g>
<!-- node_23&#45;&gt;node_53 -->
<g id="edge28" class="edge">
<title>node_23&#45;&gt;node_53</title>
<path fill="none" stroke="#757575" d="M672.44,-954.21C672.44,-954.21 672.44,-688.9 672.44,-688.9"/>
<polygon fill="#757575" stroke="#757575" points="675.94,-688.9 672.44,-678.9 668.94,-688.9 675.94,-688.9"/>
</g>
<!-- node_25 -->
<g id="node26" class="node">
<title>node_25</title>
<path fill="#81c784" stroke="black" d="M809,-835.75C809,-835.75 757,-835.75 757,-835.75 751,-835.75 745,-829.75 745,-823.75 745,-823.75 745,-804.5 745,-804.5 745,-798.5 751,-792.5 757,-792.5 757,-792.5 809,-792.5 809,-792.5 815,-792.5 821,-798.5 821,-804.5 821,-804.5 821,-823.75 821,-823.75 821,-829.75 815,-835.75 809,-835.75"/>
<text xml:space="preserve" text-anchor="middle" x="783" y="-822.25" font-family="Helvetica,sans-Serif" font-size="10.00">layer2.0.bn2</text>
<text xml:space="preserve" text-anchor="middle" x="783" y="-811" font-family="Helvetica,sans-Serif" font-size="10.00">BatchNorm2d</text>
<text xml:space="preserve" text-anchor="middle" x="783" y="-799.75" font-family="Helvetica,sans-Serif" font-size="10.00">128 → 128</text>
</g>
<!-- node_24&#45;&gt;node_25 -->
<g id="edge30" class="edge">
<title>node_24&#45;&gt;node_25</title>
<path fill="none" stroke="#757575" d="M783,-863.48C783,-863.48 783,-836.07 783,-836.07"/>
<polygon fill="#757575" stroke="#757575" points="779.5,-863.48 783,-873.48 786.5,-863.48 779.5,-863.48"/>
</g>
<!-- node_26 -->
<g id="node27" class="node">
<title>node_26</title>
<path fill="#81c784" stroke="black" d="M962.25,-835.75C962.25,-835.75 869.75,-835.75 869.75,-835.75 863.75,-835.75 857.75,-829.75 857.75,-823.75 857.75,-823.75 857.75,-804.5 857.75,-804.5 857.75,-798.5 863.75,-792.5 869.75,-792.5 869.75,-792.5 962.25,-792.5 962.25,-792.5 968.25,-792.5 974.25,-798.5 974.25,-804.5 974.25,-804.5 974.25,-823.75 974.25,-823.75 974.25,-829.75 968.25,-835.75 962.25,-835.75"/>
<text xml:space="preserve" text-anchor="middle" x="916" y="-822.25" font-family="Helvetica,sans-Serif" font-size="10.00">layer2.0.downsample.1</text>
<text xml:space="preserve" text-anchor="middle" x="916" y="-811" font-family="Helvetica,sans-Serif" font-size="10.00">BatchNorm2d</text>
<text xml:space="preserve" text-anchor="middle" x="916" y="-799.75" font-family="Helvetica,sans-Serif" font-size="10.00">128 → 128</text>
</g>
<!-- node_24&#45;&gt;node_26 -->
<g id="edge31" class="edge">
<title>node_24&#45;&gt;node_26</title>
<path fill="none" stroke="#757575" d="M821.75,-893C821.75,-893 916,-893 916,-893 916,-893 916,-859.43 916,-836.1"/>
<polygon fill="#757575" stroke="#757575" points="821.75,-889.5 811.75,-893 821.75,-896.5 821.75,-889.5"/>
</g>
<!-- node_46 -->
<g id="node47" class="node">
<title>node_46</title>
<path fill="#4a90d9" stroke="black" d="M810.88,-756.5C810.88,-756.5 755.12,-756.5 755.12,-756.5 749.12,-756.5 743.12,-750.5 743.12,-744.5 743.12,-744.5 743.12,-725.25 743.12,-725.25 743.12,-719.25 749.12,-713.25 755.12,-713.25 755.12,-713.25 810.88,-713.25 810.88,-713.25 816.88,-713.25 822.88,-719.25 822.88,-725.25 822.88,-725.25 822.88,-744.5 822.88,-744.5 822.88,-750.5 816.88,-756.5 810.88,-756.5"/>
<text xml:space="preserve" text-anchor="middle" x="783" y="-743" font-family="Helvetica,sans-Serif" font-size="10.00">layer2.0.conv2</text>
<text xml:space="preserve" text-anchor="middle" x="783" y="-731.75" font-family="Helvetica,sans-Serif" font-size="10.00">Conv2d</text>
<text xml:space="preserve" text-anchor="middle" x="783" y="-720.5" font-family="Helvetica,sans-Serif" font-size="10.00">128 → 128</text>
</g>
<!-- node_25&#45;&gt;node_46 -->
<g id="edge54" class="edge">
<title>node_25&#45;&gt;node_46</title>
<path fill="none" stroke="#757575" d="M783,-780.54C783,-780.54 783,-756.83 783,-756.83"/>
<polygon fill="#757575" stroke="#757575" points="779.5,-780.54 783,-790.54 786.5,-780.54 779.5,-780.54"/>
</g>
<!-- node_27 -->
<g id="node28" class="node">
<title>node_27</title>
<path fill="#4a90d9" stroke="black" d="M963.25,-756.5C963.25,-756.5 870.75,-756.5 870.75,-756.5 864.75,-756.5 858.75,-750.5 858.75,-744.5 858.75,-744.5 858.75,-725.25 858.75,-725.25 858.75,-719.25 864.75,-713.25 870.75,-713.25 870.75,-713.25 963.25,-713.25 963.25,-713.25 969.25,-713.25 975.25,-719.25 975.25,-725.25 975.25,-725.25 975.25,-744.5 975.25,-744.5 975.25,-750.5 969.25,-756.5 963.25,-756.5"/>
<text xml:space="preserve" text-anchor="middle" x="917" y="-743" font-family="Helvetica,sans-Serif" font-size="10.00">layer2.0.downsample.0</text>
<text xml:space="preserve" text-anchor="middle" x="917" y="-731.75" font-family="Helvetica,sans-Serif" font-size="10.00">Conv2d</text>
<text xml:space="preserve" text-anchor="middle" x="917" y="-720.5" font-family="Helvetica,sans-Serif" font-size="10.00">64 → 128</text>
</g>
<!-- node_26&#45;&gt;node_27 -->
<g id="edge32" class="edge">
<title>node_26&#45;&gt;node_27</title>
<path fill="none" stroke="#757575" d="M916.5,-780.54C916.5,-780.54 916.5,-756.83 916.5,-756.83"/>
<polygon fill="#757575" stroke="#757575" points="913,-780.54 916.5,-790.54 920,-780.54 913,-780.54"/>
</g>
<!-- node_28 -->
<g id="node29" class="node">
<title>node_28</title>
<path fill="#ffd54f" stroke="black" d="M932,-673.62C932,-673.62 902,-673.62 902,-673.62 896,-673.62 890,-667.62 890,-661.62 890,-661.62 890,-649.62 890,-649.62 890,-643.62 896,-637.62 902,-637.62 902,-637.62 932,-637.62 932,-637.62 938,-637.62 944,-643.62 944,-649.62 944,-649.62 944,-661.62 944,-661.62 944,-667.62 938,-673.62 932,-673.62"/>
<text xml:space="preserve" text-anchor="middle" x="917" y="-651.75" font-family="Helvetica,sans-Serif" font-size="10.00">ReLU</text>
</g>
<!-- node_27&#45;&gt;node_28 -->
<g id="edge33" class="edge">
<title>node_27&#45;&gt;node_28</title>
<path fill="none" stroke="#757575" d="M917,-701.29C917,-701.29 917,-674.1 917,-674.1"/>
<polygon fill="#757575" stroke="#757575" points="913.5,-701.29 917,-711.29 920.5,-701.29 913.5,-701.29"/>
</g>
<!-- node_29 -->
<g id="node30" class="node">
<title>node_29</title>
<path fill="#ffd54f" stroke="black" d="M973,-594.38C973,-594.38 943,-594.38 943,-594.38 937,-594.38 931,-588.38 931,-582.38 931,-582.38 931,-570.38 931,-570.38 931,-564.38 937,-558.38 943,-558.38 943,-558.38 973,-558.38 973,-558.38 979,-558.38 985,-564.38 985,-570.38 985,-570.38 985,-582.38 985,-582.38 985,-588.38 979,-594.38 973,-594.38"/>
<text xml:space="preserve" text-anchor="middle" x="958" y="-572.5" font-family="Helvetica,sans-Serif" font-size="10.00">Add</text>
</g>
<!-- node_28&#45;&gt;node_29 -->
<g id="edge35" class="edge">
<title>node_28&#45;&gt;node_29</title>
<path fill="none" stroke="#757575" d="M937.5,-625.73C937.5,-625.73 937.5,-594.66 937.5,-594.66"/>
<polygon fill="#757575" stroke="#757575" points="934,-625.73 937.5,-635.73 941,-625.73 934,-625.73"/>
</g>
<!-- node_49 -->
<g id="node50" class="node">
<title>node_49</title>
<path fill="#4a90d9" stroke="black" d="M840.88,-518.75C840.88,-518.75 785.12,-518.75 785.12,-518.75 779.12,-518.75 773.12,-512.75 773.12,-506.75 773.12,-506.75 773.12,-487.5 773.12,-487.5 773.12,-481.5 779.12,-475.5 785.12,-475.5 785.12,-475.5 840.88,-475.5 840.88,-475.5 846.88,-475.5 852.88,-481.5 852.88,-487.5 852.88,-487.5 852.88,-506.75 852.88,-506.75 852.88,-512.75 846.88,-518.75 840.88,-518.75"/>
<text xml:space="preserve" text-anchor="middle" x="813" y="-505.25" font-family="Helvetica,sans-Serif" font-size="10.00">layer2.0.conv1</text>
<text xml:space="preserve" text-anchor="middle" x="813" y="-494" font-family="Helvetica,sans-Serif" font-size="10.00">Conv2d</text>
<text xml:space="preserve" text-anchor="middle" x="813" y="-482.75" font-family="Helvetica,sans-Serif" font-size="10.00">64 → 128</text>
</g>
<!-- node_28&#45;&gt;node_49 -->
<g id="edge34" class="edge">
<title>node_28&#45;&gt;node_49</title>
<path fill="none" stroke="#757575" d="M896.06,-637.43C896.06,-595.76 896.06,-497 896.06,-497 896.06,-497 864.58,-497 864.58,-497"/>
<polygon fill="#757575" stroke="#757575" points="864.59,-493.5 854.58,-497 864.58,-500.5 864.59,-493.5"/>
</g>
<!-- node_30 -->
<g id="node31" class="node">
<title>node_30</title>
<path fill="#81c784" stroke="black" d="M968,-518.75C968,-518.75 916,-518.75 916,-518.75 910,-518.75 904,-512.75 904,-506.75 904,-506.75 904,-487.5 904,-487.5 904,-481.5 910,-475.5 916,-475.5 916,-475.5 968,-475.5 968,-475.5 974,-475.5 980,-481.5 980,-487.5 980,-487.5 980,-506.75 980,-506.75 980,-512.75 974,-518.75 968,-518.75"/>
<text xml:space="preserve" text-anchor="middle" x="942" y="-505.25" font-family="Helvetica,sans-Serif" font-size="10.00">layer1.1.bn2</text>
<text xml:space="preserve" text-anchor="middle" x="942" y="-494" font-family="Helvetica,sans-Serif" font-size="10.00">BatchNorm2d</text>
<text xml:space="preserve" text-anchor="middle" x="942" y="-482.75" font-family="Helvetica,sans-Serif" font-size="10.00">64 → 64</text>
</g>
<!-- node_29&#45;&gt;node_30 -->
<g id="edge36" class="edge">
<title>node_29&#45;&gt;node_30</title>
<path fill="none" stroke="#757575" d="M955.5,-546.48C955.5,-546.48 955.5,-519.07 955.5,-519.07"/>
<polygon fill="#757575" stroke="#757575" points="952,-546.48 955.5,-556.48 959,-546.48 952,-546.48"/>
</g>
<!-- node_31 -->
<g id="node32" class="node">
<title>node_31</title>
<path fill="#ffd54f" stroke="black" d="M1058,-515.12C1058,-515.12 1028,-515.12 1028,-515.12 1022,-515.12 1016,-509.12 1016,-503.12 1016,-503.12 1016,-491.12 1016,-491.12 1016,-485.12 1022,-479.12 1028,-479.12 1028,-479.12 1058,-479.12 1058,-479.12 1064,-479.12 1070,-485.12 1070,-491.12 1070,-491.12 1070,-503.12 1070,-503.12 1070,-509.12 1064,-515.12 1058,-515.12"/>
<text xml:space="preserve" text-anchor="middle" x="1043" y="-493.25" font-family="Helvetica,sans-Serif" font-size="10.00">ReLU</text>
</g>
<!-- node_29&#45;&gt;node_31 -->
<g id="edge37" class="edge">
<title>node_29&#45;&gt;node_31</title>
<path fill="none" stroke="#757575" d="M996.88,-576C996.88,-576 1043,-576 1043,-576 1043,-576 1043,-538.72 1043,-515.42"/>
<polygon fill="#757575" stroke="#757575" points="996.88,-572.5 986.88,-576 996.88,-579.5 996.88,-572.5"/>
</g>
<!-- node_42 -->
<g id="node43" class="node">
<title>node_42</title>
<path fill="#4a90d9" stroke="black" d="M969.88,-439.5C969.88,-439.5 914.12,-439.5 914.12,-439.5 908.12,-439.5 902.12,-433.5 902.12,-427.5 902.12,-427.5 902.12,-408.25 902.12,-408.25 902.12,-402.25 908.12,-396.25 914.12,-396.25 914.12,-396.25 969.88,-396.25 969.88,-396.25 975.88,-396.25 981.88,-402.25 981.88,-408.25 981.88,-408.25 981.88,-427.5 981.88,-427.5 981.88,-433.5 975.88,-439.5 969.88,-439.5"/>
<text xml:space="preserve" text-anchor="middle" x="942" y="-426" font-family="Helvetica,sans-Serif" font-size="10.00">layer1.1.conv2</text>
<text xml:space="preserve" text-anchor="middle" x="942" y="-414.75" font-family="Helvetica,sans-Serif" font-size="10.00">Conv2d</text>
<text xml:space="preserve" text-anchor="middle" x="942" y="-403.5" font-family="Helvetica,sans-Serif" font-size="10.00">64 → 64</text>
</g>
<!-- node_30&#45;&gt;node_42 -->
<g id="edge50" class="edge">
<title>node_30&#45;&gt;node_42</title>
<path fill="none" stroke="#757575" d="M942,-463.54C942,-463.54 942,-439.83 942,-439.83"/>
<polygon fill="#757575" stroke="#757575" points="938.5,-463.54 942,-473.54 945.5,-463.54 938.5,-463.54"/>
</g>
<!-- node_32 -->
<g id="node33" class="node">
<title>node_32</title>
<path fill="#ffd54f" stroke="black" d="M1146,-435.88C1146,-435.88 1116,-435.88 1116,-435.88 1110,-435.88 1104,-429.88 1104,-423.88 1104,-423.88 1104,-411.88 1104,-411.88 1104,-405.88 1110,-399.88 1116,-399.88 1116,-399.88 1146,-399.88 1146,-399.88 1152,-399.88 1158,-405.88 1158,-411.88 1158,-411.88 1158,-423.88 1158,-423.88 1158,-429.88 1152,-435.88 1146,-435.88"/>
<text xml:space="preserve" text-anchor="middle" x="1131" y="-414" font-family="Helvetica,sans-Serif" font-size="10.00">Add</text>
</g>
<!-- node_31&#45;&gt;node_32 -->
<g id="edge39" class="edge">
<title>node_31&#45;&gt;node_32</title>
<path fill="none" stroke="#757575" d="M1048.44,-467.26C1048.44,-467.26 1048.44,-418 1048.44,-418 1048.44,-418 1079.49,-418 1103.51,-418"/>
<polygon fill="#757575" stroke="#757575" points="1044.94,-467.26 1048.44,-477.26 1051.94,-467.26 1044.94,-467.26"/>
</g>
<!-- node_45 -->
<g id="node46" class="node">
<title>node_45</title>
<path fill="#4a90d9" stroke="black" d="M1014.88,-201.75C1014.88,-201.75 959.12,-201.75 959.12,-201.75 953.12,-201.75 947.12,-195.75 947.12,-189.75 947.12,-189.75 947.12,-170.5 947.12,-170.5 947.12,-164.5 953.12,-158.5 959.12,-158.5 959.12,-158.5 1014.88,-158.5 1014.88,-158.5 1020.88,-158.5 1026.88,-164.5 1026.88,-170.5 1026.88,-170.5 1026.88,-189.75 1026.88,-189.75 1026.88,-195.75 1020.88,-201.75 1014.88,-201.75"/>
<text xml:space="preserve" text-anchor="middle" x="987" y="-188.25" font-family="Helvetica,sans-Serif" font-size="10.00">layer1.1.conv1</text>
<text xml:space="preserve" text-anchor="middle" x="987" y="-177" font-family="Helvetica,sans-Serif" font-size="10.00">Conv2d</text>
<text xml:space="preserve" text-anchor="middle" x="987" y="-165.75" font-family="Helvetica,sans-Serif" font-size="10.00">64 → 64</text>
</g>
<!-- node_31&#45;&gt;node_45 -->
<g id="edge38" class="edge">
<title>node_31&#45;&gt;node_45</title>
<path fill="none" stroke="#757575" d="M1021.44,-478.71C1021.44,-478.71 1021.44,-213.4 1021.44,-213.4"/>
<polygon fill="#757575" stroke="#757575" points="1024.94,-213.4 1021.44,-203.4 1017.94,-213.4 1024.94,-213.4"/>
</g>
<!-- node_33 -->
<g id="node34" class="node">
<title>node_33</title>
<path fill="#81c784" stroke="black" d="M1157,-360.25C1157,-360.25 1105,-360.25 1105,-360.25 1099,-360.25 1093,-354.25 1093,-348.25 1093,-348.25 1093,-329 1093,-329 1093,-323 1099,-317 1105,-317 1105,-317 1157,-317 1157,-317 1163,-317 1169,-323 1169,-329 1169,-329 1169,-348.25 1169,-348.25 1169,-354.25 1163,-360.25 1157,-360.25"/>
<text xml:space="preserve" text-anchor="middle" x="1131" y="-346.75" font-family="Helvetica,sans-Serif" font-size="10.00">layer1.0.bn2</text>
<text xml:space="preserve" text-anchor="middle" x="1131" y="-335.5" font-family="Helvetica,sans-Serif" font-size="10.00">BatchNorm2d</text>
<text xml:space="preserve" text-anchor="middle" x="1131" y="-324.25" font-family="Helvetica,sans-Serif" font-size="10.00">64 → 64</text>
</g>
<!-- node_32&#45;&gt;node_33 -->
<g id="edge40" class="edge">
<title>node_32&#45;&gt;node_33</title>
<path fill="none" stroke="#757575" d="M1131,-387.98C1131,-387.98 1131,-360.57 1131,-360.57"/>
<polygon fill="#757575" stroke="#757575" points="1127.5,-387.98 1131,-397.98 1134.5,-387.98 1127.5,-387.98"/>
</g>
<!-- node_34 -->
<g id="node35" class="node">
<title>node_34</title>
<path fill="#ffd54f" stroke="black" d="M1257.38,-356.62C1257.38,-356.62 1216.62,-356.62 1216.62,-356.62 1210.62,-356.62 1204.62,-350.62 1204.62,-344.62 1204.62,-344.62 1204.62,-332.62 1204.62,-332.62 1204.62,-326.62 1210.62,-320.62 1216.62,-320.62 1216.62,-320.62 1257.38,-320.62 1257.38,-320.62 1263.38,-320.62 1269.38,-326.62 1269.38,-332.62 1269.38,-332.62 1269.38,-344.62 1269.38,-344.62 1269.38,-350.62 1263.38,-356.62 1257.38,-356.62"/>
<text xml:space="preserve" text-anchor="middle" x="1237" y="-334.75" font-family="Helvetica,sans-Serif" font-size="10.00">MaxPool2d</text>
</g>
<!-- node_32&#45;&gt;node_34 -->
<g id="edge41" class="edge">
<title>node_32&#45;&gt;node_34</title>
<path fill="none" stroke="#757575" d="M1169.81,-418C1169.81,-418 1237,-418 1237,-418 1237,-418 1237,-380.48 1237,-357.03"/>
<polygon fill="#757575" stroke="#757575" points="1169.81,-414.5 1159.81,-418 1169.81,-421.5 1169.81,-414.5"/>
</g>
<!-- node_38 -->
<g id="node39" class="node">
<title>node_38</title>
<path fill="#4a90d9" stroke="black" d="M1159.88,-281C1159.88,-281 1104.12,-281 1104.12,-281 1098.12,-281 1092.12,-275 1092.12,-269 1092.12,-269 1092.12,-249.75 1092.12,-249.75 1092.12,-243.75 1098.12,-237.75 1104.12,-237.75 1104.12,-237.75 1159.88,-237.75 1159.88,-237.75 1165.88,-237.75 1171.88,-243.75 1171.88,-249.75 1171.88,-249.75 1171.88,-269 1171.88,-269 1171.88,-275 1165.88,-281 1159.88,-281"/>
<text xml:space="preserve" text-anchor="middle" x="1132" y="-267.5" font-family="Helvetica,sans-Serif" font-size="10.00">layer1.0.conv2</text>
<text xml:space="preserve" text-anchor="middle" x="1132" y="-256.25" font-family="Helvetica,sans-Serif" font-size="10.00">Conv2d</text>
<text xml:space="preserve" text-anchor="middle" x="1132" y="-245" font-family="Helvetica,sans-Serif" font-size="10.00">64 → 64</text>
</g>
<!-- node_33&#45;&gt;node_38 -->
<g id="edge46" class="edge">
<title>node_33&#45;&gt;node_38</title>
<path fill="none" stroke="#757575" d="M1131,-305.04C1131,-305.04 1131,-281.33 1131,-281.33"/>
<polygon fill="#757575" stroke="#757575" points="1127.5,-305.04 1131,-315.04 1134.5,-305.04 1127.5,-305.04"/>
</g>
<!-- node_35 -->
<g id="node36" class="node">
<title>node_35</title>
<path fill="#ffd54f" stroke="black" d="M1329,-277.38C1329,-277.38 1299,-277.38 1299,-277.38 1293,-277.38 1287,-271.38 1287,-265.38 1287,-265.38 1287,-253.38 1287,-253.38 1287,-247.38 1293,-241.38 1299,-241.38 1299,-241.38 1329,-241.38 1329,-241.38 1335,-241.38 1341,-247.38 1341,-253.38 1341,-253.38 1341,-265.38 1341,-265.38 1341,-271.38 1335,-277.38 1329,-277.38"/>
<text xml:space="preserve" text-anchor="middle" x="1314" y="-255.5" font-family="Helvetica,sans-Serif" font-size="10.00">ReLU</text>
</g>
<!-- node_34&#45;&gt;node_35 -->
<g id="edge43" class="edge">
<title>node_34&#45;&gt;node_35</title>
<path fill="none" stroke="#757575" d="M1244.62,-308.64C1244.62,-308.64 1244.62,-259 1244.62,-259 1244.62,-259 1267.19,-259 1286.58,-259"/>
<polygon fill="#757575" stroke="#757575" points="1241.13,-308.64 1244.63,-318.64 1248.13,-308.64 1241.13,-308.64"/>
</g>
<!-- node_41 -->
<g id="node42" class="node">
<title>node_41</title>
<path fill="#4a90d9" stroke="black" d="M1207.88,-43.25C1207.88,-43.25 1152.12,-43.25 1152.12,-43.25 1146.12,-43.25 1140.12,-37.25 1140.12,-31.25 1140.12,-31.25 1140.12,-12 1140.12,-12 1140.12,-6 1146.12,0 1152.12,0 1152.12,0 1207.88,0 1207.88,0 1213.88,0 1219.88,-6 1219.88,-12 1219.88,-12 1219.88,-31.25 1219.88,-31.25 1219.88,-37.25 1213.88,-43.25 1207.88,-43.25"/>
<text xml:space="preserve" text-anchor="middle" x="1180" y="-29.75" font-family="Helvetica,sans-Serif" font-size="10.00">layer1.0.conv1</text>
<text xml:space="preserve" text-anchor="middle" x="1180" y="-18.5" font-family="Helvetica,sans-Serif" font-size="10.00">Conv2d</text>
<text xml:space="preserve" text-anchor="middle" x="1180" y="-7.25" font-family="Helvetica,sans-Serif" font-size="10.00">64 → 64</text>
</g>
<!-- node_34&#45;&gt;node_41 -->
<g id="edge42" class="edge">
<title>node_34&#45;&gt;node_41</title>
<path fill="none" stroke="#757575" d="M1212.25,-320.21C1212.25,-320.21 1212.25,-54.9 1212.25,-54.9"/>
<polygon fill="#757575" stroke="#757575" points="1215.75,-54.9 1212.25,-44.9 1208.75,-54.9 1215.75,-54.9"/>
</g>
<!-- node_36 -->
<g id="node37" class="node">
<title>node_36</title>
<path fill="#81c784" stroke="black" d="M1346,-201.75C1346,-201.75 1294,-201.75 1294,-201.75 1288,-201.75 1282,-195.75 1282,-189.75 1282,-189.75 1282,-170.5 1282,-170.5 1282,-164.5 1288,-158.5 1294,-158.5 1294,-158.5 1346,-158.5 1346,-158.5 1352,-158.5 1358,-164.5 1358,-170.5 1358,-170.5 1358,-189.75 1358,-189.75 1358,-195.75 1352,-201.75 1346,-201.75"/>
<text xml:space="preserve" text-anchor="middle" x="1320" y="-188.25" font-family="Helvetica,sans-Serif" font-size="10.00">bn1</text>
<text xml:space="preserve" text-anchor="middle" x="1320" y="-177" font-family="Helvetica,sans-Serif" font-size="10.00">BatchNorm2d</text>
<text xml:space="preserve" text-anchor="middle" x="1320" y="-165.75" font-family="Helvetica,sans-Serif" font-size="10.00">64 → 64</text>
</g>
<!-- node_35&#45;&gt;node_36 -->
<g id="edge44" class="edge">
<title>node_35&#45;&gt;node_36</title>
<path fill="none" stroke="#757575" d="M1314,-229.48C1314,-229.48 1314,-202.07 1314,-202.07"/>
<polygon fill="#757575" stroke="#757575" points="1310.5,-229.48 1314,-239.48 1317.5,-229.48 1310.5,-229.48"/>
</g>
<!-- node_37 -->
<g id="node38" class="node">
<title>node_37</title>
<path fill="#4a90d9" stroke="black" d="M1335,-122.5C1335,-122.5 1305,-122.5 1305,-122.5 1299,-122.5 1293,-116.5 1293,-110.5 1293,-110.5 1293,-91.25 1293,-91.25 1293,-85.25 1299,-79.25 1305,-79.25 1305,-79.25 1335,-79.25 1335,-79.25 1341,-79.25 1347,-85.25 1347,-91.25 1347,-91.25 1347,-110.5 1347,-110.5 1347,-116.5 1341,-122.5 1335,-122.5"/>
<text xml:space="preserve" text-anchor="middle" x="1320" y="-109" font-family="Helvetica,sans-Serif" font-size="10.00">conv1</text>
<text xml:space="preserve" text-anchor="middle" x="1320" y="-97.75" font-family="Helvetica,sans-Serif" font-size="10.00">Conv2d</text>
<text xml:space="preserve" text-anchor="middle" x="1320" y="-86.5" font-family="Helvetica,sans-Serif" font-size="10.00">3 → 64</text>
</g>
<!-- node_36&#45;&gt;node_37 -->
<g id="edge45" class="edge">
<title>node_36&#45;&gt;node_37</title>
<path fill="none" stroke="#757575" d="M1320,-146.54C1320,-146.54 1320,-122.83 1320,-122.83"/>
<polygon fill="#757575" stroke="#757575" points="1316.5,-146.54 1320,-156.54 1323.5,-146.54 1316.5,-146.54"/>
</g>
<!-- node_39 -->
<g id="node40" class="node">
<title>node_39</title>
<path fill="#ffd54f" stroke="black" d="M1148,-198.12C1148,-198.12 1118,-198.12 1118,-198.12 1112,-198.12 1106,-192.12 1106,-186.12 1106,-186.12 1106,-174.12 1106,-174.12 1106,-168.12 1112,-162.12 1118,-162.12 1118,-162.12 1148,-162.12 1148,-162.12 1154,-162.12 1160,-168.12 1160,-174.12 1160,-174.12 1160,-186.12 1160,-186.12 1160,-192.12 1154,-198.12 1148,-198.12"/>
<text xml:space="preserve" text-anchor="middle" x="1133" y="-176.25" font-family="Helvetica,sans-Serif" font-size="10.00">ReLU</text>
</g>
<!-- node_38&#45;&gt;node_39 -->
<g id="edge47" class="edge">
<title>node_38&#45;&gt;node_39</title>
<path fill="none" stroke="#757575" d="M1133,-225.79C1133,-225.79 1133,-198.6 1133,-198.6"/>
<polygon fill="#757575" stroke="#757575" points="1129.5,-225.79 1133,-235.79 1136.5,-225.79 1129.5,-225.79"/>
</g>
<!-- node_40 -->
<g id="node41" class="node">
<title>node_40</title>
<path fill="#81c784" stroke="black" d="M1160,-122.5C1160,-122.5 1108,-122.5 1108,-122.5 1102,-122.5 1096,-116.5 1096,-110.5 1096,-110.5 1096,-91.25 1096,-91.25 1096,-85.25 1102,-79.25 1108,-79.25 1108,-79.25 1160,-79.25 1160,-79.25 1166,-79.25 1172,-85.25 1172,-91.25 1172,-91.25 1172,-110.5 1172,-110.5 1172,-116.5 1166,-122.5 1160,-122.5"/>
<text xml:space="preserve" text-anchor="middle" x="1134" y="-109" font-family="Helvetica,sans-Serif" font-size="10.00">layer1.0.bn1</text>
<text xml:space="preserve" text-anchor="middle" x="1134" y="-97.75" font-family="Helvetica,sans-Serif" font-size="10.00">BatchNorm2d</text>
<text xml:space="preserve" text-anchor="middle" x="1134" y="-86.5" font-family="Helvetica,sans-Serif" font-size="10.00">64 → 64</text>
</g>
<!-- node_39&#45;&gt;node_40 -->
<g id="edge48" class="edge">
<title>node_39&#45;&gt;node_40</title>
<path fill="none" stroke="#757575" d="M1133,-150.23C1133,-150.23 1133,-122.82 1133,-122.82"/>
<polygon fill="#757575" stroke="#757575" points="1129.5,-150.23 1133,-160.23 1136.5,-150.23 1129.5,-150.23"/>
</g>
<!-- node_40&#45;&gt;node_41 -->
<g id="edge49" class="edge">
<title>node_40&#45;&gt;node_41</title>
<path fill="none" stroke="#757575" d="M1156.06,-67.29C1156.06,-67.29 1156.06,-43.58 1156.06,-43.58"/>
<polygon fill="#757575" stroke="#757575" points="1152.56,-67.29 1156.06,-77.29 1159.56,-67.29 1152.56,-67.29"/>
</g>
<!-- node_43 -->
<g id="node44" class="node">
<title>node_43</title>
<path fill="#ffd54f" stroke="black" d="M958,-356.62C958,-356.62 928,-356.62 928,-356.62 922,-356.62 916,-350.62 916,-344.62 916,-344.62 916,-332.62 916,-332.62 916,-326.62 922,-320.62 928,-320.62 928,-320.62 958,-320.62 958,-320.62 964,-320.62 970,-326.62 970,-332.62 970,-332.62 970,-344.62 970,-344.62 970,-350.62 964,-356.62 958,-356.62"/>
<text xml:space="preserve" text-anchor="middle" x="943" y="-334.75" font-family="Helvetica,sans-Serif" font-size="10.00">ReLU</text>
</g>
<!-- node_42&#45;&gt;node_43 -->
<g id="edge51" class="edge">
<title>node_42&#45;&gt;node_43</title>
<path fill="none" stroke="#757575" d="M943,-384.29C943,-384.29 943,-357.1 943,-357.1"/>
<polygon fill="#757575" stroke="#757575" points="939.5,-384.29 943,-394.29 946.5,-384.29 939.5,-384.29"/>
</g>
<!-- node_44 -->
<g id="node45" class="node">
<title>node_44</title>
<path fill="#81c784" stroke="black" d="M970,-281C970,-281 918,-281 918,-281 912,-281 906,-275 906,-269 906,-269 906,-249.75 906,-249.75 906,-243.75 912,-237.75 918,-237.75 918,-237.75 970,-237.75 970,-237.75 976,-237.75 982,-243.75 982,-249.75 982,-249.75 982,-269 982,-269 982,-275 976,-281 970,-281"/>
<text xml:space="preserve" text-anchor="middle" x="944" y="-267.5" font-family="Helvetica,sans-Serif" font-size="10.00">layer1.1.bn1</text>
<text xml:space="preserve" text-anchor="middle" x="944" y="-256.25" font-family="Helvetica,sans-Serif" font-size="10.00">BatchNorm2d</text>
<text xml:space="preserve" text-anchor="middle" x="944" y="-245" font-family="Helvetica,sans-Serif" font-size="10.00">64 → 64</text>
</g>
<!-- node_43&#45;&gt;node_44 -->
<g id="edge52" class="edge">
<title>node_43&#45;&gt;node_44</title>
<path fill="none" stroke="#757575" d="M943,-308.73C943,-308.73 943,-281.32 943,-281.32"/>
<polygon fill="#757575" stroke="#757575" points="939.5,-308.73 943,-318.73 946.5,-308.73 939.5,-308.73"/>
</g>
<!-- node_44&#45;&gt;node_45 -->
<g id="edge53" class="edge">
<title>node_44&#45;&gt;node_45</title>
<path fill="none" stroke="#757575" d="M964.56,-225.79C964.56,-225.79 964.56,-202.08 964.56,-202.08"/>
<polygon fill="#757575" stroke="#757575" points="961.06,-225.79 964.56,-235.79 968.06,-225.79 961.06,-225.79"/>
</g>
<!-- node_47 -->
<g id="node48" class="node">
<title>node_47</title>
<path fill="#ffd54f" stroke="black" d="M798,-673.62C798,-673.62 768,-673.62 768,-673.62 762,-673.62 756,-667.62 756,-661.62 756,-661.62 756,-649.62 756,-649.62 756,-643.62 762,-637.62 768,-637.62 768,-637.62 798,-637.62 798,-637.62 804,-637.62 810,-643.62 810,-649.62 810,-649.62 810,-661.62 810,-661.62 810,-667.62 804,-673.62 798,-673.62"/>
<text xml:space="preserve" text-anchor="middle" x="783" y="-651.75" font-family="Helvetica,sans-Serif" font-size="10.00">ReLU</text>
</g>
<!-- node_46&#45;&gt;node_47 -->
<g id="edge55" class="edge">
<title>node_46&#45;&gt;node_47</title>
<path fill="none" stroke="#757575" d="M783,-701.29C783,-701.29 783,-674.1 783,-674.1"/>
<polygon fill="#757575" stroke="#757575" points="779.5,-701.29 783,-711.29 786.5,-701.29 779.5,-701.29"/>
</g>
<!-- node_48 -->
<g id="node49" class="node">
<title>node_48</title>
<path fill="#81c784" stroke="black" d="M809,-598C809,-598 757,-598 757,-598 751,-598 745,-592 745,-586 745,-586 745,-566.75 745,-566.75 745,-560.75 751,-554.75 757,-554.75 757,-554.75 809,-554.75 809,-554.75 815,-554.75 821,-560.75 821,-566.75 821,-566.75 821,-586 821,-586 821,-592 815,-598 809,-598"/>
<text xml:space="preserve" text-anchor="middle" x="783" y="-584.5" font-family="Helvetica,sans-Serif" font-size="10.00">layer2.0.bn1</text>
<text xml:space="preserve" text-anchor="middle" x="783" y="-573.25" font-family="Helvetica,sans-Serif" font-size="10.00">BatchNorm2d</text>
<text xml:space="preserve" text-anchor="middle" x="783" y="-562" font-family="Helvetica,sans-Serif" font-size="10.00">128 → 128</text>
</g>
<!-- node_47&#45;&gt;node_48 -->
<g id="edge56" class="edge">
<title>node_47&#45;&gt;node_48</title>
<path fill="none" stroke="#757575" d="M783,-625.73C783,-625.73 783,-598.32 783,-598.32"/>
<polygon fill="#757575" stroke="#757575" points="779.5,-625.73 783,-635.73 786.5,-625.73 779.5,-625.73"/>
</g>
<!-- node_48&#45;&gt;node_49 -->
<g id="edge57" class="edge">
<title>node_48&#45;&gt;node_49</title>
<path fill="none" stroke="#757575" d="M797.06,-542.79C797.06,-542.79 797.06,-519.08 797.06,-519.08"/>
<polygon fill="#757575" stroke="#757575" points="793.56,-542.79 797.06,-552.79 800.56,-542.79 793.56,-542.79"/>
</g>
<!-- node_51 -->
<g id="node52" class="node">
<title>node_51</title>
<path fill="#ffd54f" stroke="black" d="M609,-832.12C609,-832.12 579,-832.12 579,-832.12 573,-832.12 567,-826.12 567,-820.12 567,-820.12 567,-808.12 567,-808.12 567,-802.12 573,-796.12 579,-796.12 579,-796.12 609,-796.12 609,-796.12 615,-796.12 621,-802.12 621,-808.12 621,-808.12 621,-820.12 621,-820.12 621,-826.12 615,-832.12 609,-832.12"/>
<text xml:space="preserve" text-anchor="middle" x="594" y="-810.25" font-family="Helvetica,sans-Serif" font-size="10.00">ReLU</text>
</g>
<!-- node_50&#45;&gt;node_51 -->
<g id="edge59" class="edge">
<title>node_50&#45;&gt;node_51</title>
<path fill="none" stroke="#757575" d="M594,-859.79C594,-859.79 594,-832.6 594,-832.6"/>
<polygon fill="#757575" stroke="#757575" points="590.5,-859.79 594,-869.79 597.5,-859.79 590.5,-859.79"/>
</g>
<!-- node_52 -->
<g id="node53" class="node">
<title>node_52</title>
<path fill="#81c784" stroke="black" d="M621,-756.5C621,-756.5 569,-756.5 569,-756.5 563,-756.5 557,-750.5 557,-744.5 557,-744.5 557,-725.25 557,-725.25 557,-719.25 563,-713.25 569,-713.25 569,-713.25 621,-713.25 621,-713.25 627,-713.25 633,-719.25 633,-725.25 633,-725.25 633,-744.5 633,-744.5 633,-750.5 627,-756.5 621,-756.5"/>
<text xml:space="preserve" text-anchor="middle" x="595" y="-743" font-family="Helvetica,sans-Serif" font-size="10.00">layer2.1.bn1</text>
<text xml:space="preserve" text-anchor="middle" x="595" y="-731.75" font-family="Helvetica,sans-Serif" font-size="10.00">BatchNorm2d</text>
<text xml:space="preserve" text-anchor="middle" x="595" y="-720.5" font-family="Helvetica,sans-Serif" font-size="10.00">128 → 128</text>
</g>
<!-- node_51&#45;&gt;node_52 -->
<g id="edge60" class="edge">
<title>node_51&#45;&gt;node_52</title>
<path fill="none" stroke="#757575" d="M594,-784.23C594,-784.23 594,-756.82 594,-756.82"/>
<polygon fill="#757575" stroke="#757575" points="590.5,-784.23 594,-794.23 597.5,-784.23 590.5,-784.23"/>
</g>
<!-- node_52&#45;&gt;node_53 -->
<g id="edge61" class="edge">
<title>node_52&#45;&gt;node_53</title>
<path fill="none" stroke="#757575" d="M615.56,-701.29C615.56,-701.29 615.56,-677.58 615.56,-677.58"/>
<polygon fill="#757575" stroke="#757575" points="612.06,-701.29 615.56,-711.29 619.06,-701.29 612.06,-701.29"/>
</g>
<!-- node_55 -->
<g id="node56" class="node">
<title>node_55</title>
<path fill="#ffd54f" stroke="black" d="M449,-1149.12C449,-1149.12 419,-1149.12 419,-1149.12 413,-1149.12 407,-1143.12 407,-1137.12 407,-1137.12 407,-1125.12 407,-1125.12 407,-1119.12 413,-1113.12 419,-1113.12 419,-1113.12 449,-1113.12 449,-1113.12 455,-1113.12 461,-1119.12 461,-1125.12 461,-1125.12 461,-1137.12 461,-1137.12 461,-1143.12 455,-1149.12 449,-1149.12"/>
<text xml:space="preserve" text-anchor="middle" x="434" y="-1127.25" font-family="Helvetica,sans-Serif" font-size="10.00">ReLU</text>
</g>
<!-- node_54&#45;&gt;node_55 -->
<g id="edge63" class="edge">
<title>node_54&#45;&gt;node_55</title>
<path fill="none" stroke="#757575" d="M434,-1176.79C434,-1176.79 434,-1149.6 434,-1149.6"/>
<polygon fill="#757575" stroke="#757575" points="430.5,-1176.79 434,-1186.79 437.5,-1176.79 430.5,-1176.79"/>
</g>
<!-- node_56 -->
<g id="node57" class="node">
<title>node_56</title>
<path fill="#81c784" stroke="black" d="M460,-1073.5C460,-1073.5 408,-1073.5 408,-1073.5 402,-1073.5 396,-1067.5 396,-1061.5 396,-1061.5 396,-1042.25 396,-1042.25 396,-1036.25 402,-1030.25 408,-1030.25 408,-1030.25 460,-1030.25 460,-1030.25 466,-1030.25 472,-1036.25 472,-1042.25 472,-1042.25 472,-1061.5 472,-1061.5 472,-1067.5 466,-1073.5 460,-1073.5"/>
<text xml:space="preserve" text-anchor="middle" x="434" y="-1060" font-family="Helvetica,sans-Serif" font-size="10.00">layer3.0.bn1</text>
<text xml:space="preserve" text-anchor="middle" x="434" y="-1048.75" font-family="Helvetica,sans-Serif" font-size="10.00">BatchNorm2d</text>
<text xml:space="preserve" text-anchor="middle" x="434" y="-1037.5" font-family="Helvetica,sans-Serif" font-size="10.00">256 → 256</text>
</g>
<!-- node_55&#45;&gt;node_56 -->
<g id="edge64" class="edge">
<title>node_55&#45;&gt;node_56</title>
<path fill="none" stroke="#757575" d="M434,-1101.23C434,-1101.23 434,-1073.82 434,-1073.82"/>
<polygon fill="#757575" stroke="#757575" points="430.5,-1101.23 434,-1111.23 437.5,-1101.23 430.5,-1101.23"/>
</g>
<!-- node_56&#45;&gt;node_57 -->
<g id="edge65" class="edge">
<title>node_56&#45;&gt;node_57</title>
<path fill="none" stroke="#757575" d="M448.06,-1018.29C448.06,-1018.29 448.06,-994.58 448.06,-994.58"/>
<polygon fill="#757575" stroke="#757575" points="444.56,-1018.29 448.06,-1028.29 451.56,-1018.29 444.56,-1018.29"/>
</g>
<!-- node_59 -->
<g id="node60" class="node">
<title>node_59</title>
<path fill="#ffd54f" stroke="black" d="M260,-1307.62C260,-1307.62 230,-1307.62 230,-1307.62 224,-1307.62 218,-1301.62 218,-1295.62 218,-1295.62 218,-1283.62 218,-1283.62 218,-1277.62 224,-1271.62 230,-1271.62 230,-1271.62 260,-1271.62 260,-1271.62 266,-1271.62 272,-1277.62 272,-1283.62 272,-1283.62 272,-1295.62 272,-1295.62 272,-1301.62 266,-1307.62 260,-1307.62"/>
<text xml:space="preserve" text-anchor="middle" x="245" y="-1285.75" font-family="Helvetica,sans-Serif" font-size="10.00">ReLU</text>
</g>
<!-- node_58&#45;&gt;node_59 -->
<g id="edge67" class="edge">
<title>node_58&#45;&gt;node_59</title>
<path fill="none" stroke="#757575" d="M245,-1335.29C245,-1335.29 245,-1308.1 245,-1308.1"/>
<polygon fill="#757575" stroke="#757575" points="241.5,-1335.29 245,-1345.29 248.5,-1335.29 241.5,-1335.29"/>
</g>
<!-- node_60 -->
<g id="node61" class="node">
<title>node_60</title>
<path fill="#81c784" stroke="black" d="M272,-1232C272,-1232 220,-1232 220,-1232 214,-1232 208,-1226 208,-1220 208,-1220 208,-1200.75 208,-1200.75 208,-1194.75 214,-1188.75 220,-1188.75 220,-1188.75 272,-1188.75 272,-1188.75 278,-1188.75 284,-1194.75 284,-1200.75 284,-1200.75 284,-1220 284,-1220 284,-1226 278,-1232 272,-1232"/>
<text xml:space="preserve" text-anchor="middle" x="246" y="-1218.5" font-family="Helvetica,sans-Serif" font-size="10.00">layer3.1.bn1</text>
<text xml:space="preserve" text-anchor="middle" x="246" y="-1207.25" font-family="Helvetica,sans-Serif" font-size="10.00">BatchNorm2d</text>
<text xml:space="preserve" text-anchor="middle" x="246" y="-1196" font-family="Helvetica,sans-Serif" font-size="10.00">256 → 256</text>
</g>
<!-- node_59&#45;&gt;node_60 -->
<g id="edge68" class="edge">
<title>node_59&#45;&gt;node_60</title>
<path fill="none" stroke="#757575" d="M245,-1259.73C245,-1259.73 245,-1232.32 245,-1232.32"/>
<polygon fill="#757575" stroke="#757575" points="241.5,-1259.73 245,-1269.73 248.5,-1259.73 241.5,-1259.73"/>
</g>
<!-- node_60&#45;&gt;node_61 -->
<g id="edge69" class="edge">
<title>node_60&#45;&gt;node_61</title>
<path fill="none" stroke="#757575" d="M266.56,-1176.79C266.56,-1176.79 266.56,-1153.08 266.56,-1153.08"/>
<polygon fill="#757575" stroke="#757575" points="263.06,-1176.79 266.56,-1186.79 270.06,-1176.79 263.06,-1176.79"/>
</g>
<!-- node_62 -->
<g id="node63" class="node">
<title>node_62</title>
<path fill="#4a90d9" stroke="black" d="M85.88,-1786.75C85.88,-1786.75 30.12,-1786.75 30.12,-1786.75 24.12,-1786.75 18.12,-1780.75 18.12,-1774.75 18.12,-1774.75 18.12,-1755.5 18.12,-1755.5 18.12,-1749.5 24.12,-1743.5 30.12,-1743.5 30.12,-1743.5 85.88,-1743.5 85.88,-1743.5 91.88,-1743.5 97.88,-1749.5 97.88,-1755.5 97.88,-1755.5 97.88,-1774.75 97.88,-1774.75 97.88,-1780.75 91.88,-1786.75 85.88,-1786.75"/>
<text xml:space="preserve" text-anchor="middle" x="58" y="-1773.25" font-family="Helvetica,sans-Serif" font-size="10.00">layer4.0.conv2</text>
<text xml:space="preserve" text-anchor="middle" x="58" y="-1762" font-family="Helvetica,sans-Serif" font-size="10.00">Conv2d</text>
<text xml:space="preserve" text-anchor="middle" x="58" y="-1750.75" font-family="Helvetica,sans-Serif" font-size="10.00">512 → 512</text>
</g>
<!-- node_62&#45;&gt;node_9 -->
<g id="edge70" class="edge">
<title>node_62&#45;&gt;node_9</title>
<path fill="none" stroke="#757575" d="M98.14,-1765C123.69,-1765 152,-1765 152,-1765 152,-1765 152,-1640.16 152,-1640.16"/>
<polygon fill="#757575" stroke="#757575" points="155.5,-1640.16 152,-1630.16 148.5,-1640.16 155.5,-1640.16"/>
</g>
<!-- node_63 -->
<g id="node64" class="node">
<title>node_63</title>
<path fill="#ffd54f" stroke="black" d="M42,-1703.88C42,-1703.88 12,-1703.88 12,-1703.88 6,-1703.88 0,-1697.88 0,-1691.88 0,-1691.88 0,-1679.88 0,-1679.88 0,-1673.88 6,-1667.88 12,-1667.88 12,-1667.88 42,-1667.88 42,-1667.88 48,-1667.88 54,-1673.88 54,-1679.88 54,-1679.88 54,-1691.88 54,-1691.88 54,-1697.88 48,-1703.88 42,-1703.88"/>
<text xml:space="preserve" text-anchor="middle" x="27" y="-1682" font-family="Helvetica,sans-Serif" font-size="10.00">ReLU</text>
</g>
<!-- node_62&#45;&gt;node_63 -->
<g id="edge71" class="edge">
<title>node_62&#45;&gt;node_63</title>
<path fill="none" stroke="#757575" d="M36.06,-1731.54C36.06,-1731.54 36.06,-1704.35 36.06,-1704.35"/>
<polygon fill="#757575" stroke="#757575" points="32.56,-1731.54 36.06,-1741.54 39.56,-1731.54 32.56,-1731.54"/>
</g>
<!-- node_64 -->
<g id="node65" class="node">
<title>node_64</title>
<path fill="#81c784" stroke="black" d="M79,-1628.25C79,-1628.25 27,-1628.25 27,-1628.25 21,-1628.25 15,-1622.25 15,-1616.25 15,-1616.25 15,-1597 15,-1597 15,-1591 21,-1585 27,-1585 27,-1585 79,-1585 79,-1585 85,-1585 91,-1591 91,-1597 91,-1597 91,-1616.25 91,-1616.25 91,-1622.25 85,-1628.25 79,-1628.25"/>
<text xml:space="preserve" text-anchor="middle" x="53" y="-1614.75" font-family="Helvetica,sans-Serif" font-size="10.00">layer4.0.bn1</text>
<text xml:space="preserve" text-anchor="middle" x="53" y="-1603.5" font-family="Helvetica,sans-Serif" font-size="10.00">BatchNorm2d</text>
<text xml:space="preserve" text-anchor="middle" x="53" y="-1592.25" font-family="Helvetica,sans-Serif" font-size="10.00">512 → 512</text>
</g>
<!-- node_63&#45;&gt;node_64 -->
<g id="edge72" class="edge">
<title>node_63&#45;&gt;node_64</title>
<path fill="none" stroke="#757575" d="M34.5,-1655.98C34.5,-1655.98 34.5,-1628.57 34.5,-1628.57"/>
<polygon fill="#757575" stroke="#757575" points="31,-1655.98 34.5,-1665.98 38,-1655.98 31,-1655.98"/>
</g>
<!-- node_64&#45;&gt;node_65 -->
<g id="edge73" class="edge">
<title>node_64&#45;&gt;node_65</title>
<path fill="none" stroke="#757575" d="M79.56,-1573.04C79.56,-1573.04 79.56,-1549.33 79.56,-1549.33"/>
<polygon fill="#757575" stroke="#757575" points="76.06,-1573.04 79.56,-1583.04 83.06,-1573.04 76.06,-1573.04"/>
</g>
<!-- node_67 -->
<g id="node68" class="node">
<title>node_67</title>
<path fill="#ffd54f" stroke="black" d="M158,-2017.25C158,-2017.25 128,-2017.25 128,-2017.25 122,-2017.25 116,-2011.25 116,-2005.25 116,-2005.25 116,-1993.25 116,-1993.25 116,-1987.25 122,-1981.25 128,-1981.25 128,-1981.25 158,-1981.25 158,-1981.25 164,-1981.25 170,-1987.25 170,-1993.25 170,-1993.25 170,-2005.25 170,-2005.25 170,-2011.25 164,-2017.25 158,-2017.25"/>
<text xml:space="preserve" text-anchor="middle" x="143" y="-1995.38" font-family="Helvetica,sans-Serif" font-size="10.00">ReLU</text>
</g>
<!-- node_66&#45;&gt;node_67 -->
<g id="edge75" class="edge">
<title>node_66&#45;&gt;node_67</title>
<path fill="none" stroke="#757575" d="M143,-2041.49C143,-2041.49 143,-2017.75 143,-2017.75"/>
<polygon fill="#757575" stroke="#757575" points="139.5,-2041.49 143,-2051.49 146.5,-2041.49 139.5,-2041.49"/>
</g>
<!-- node_68 -->
<g id="node69" class="node">
<title>node_68</title>
<path fill="#81c784" stroke="black" d="M169,-1945.25C169,-1945.25 117,-1945.25 117,-1945.25 111,-1945.25 105,-1939.25 105,-1933.25 105,-1933.25 105,-1914 105,-1914 105,-1908 111,-1902 117,-1902 117,-1902 169,-1902 169,-1902 175,-1902 181,-1908 181,-1914 181,-1914 181,-1933.25 181,-1933.25 181,-1939.25 175,-1945.25 169,-1945.25"/>
<text xml:space="preserve" text-anchor="middle" x="143" y="-1931.75" font-family="Helvetica,sans-Serif" font-size="10.00">layer4.1.bn1</text>
<text xml:space="preserve" text-anchor="middle" x="143" y="-1920.5" font-family="Helvetica,sans-Serif" font-size="10.00">BatchNorm2d</text>
<text xml:space="preserve" text-anchor="middle" x="143" y="-1909.25" font-family="Helvetica,sans-Serif" font-size="10.00">512 → 512</text>
</g>
<!-- node_67&#45;&gt;node_68 -->
<g id="edge76" class="edge">
<title>node_67&#45;&gt;node_68</title>
<path fill="none" stroke="#757575" d="M143,-1969.43C143,-1969.43 143,-1945.53 143,-1945.53"/>
<polygon fill="#757575" stroke="#757575" points="139.5,-1969.43 143,-1979.43 146.5,-1969.43 139.5,-1969.43"/>
</g>
<!-- node_69 -->
<g id="node70" class="node">
<title>node_69</title>
<path fill="#4a90d9" stroke="black" d="M170.88,-1866C170.88,-1866 115.12,-1866 115.12,-1866 109.12,-1866 103.12,-1860 103.12,-1854 103.12,-1854 103.12,-1834.75 103.12,-1834.75 103.12,-1828.75 109.12,-1822.75 115.12,-1822.75 115.12,-1822.75 170.88,-1822.75 170.88,-1822.75 176.88,-1822.75 182.88,-1828.75 182.88,-1834.75 182.88,-1834.75 182.88,-1854 182.88,-1854 182.88,-1860 176.88,-1866 170.88,-1866"/>
<text xml:space="preserve" text-anchor="middle" x="143" y="-1852.5" font-family="Helvetica,sans-Serif" font-size="10.00">layer4.1.conv1</text>
<text xml:space="preserve" text-anchor="middle" x="143" y="-1841.25" font-family="Helvetica,sans-Serif" font-size="10.00">Conv2d</text>
<text xml:space="preserve" text-anchor="middle" x="143" y="-1830" font-family="Helvetica,sans-Serif" font-size="10.00">512 → 512</text>
</g>
<!-- node_68&#45;&gt;node_69 -->
<g id="edge77" class="edge">
<title>node_68&#45;&gt;node_69</title>
<path fill="none" stroke="#757575" d="M143,-1890.04C143,-1890.04 143,-1866.33 143,-1866.33"/>
<polygon fill="#757575" stroke="#757575" points="139.5,-1890.04 143,-1900.04 146.5,-1890.04 139.5,-1890.04"/>
</g>
<!-- node_69&#45;&gt;node_7 -->
<g id="edge8" class="edge">
<title>node_69&#45;&gt;node_7</title>
<path fill="none" stroke="#757575" d="M173.44,-1810.79C173.44,-1810.79 173.44,-1783.6 173.44,-1783.6"/>
<polygon fill="#757575" stroke="#757575" points="169.94,-1810.79 173.44,-1820.79 176.94,-1810.79 169.94,-1810.79"/>
</g>
</g>
</svg>
